G04*
G04 #@! TF.GenerationSoftware,Altium Limited,Altium Designer,21.3.2 (30)*
G04*
G04 Layer_Color=32768*
%FSTAX24Y24*%
%MOIN*%
G70*
G04*
G04 #@! TF.SameCoordinates,B67C6306-A56B-4E52-B5C8-3BB335875088*
G04*
G04*
G04 #@! TF.FilePolarity,Positive*
G04*
G01*
G75*
%ADD14C,0.0039*%
D14*
X04529Y028785D02*
X04655D01*
Y028155D02*
Y028785D01*
X04529Y028155D02*
X04655D01*
X04529D02*
Y028785D01*
X044928Y025934D02*
X046188D01*
X044928D02*
Y026564D01*
X046188D01*
Y025934D02*
Y026564D01*
X043411Y026568D02*
X044671D01*
Y025938D02*
Y026568D01*
X043411Y025938D02*
X044671D01*
X043411D02*
Y026568D01*
X044693Y028656D02*
Y029286D01*
X043433D02*
X044693D01*
X043433Y028656D02*
Y029286D01*
Y028656D02*
X044693D01*
X044683Y028106D02*
Y028736D01*
X043423D02*
X044683D01*
X043423Y028106D02*
Y028736D01*
Y028106D02*
X044683D01*
X046485Y029835D02*
Y030465D01*
X045265Y029835D02*
Y030465D01*
Y029835D02*
X046485D01*
X045265Y030465D02*
X046485D01*
X046885Y029885D02*
Y030515D01*
X048105Y029885D02*
Y030515D01*
X046885D02*
X048105D01*
X046885Y029885D02*
X048105D01*
X048155Y042579D02*
X049415D01*
Y041949D02*
Y042579D01*
X048155Y041949D02*
X049415D01*
X048155D02*
Y042579D01*
X053785Y041225D02*
X054415D01*
X053785Y042445D02*
X054415D01*
X053785Y041225D02*
Y042445D01*
X054415Y041225D02*
Y042445D01*
X053285Y041185D02*
Y042445D01*
X053915D01*
Y041185D02*
Y042445D01*
X053285Y041185D02*
X053915D01*
X053285Y035485D02*
Y036745D01*
X053915D01*
Y035485D02*
Y036745D01*
X053285Y035485D02*
X053915D01*
X044405Y041005D02*
X045035D01*
X044405Y039785D02*
X045035D01*
Y041005D01*
X044405Y039785D02*
Y041005D01*
X043905Y039745D02*
Y041005D01*
X044535D01*
Y039745D02*
Y041005D01*
X043905Y039745D02*
X044535D01*
X042455Y041525D02*
X043715D01*
Y040895D02*
Y041525D01*
X042455Y040895D02*
X043715D01*
X042455D02*
Y041525D01*
Y041025D02*
X043715D01*
Y040395D02*
Y041025D01*
X042455Y040395D02*
X043715D01*
X042455D02*
Y041025D01*
X043865Y038975D02*
X045085D01*
X043865Y039605D02*
X045085D01*
Y038975D02*
Y039605D01*
X043865Y038975D02*
Y039605D01*
X042455Y039525D02*
X043715D01*
Y038895D02*
Y039525D01*
X042455Y038895D02*
X043715D01*
X042455D02*
Y039525D01*
X043865Y038145D02*
Y038775D01*
X045085Y038145D02*
Y038775D01*
X043865D02*
X045085D01*
X043865Y038145D02*
X045085D01*
X043865Y037565D02*
Y038195D01*
Y037565D02*
X045125D01*
Y038195D01*
X043865D02*
X045125D01*
X040925Y034455D02*
X041555D01*
X040925Y033195D02*
Y034455D01*
Y033195D02*
X041555D01*
Y034455D01*
X041535Y033195D02*
Y034415D01*
X042165Y033195D02*
Y034415D01*
X041535Y033195D02*
X042165D01*
X041535Y034415D02*
X042165D01*
X040915Y035705D02*
X041545D01*
X040915Y034485D02*
X041545D01*
Y035705D01*
X040915Y034485D02*
Y035705D01*
X041545Y035915D02*
Y037135D01*
X040915Y035915D02*
Y037135D01*
X041545D01*
X040915Y035915D02*
X041545D01*
X040925Y037045D02*
Y038305D01*
X041555D01*
Y037045D02*
Y038305D01*
X040925Y037045D02*
X041555D01*
X040925Y038265D02*
X041555D01*
X040925Y039485D02*
X041555D01*
X040925Y038265D02*
Y039485D01*
X041555Y038265D02*
Y039485D01*
X036425Y026885D02*
X037645D01*
X036425Y027515D02*
X037645D01*
Y026885D02*
Y027515D01*
X036425Y026885D02*
Y027515D01*
X036385Y026235D02*
Y026865D01*
Y026235D02*
X037645D01*
Y026865D01*
X036385D02*
X037645D01*
X040175Y026105D02*
Y027365D01*
X040805D01*
Y026105D02*
Y027365D01*
X040175Y026105D02*
X040805D01*
X039605Y026125D02*
X040235D01*
X039605Y027345D02*
X040235D01*
X039605Y026125D02*
Y027345D01*
X040235Y026125D02*
Y027345D01*
X039025Y026135D02*
X039655D01*
X039025Y027355D02*
X039655D01*
X039025Y026135D02*
Y027355D01*
X039655Y026135D02*
Y027355D01*
X038435Y026115D02*
X039065D01*
Y027375D01*
X038435D02*
X039065D01*
X038435Y026115D02*
Y027375D01*
X04345Y024155D02*
X04471D01*
Y023525D02*
Y024155D01*
X04345Y023525D02*
X04471D01*
X04345D02*
Y024155D01*
Y023655D02*
X04471D01*
Y023025D02*
Y023655D01*
X04345Y023025D02*
X04471D01*
X04345D02*
Y023655D01*
X044545Y021135D02*
Y022395D01*
X043915Y021135D02*
X044545D01*
X043915D02*
Y022395D01*
X044545D01*
X045165Y021145D02*
Y022405D01*
X044535Y021145D02*
X045165D01*
X044535D02*
Y022405D01*
X045165D01*
X044915Y025325D02*
X046175D01*
X044915D02*
Y025955D01*
X046175D01*
Y025325D02*
Y025955D01*
X046515Y026375D02*
X047775D01*
Y025745D02*
Y026375D01*
X046515Y025745D02*
X047775D01*
X046515D02*
Y026375D01*
X046725Y022765D02*
X047985D01*
Y022135D02*
Y022765D01*
X046725Y022135D02*
X047985D01*
X046725D02*
Y022765D01*
X049145Y024635D02*
X050405D01*
Y024005D02*
Y024635D01*
X049145Y024005D02*
X050405D01*
X049145D02*
Y024635D01*
X049151Y023505D02*
X05041D01*
X049151D02*
Y024135D01*
X05041D01*
Y023505D02*
Y024135D01*
X049151Y023005D02*
X05041D01*
X049151D02*
Y023635D01*
X05041D01*
Y023005D02*
Y023635D01*
X052335Y020825D02*
Y022085D01*
X051705Y020825D02*
X052335D01*
X051705D02*
Y022085D01*
X052335D01*
X051275Y022765D02*
X052535D01*
Y022135D02*
Y022765D01*
X051275Y022135D02*
X052535D01*
X051275D02*
Y022765D01*
X052965Y020825D02*
Y022085D01*
X052335Y020825D02*
X052965D01*
X052335D02*
Y022085D01*
X052965D01*
X05254Y023245D02*
X0538D01*
Y022615D02*
Y023245D01*
X05254Y022615D02*
X0538D01*
X05254D02*
Y023245D01*
Y023745D02*
X0538D01*
Y023115D02*
Y023745D01*
X05254Y023115D02*
X0538D01*
X05254D02*
Y023745D01*
X05254Y023675D02*
X0538D01*
X05254D02*
Y024305D01*
X0538D01*
Y023675D02*
Y024305D01*
X053785Y024245D02*
Y024875D01*
X052565Y024245D02*
Y024875D01*
Y024245D02*
X053785D01*
X052565Y024875D02*
X053785D01*
X056405Y020155D02*
X057035D01*
Y021415D01*
X056405D02*
X057035D01*
X056405Y020155D02*
Y021415D01*
X059275Y022335D02*
Y022965D01*
X058055Y022335D02*
Y022965D01*
Y022335D02*
X059275D01*
X058055Y022965D02*
X059275D01*
X061635Y022775D02*
X062265D01*
X061635Y023995D02*
X062265D01*
X061635Y022775D02*
Y023995D01*
X062265Y022775D02*
Y023995D01*
X062285Y019465D02*
X063545D01*
Y018835D02*
Y019465D01*
X062285Y018835D02*
X063545D01*
X062285D02*
Y019465D01*
X063485D02*
X064745D01*
Y018835D02*
Y019465D01*
X063485Y018835D02*
X064745D01*
X063485D02*
Y019465D01*
X036475Y050515D02*
X037735D01*
Y049885D02*
Y050515D01*
X036475Y049885D02*
X037735D01*
X036475D02*
Y050515D01*
X045145Y053925D02*
Y055145D01*
X045775Y053925D02*
Y055145D01*
X045145Y053925D02*
X045775D01*
X045145Y055145D02*
X045775D01*
X047585Y054205D02*
Y055465D01*
X048215D01*
Y054205D02*
Y055465D01*
X047585Y054205D02*
X048215D01*
X048825Y053535D02*
Y054165D01*
X047605Y053535D02*
Y054165D01*
Y053535D02*
X048825D01*
X047605Y054165D02*
X048825D01*
X048805D02*
X050065D01*
Y053535D02*
Y054165D01*
X048805Y053535D02*
X050065D01*
X048805D02*
Y054165D01*
Y054715D02*
X050025D01*
X048805Y054085D02*
X050025D01*
X048805D02*
Y054715D01*
X050025Y054085D02*
Y054715D01*
X048785Y054635D02*
X050045D01*
X048785D02*
Y055265D01*
X050045D01*
Y054635D02*
Y055265D01*
X050765Y053225D02*
Y054445D01*
X050135Y053225D02*
Y054445D01*
X050765D01*
X050135Y053225D02*
X050765D01*
X051055Y055435D02*
X052315D01*
X051055D02*
Y056065D01*
X052315D01*
Y055435D02*
Y056065D01*
X052435D02*
X053695D01*
Y055435D02*
Y056065D01*
X052435Y055435D02*
X053695D01*
X052435D02*
Y056065D01*
X055665Y054755D02*
Y056015D01*
X055035Y054755D02*
X055665D01*
X055035D02*
Y056015D01*
X055665D01*
X054485D02*
X055115D01*
X054485Y054755D02*
Y056015D01*
Y054755D02*
X055115D01*
Y056015D01*
X054615Y054755D02*
Y055975D01*
X053985Y054755D02*
Y055975D01*
X054615D01*
X053985Y054755D02*
X054615D01*
X061135Y053745D02*
X061765D01*
X061135Y052485D02*
Y053745D01*
Y052485D02*
X061765D01*
Y053745D01*
X062265Y052525D02*
Y053745D01*
X061635Y052525D02*
Y053745D01*
X062265D01*
X061635Y052525D02*
X062265D01*
X079185Y047565D02*
X079815D01*
X079185Y046305D02*
Y047565D01*
Y046305D02*
X079815D01*
Y047565D01*
X079185Y028185D02*
X079815D01*
Y029445D01*
X079185D02*
X079815D01*
X079185Y028185D02*
Y029445D01*
X05254Y022745D02*
X0538D01*
Y022115D02*
Y022745D01*
X05254Y022115D02*
X0538D01*
X05254D02*
Y022745D01*
X044535Y040915D02*
Y042175D01*
X043905Y040915D02*
X044535D01*
X043905D02*
Y042175D01*
X044535D01*
X04815Y028155D02*
Y028785D01*
X04689D02*
X04815D01*
X04689Y028155D02*
Y028785D01*
Y028155D02*
X04815D01*
X051395Y044505D02*
X052025D01*
Y045765D01*
X051395D02*
X052025D01*
X051395Y044505D02*
Y045765D01*
X063355Y056065D02*
X064615D01*
Y055435D02*
Y056065D01*
X063355Y055435D02*
X064615D01*
X063355D02*
Y056065D01*
X062185Y055435D02*
Y056065D01*
Y055435D02*
X063445D01*
Y056065D01*
X062185D02*
X063445D01*
X047745Y047425D02*
X048965D01*
X047745Y048055D02*
X048965D01*
Y047425D02*
Y048055D01*
X047745Y047425D02*
Y048055D01*
X053885Y035525D02*
X054515D01*
X053885Y036745D02*
X054515D01*
X053885Y035525D02*
Y036745D01*
X054515Y035525D02*
Y036745D01*
X054745Y021995D02*
X055375D01*
X054745Y023215D02*
X055375D01*
X054745Y021995D02*
Y023215D01*
X055375Y021995D02*
Y023215D01*
X054745Y022085D02*
X055375D01*
X054745Y020825D02*
Y022085D01*
Y020825D02*
X055375D01*
Y022085D01*
X055845Y020195D02*
X056475D01*
X055845Y021415D02*
X056475D01*
X055845Y020195D02*
Y021415D01*
X056475Y020195D02*
Y021415D01*
X055295Y020155D02*
X055925D01*
Y021415D01*
X055295D02*
X055925D01*
X055295Y020155D02*
Y021415D01*
X055995Y025125D02*
X056625D01*
Y026385D01*
X055995D02*
X056625D01*
X055995Y025125D02*
Y026385D01*
X055445Y025125D02*
X056075D01*
Y026385D01*
X055445D02*
X056075D01*
X055445Y025125D02*
Y026385D01*
X056635Y024605D02*
Y025235D01*
X055415Y024605D02*
Y025235D01*
Y024605D02*
X056635D01*
X055415Y025235D02*
X056635D01*
X056695Y024365D02*
X057325D01*
X056695Y023105D02*
Y024365D01*
Y023105D02*
X057325D01*
Y024365D01*
X044405Y040915D02*
X045035D01*
X044405Y042135D02*
X045035D01*
X044405Y040915D02*
Y042135D01*
X045035Y040915D02*
Y042135D01*
M02*
