G04*
G04 #@! TF.GenerationSoftware,Altium Limited,Altium Designer,21.3.2 (30)*
G04*
G04 Layer_Color=32896*
%FSTAX24Y24*%
%MOIN*%
G70*
G04*
G04 #@! TF.SameCoordinates,B67C6306-A56B-4E52-B5C8-3BB335875088*
G04*
G04*
G04 #@! TF.FilePolarity,Positive*
G04*
G01*
G75*
%ADD10C,0.0100*%
%ADD12C,0.0079*%
D10*
X06293Y0305D02*
X06298Y03055D01*
X06308D01*
X06313Y0305D01*
Y0303D01*
X06308Y03025D01*
X06298D01*
X06293Y0303D01*
X06263Y03025D02*
X06283D01*
X06263Y03045D01*
Y0305D01*
X06268Y03055D01*
X06278D01*
X06283Y0305D01*
X06253Y03055D02*
X06233D01*
Y0305D01*
X06253Y0303D01*
Y03025D01*
X06788Y03042D02*
X06793Y03047D01*
X06803D01*
X06808Y03042D01*
Y03022D01*
X06803Y03017D01*
X06793D01*
X06788Y03022D01*
X06758Y03017D02*
X06778D01*
X06758Y03037D01*
Y03042D01*
X06763Y03047D01*
X06773D01*
X06778Y03042D01*
X06728Y03047D02*
X06738Y03042D01*
X06748Y03032D01*
Y03022D01*
X06743Y03017D01*
X06733D01*
X06728Y03022D01*
Y03027D01*
X06733Y03032D01*
X06748D01*
X07313Y03042D02*
X07318Y03047D01*
X07328D01*
X07333Y03042D01*
Y03022D01*
X07328Y03017D01*
X07318D01*
X07313Y03022D01*
X07283Y03017D02*
X07303D01*
X07283Y03037D01*
Y03042D01*
X07288Y03047D01*
X07298D01*
X07303Y03042D01*
X07253Y03047D02*
X07273D01*
Y03032D01*
X07263Y03037D01*
X07258D01*
X07253Y03032D01*
Y03022D01*
X07258Y03017D01*
X07268D01*
X07273Y03022D01*
X07313Y04835D02*
X07318Y0484D01*
X07328D01*
X07333Y04835D01*
Y04815D01*
X07328Y0481D01*
X07318D01*
X07313Y04815D01*
X07303Y0481D02*
X07293D01*
X07298D01*
Y0484D01*
X07303Y04835D01*
X07278Y0484D02*
X07258D01*
Y04835D01*
X07278Y04815D01*
Y0481D01*
X06788Y04835D02*
X06793Y0484D01*
X06803D01*
X06808Y04835D01*
Y04815D01*
X06803Y0481D01*
X06793D01*
X06788Y04815D01*
X06778Y0481D02*
X06768D01*
X06773D01*
Y0484D01*
X06778Y04835D01*
X06733Y0484D02*
X06743Y04835D01*
X06753Y04825D01*
Y04815D01*
X06748Y0481D01*
X06738D01*
X06733Y04815D01*
Y0482D01*
X06738Y04825D01*
X06753D01*
X06358Y04835D02*
X06363Y0484D01*
X06373D01*
X06378Y04835D01*
Y04815D01*
X06373Y0481D01*
X06363D01*
X06358Y04815D01*
X06348Y0481D02*
X06338D01*
X06343D01*
Y0484D01*
X06348Y04835D01*
X06303Y0484D02*
X06323D01*
Y04825D01*
X06313Y0483D01*
X06308D01*
X06303Y04825D01*
Y04815D01*
X06308Y0481D01*
X06318D01*
X06323Y04815D01*
X07913Y03039D02*
X07918Y03044D01*
X07928D01*
X07933Y03039D01*
Y03019D01*
X07928Y03014D01*
X07918D01*
X07913Y03019D01*
X07883Y03014D02*
X07903D01*
X07883Y03034D01*
Y03039D01*
X07888Y03044D01*
X07898D01*
X07903Y03039D01*
X07853Y03014D02*
X07873D01*
X07853Y03034D01*
Y03039D01*
X07858Y03044D01*
X07868D01*
X07873Y03039D01*
X08045Y0303D02*
X0805Y03035D01*
X0806D01*
X08065Y0303D01*
Y0301D01*
X0806Y03005D01*
X0805D01*
X08045Y0301D01*
X08015Y03005D02*
X08035D01*
X08015Y03025D01*
Y0303D01*
X0802Y03035D01*
X0803D01*
X08035Y0303D01*
X08005Y03005D02*
X07995D01*
X08D01*
Y03035D01*
X08005Y0303D01*
X07918Y04836D02*
X07923Y04841D01*
X07933D01*
X07938Y04836D01*
Y04816D01*
X07933Y04811D01*
X07923D01*
X07918Y04816D01*
X07908Y04811D02*
X07898D01*
X07903D01*
Y04841D01*
X07908Y04836D01*
X07883D02*
X07878Y04841D01*
X07868D01*
X07863Y04836D01*
Y04816D01*
X07868Y04811D01*
X07878D01*
X07883Y04816D01*
Y04836D01*
X08018D02*
X08023Y04841D01*
X08033D01*
X08038Y04836D01*
Y04816D01*
X08033Y04811D01*
X08023D01*
X08018Y04816D01*
X08008D02*
X08003Y04811D01*
X07993D01*
X07988Y04816D01*
Y04836D01*
X07993Y04841D01*
X08003D01*
X08008Y04836D01*
Y04831D01*
X08003Y04826D01*
X07988D01*
D12*
X080344Y046534D02*
Y047085D01*
X079556Y046534D02*
Y047085D01*
X063741Y047035D02*
X063741Y046444D01*
X062559D02*
X062559Y047035D01*
X061909Y028594D02*
Y029185D01*
X063091Y028594D02*
Y029185D01*
X068041Y028515D02*
Y029106D01*
X066859Y028515D02*
Y029106D01*
X073291Y028515D02*
Y029106D01*
X072109Y028515D02*
Y029106D01*
X079506Y028565D02*
Y029116D01*
X080294Y028565D02*
Y029116D01*
X079294Y028565D02*
Y029116D01*
X078506Y028565D02*
Y029116D01*
X072109Y046444D02*
Y047035D01*
X073291Y046444D02*
Y047035D01*
X066859Y046444D02*
Y047035D01*
X068041Y046444D02*
Y047035D01*
X078556Y046534D02*
Y047085D01*
X079344Y046534D02*
Y047085D01*
M02*
