G04*
G04 #@! TF.GenerationSoftware,Altium Limited,Altium Designer,21.3.2 (30)*
G04*
G04 Layer_Color=8388736*
%FSTAX24Y24*%
%MOIN*%
G70*
G04*
G04 #@! TF.SameCoordinates,B67C6306-A56B-4E52-B5C8-3BB335875088*
G04*
G04*
G04 #@! TF.FilePolarity,Negative*
G04*
G01*
G75*
G04:AMPARAMS|DCode=59|XSize=55.1mil|YSize=78.7mil|CornerRadius=8.7mil|HoleSize=0mil|Usage=FLASHONLY|Rotation=270.000|XOffset=0mil|YOffset=0mil|HoleType=Round|Shape=RoundedRectangle|*
%AMROUNDEDRECTD59*
21,1,0.0551,0.0614,0,0,270.0*
21,1,0.0378,0.0787,0,0,270.0*
1,1,0.0173,-0.0307,-0.0189*
1,1,0.0173,-0.0307,0.0189*
1,1,0.0173,0.0307,0.0189*
1,1,0.0173,0.0307,-0.0189*
%
%ADD59ROUNDEDRECTD59*%
%ADD60R,0.0630X0.0580*%
G04:AMPARAMS|DCode=61|XSize=40.9mil|YSize=58.7mil|CornerRadius=4.5mil|HoleSize=0mil|Usage=FLASHONLY|Rotation=0.000|XOffset=0mil|YOffset=0mil|HoleType=Round|Shape=RoundedRectangle|*
%AMROUNDEDRECTD61*
21,1,0.0409,0.0496,0,0,0.0*
21,1,0.0319,0.0587,0,0,0.0*
1,1,0.0091,0.0159,-0.0248*
1,1,0.0091,-0.0159,-0.0248*
1,1,0.0091,-0.0159,0.0248*
1,1,0.0091,0.0159,0.0248*
%
%ADD61ROUNDEDRECTD61*%
G04:AMPARAMS|DCode=62|XSize=43.3mil|YSize=43.3mil|CornerRadius=7.5mil|HoleSize=0mil|Usage=FLASHONLY|Rotation=0.000|XOffset=0mil|YOffset=0mil|HoleType=Round|Shape=RoundedRectangle|*
%AMROUNDEDRECTD62*
21,1,0.0433,0.0283,0,0,0.0*
21,1,0.0283,0.0433,0,0,0.0*
1,1,0.0150,0.0142,-0.0142*
1,1,0.0150,-0.0142,-0.0142*
1,1,0.0150,-0.0142,0.0142*
1,1,0.0150,0.0142,0.0142*
%
%ADD62ROUNDEDRECTD62*%
G04:AMPARAMS|DCode=63|XSize=43.4mil|YSize=43.4mil|CornerRadius=7.5mil|HoleSize=0mil|Usage=FLASHONLY|Rotation=0.000|XOffset=0mil|YOffset=0mil|HoleType=Round|Shape=RoundedRectangle|*
%AMROUNDEDRECTD63*
21,1,0.0434,0.0283,0,0,0.0*
21,1,0.0283,0.0434,0,0,0.0*
1,1,0.0151,0.0142,-0.0142*
1,1,0.0151,-0.0142,-0.0142*
1,1,0.0151,-0.0142,0.0142*
1,1,0.0151,0.0142,0.0142*
%
%ADD63ROUNDEDRECTD63*%
%ADD64R,0.0316X0.0474*%
G04:AMPARAMS|DCode=65|XSize=47.2mil|YSize=68.9mil|CornerRadius=7.9mil|HoleSize=0mil|Usage=FLASHONLY|Rotation=180.000|XOffset=0mil|YOffset=0mil|HoleType=Round|Shape=RoundedRectangle|*
%AMROUNDEDRECTD65*
21,1,0.0472,0.0531,0,0,180.0*
21,1,0.0315,0.0689,0,0,180.0*
1,1,0.0157,-0.0157,0.0266*
1,1,0.0157,0.0157,0.0266*
1,1,0.0157,0.0157,-0.0266*
1,1,0.0157,-0.0157,-0.0266*
%
%ADD65ROUNDEDRECTD65*%
%ADD66R,0.3899X0.1537*%
%ADD67R,0.3505X0.1222*%
%ADD68R,0.4056X0.0631*%
%ADD69R,0.3230X0.0395*%
%ADD70R,0.0395X0.0867*%
%ADD71R,0.0395X0.1182*%
G04:AMPARAMS|DCode=72|XSize=43.3mil|YSize=43.3mil|CornerRadius=7.5mil|HoleSize=0mil|Usage=FLASHONLY|Rotation=90.000|XOffset=0mil|YOffset=0mil|HoleType=Round|Shape=RoundedRectangle|*
%AMROUNDEDRECTD72*
21,1,0.0433,0.0283,0,0,90.0*
21,1,0.0283,0.0433,0,0,90.0*
1,1,0.0150,0.0142,0.0142*
1,1,0.0150,0.0142,-0.0142*
1,1,0.0150,-0.0142,-0.0142*
1,1,0.0150,-0.0142,0.0142*
%
%ADD72ROUNDEDRECTD72*%
G04:AMPARAMS|DCode=73|XSize=47.4mil|YSize=69mil|CornerRadius=7.9mil|HoleSize=0mil|Usage=FLASHONLY|Rotation=0.000|XOffset=0mil|YOffset=0mil|HoleType=Round|Shape=RoundedRectangle|*
%AMROUNDEDRECTD73*
21,1,0.0474,0.0531,0,0,0.0*
21,1,0.0315,0.0690,0,0,0.0*
1,1,0.0159,0.0157,-0.0266*
1,1,0.0159,-0.0157,-0.0266*
1,1,0.0159,-0.0157,0.0266*
1,1,0.0159,0.0157,0.0266*
%
%ADD73ROUNDEDRECTD73*%
G04:AMPARAMS|DCode=74|XSize=44.9mil|YSize=60.6mil|CornerRadius=4.7mil|HoleSize=0mil|Usage=FLASHONLY|Rotation=270.000|XOffset=0mil|YOffset=0mil|HoleType=Round|Shape=RoundedRectangle|*
%AMROUNDEDRECTD74*
21,1,0.0449,0.0512,0,0,270.0*
21,1,0.0354,0.0606,0,0,270.0*
1,1,0.0094,-0.0256,-0.0177*
1,1,0.0094,-0.0256,0.0177*
1,1,0.0094,0.0256,0.0177*
1,1,0.0094,0.0256,-0.0177*
%
%ADD74ROUNDEDRECTD74*%
%ADD75C,0.0449*%
G04:AMPARAMS|DCode=76|XSize=43.4mil|YSize=43.4mil|CornerRadius=7.5mil|HoleSize=0mil|Usage=FLASHONLY|Rotation=90.000|XOffset=0mil|YOffset=0mil|HoleType=Round|Shape=RoundedRectangle|*
%AMROUNDEDRECTD76*
21,1,0.0434,0.0283,0,0,90.0*
21,1,0.0283,0.0434,0,0,90.0*
1,1,0.0151,0.0142,0.0142*
1,1,0.0151,0.0142,-0.0142*
1,1,0.0151,-0.0142,-0.0142*
1,1,0.0151,-0.0142,0.0142*
%
%ADD76ROUNDEDRECTD76*%
G04:AMPARAMS|DCode=77|XSize=40.9mil|YSize=58.7mil|CornerRadius=4.5mil|HoleSize=0mil|Usage=FLASHONLY|Rotation=270.000|XOffset=0mil|YOffset=0mil|HoleType=Round|Shape=RoundedRectangle|*
%AMROUNDEDRECTD77*
21,1,0.0409,0.0496,0,0,270.0*
21,1,0.0319,0.0587,0,0,270.0*
1,1,0.0091,-0.0248,-0.0159*
1,1,0.0091,-0.0248,0.0159*
1,1,0.0091,0.0248,0.0159*
1,1,0.0091,0.0248,-0.0159*
%
%ADD77ROUNDEDRECTD77*%
G04:AMPARAMS|DCode=78|XSize=44.9mil|YSize=84.3mil|CornerRadius=7.7mil|HoleSize=0mil|Usage=FLASHONLY|Rotation=0.000|XOffset=0mil|YOffset=0mil|HoleType=Round|Shape=RoundedRectangle|*
%AMROUNDEDRECTD78*
21,1,0.0449,0.0689,0,0,0.0*
21,1,0.0295,0.0843,0,0,0.0*
1,1,0.0154,0.0148,-0.0344*
1,1,0.0154,-0.0148,-0.0344*
1,1,0.0154,-0.0148,0.0344*
1,1,0.0154,0.0148,0.0344*
%
%ADD78ROUNDEDRECTD78*%
G04:AMPARAMS|DCode=79|XSize=222mil|YSize=229.9mil|CornerRadius=29.8mil|HoleSize=0mil|Usage=FLASHONLY|Rotation=0.000|XOffset=0mil|YOffset=0mil|HoleType=Round|Shape=RoundedRectangle|*
%AMROUNDEDRECTD79*
21,1,0.2220,0.1703,0,0,0.0*
21,1,0.1624,0.2299,0,0,0.0*
1,1,0.0596,0.0812,-0.0851*
1,1,0.0596,-0.0812,-0.0851*
1,1,0.0596,-0.0812,0.0851*
1,1,0.0596,0.0812,0.0851*
%
%ADD79ROUNDEDRECTD79*%
%ADD80R,0.1399X0.0572*%
G04:AMPARAMS|DCode=81|XSize=74.8mil|YSize=63mil|CornerRadius=4.9mil|HoleSize=0mil|Usage=FLASHONLY|Rotation=0.000|XOffset=0mil|YOffset=0mil|HoleType=Round|Shape=RoundedRectangle|*
%AMROUNDEDRECTD81*
21,1,0.0748,0.0531,0,0,0.0*
21,1,0.0650,0.0630,0,0,0.0*
1,1,0.0098,0.0325,-0.0266*
1,1,0.0098,-0.0325,-0.0266*
1,1,0.0098,-0.0325,0.0266*
1,1,0.0098,0.0325,0.0266*
%
%ADD81ROUNDEDRECTD81*%
%ADD82R,0.0474X0.0316*%
G04:AMPARAMS|DCode=83|XSize=56.7mil|YSize=76.4mil|CornerRadius=5.3mil|HoleSize=0mil|Usage=FLASHONLY|Rotation=180.000|XOffset=0mil|YOffset=0mil|HoleType=Round|Shape=RoundedRectangle|*
%AMROUNDEDRECTD83*
21,1,0.0567,0.0657,0,0,180.0*
21,1,0.0461,0.0764,0,0,180.0*
1,1,0.0106,-0.0230,0.0329*
1,1,0.0106,0.0230,0.0329*
1,1,0.0106,0.0230,-0.0329*
1,1,0.0106,-0.0230,-0.0329*
%
%ADD83ROUNDEDRECTD83*%
%ADD84R,0.1222X0.2206*%
%ADD85R,0.1181X0.0591*%
%ADD86R,0.1938X0.1970*%
%ADD87R,0.0580X0.0631*%
%ADD88R,0.0680X0.0336*%
%ADD89R,0.1025X0.1300*%
%ADD90R,0.0769X0.1261*%
G04:AMPARAMS|DCode=91|XSize=94.5mil|YSize=106.3mil|CornerRadius=6.5mil|HoleSize=0mil|Usage=FLASHONLY|Rotation=90.000|XOffset=0mil|YOffset=0mil|HoleType=Round|Shape=RoundedRectangle|*
%AMROUNDEDRECTD91*
21,1,0.0945,0.0933,0,0,90.0*
21,1,0.0815,0.1063,0,0,90.0*
1,1,0.0130,0.0467,0.0407*
1,1,0.0130,0.0467,-0.0407*
1,1,0.0130,-0.0467,-0.0407*
1,1,0.0130,-0.0467,0.0407*
%
%ADD91ROUNDEDRECTD91*%
%ADD92R,0.0551X0.0787*%
G04:AMPARAMS|DCode=93|XSize=47.2mil|YSize=68.9mil|CornerRadius=7.9mil|HoleSize=0mil|Usage=FLASHONLY|Rotation=90.000|XOffset=0mil|YOffset=0mil|HoleType=Round|Shape=RoundedRectangle|*
%AMROUNDEDRECTD93*
21,1,0.0472,0.0531,0,0,90.0*
21,1,0.0315,0.0689,0,0,90.0*
1,1,0.0157,0.0266,0.0157*
1,1,0.0157,0.0266,-0.0157*
1,1,0.0157,-0.0266,-0.0157*
1,1,0.0157,-0.0266,0.0157*
%
%ADD93ROUNDEDRECTD93*%
%ADD94R,0.3230X0.4017*%
%ADD95R,0.3623X0.3230*%
%ADD96R,0.0257X0.0661*%
G04:AMPARAMS|DCode=97|XSize=202.4mil|YSize=102mil|CornerRadius=7.6mil|HoleSize=0mil|Usage=FLASHONLY|Rotation=180.000|XOffset=0mil|YOffset=0mil|HoleType=Round|Shape=RoundedRectangle|*
%AMROUNDEDRECTD97*
21,1,0.2024,0.0868,0,0,180.0*
21,1,0.1872,0.1020,0,0,180.0*
1,1,0.0152,-0.0936,0.0434*
1,1,0.0152,0.0936,0.0434*
1,1,0.0152,0.0936,-0.0434*
1,1,0.0152,-0.0936,-0.0434*
%
%ADD97ROUNDEDRECTD97*%
G04:AMPARAMS|DCode=98|XSize=40.9mil|YSize=102mil|CornerRadius=4.5mil|HoleSize=0mil|Usage=FLASHONLY|Rotation=0.000|XOffset=0mil|YOffset=0mil|HoleType=Round|Shape=RoundedRectangle|*
%AMROUNDEDRECTD98*
21,1,0.0409,0.0929,0,0,0.0*
21,1,0.0319,0.1020,0,0,0.0*
1,1,0.0091,0.0159,-0.0465*
1,1,0.0091,-0.0159,-0.0465*
1,1,0.0091,-0.0159,0.0465*
1,1,0.0091,0.0159,0.0465*
%
%ADD98ROUNDEDRECTD98*%
%ADD99R,0.0848X0.0336*%
%ADD100R,0.0591X0.1181*%
%ADD101R,0.0440X0.0789*%
%ADD102R,0.0552X0.0257*%
%ADD103C,0.2836*%
%ADD104C,0.0880*%
G04:AMPARAMS|DCode=105|XSize=378mil|YSize=218mil|CornerRadius=56.5mil|HoleSize=0mil|Usage=FLASHONLY|Rotation=0.000|XOffset=0mil|YOffset=0mil|HoleType=Round|Shape=RoundedRectangle|*
%AMROUNDEDRECTD105*
21,1,0.3780,0.1050,0,0,0.0*
21,1,0.2650,0.2180,0,0,0.0*
1,1,0.1130,0.1325,-0.0525*
1,1,0.1130,-0.1325,-0.0525*
1,1,0.1130,-0.1325,0.0525*
1,1,0.1130,0.1325,0.0525*
%
%ADD105ROUNDEDRECTD105*%
%ADD106C,0.0474*%
%ADD107C,0.0671*%
%ADD108R,0.0671X0.0671*%
%ADD109C,0.0709*%
G04:AMPARAMS|DCode=110|XSize=378mil|YSize=218mil|CornerRadius=56.5mil|HoleSize=0mil|Usage=FLASHONLY|Rotation=270.000|XOffset=0mil|YOffset=0mil|HoleType=Round|Shape=RoundedRectangle|*
%AMROUNDEDRECTD110*
21,1,0.3780,0.1050,0,0,270.0*
21,1,0.2650,0.2180,0,0,270.0*
1,1,0.1130,-0.0525,-0.1325*
1,1,0.1130,-0.0525,0.1325*
1,1,0.1130,0.0525,0.1325*
1,1,0.1130,0.0525,-0.1325*
%
%ADD110ROUNDEDRECTD110*%
%ADD111R,0.0671X0.0671*%
%ADD112R,0.0709X0.0787*%
%ADD113R,0.0694X0.0694*%
%ADD114C,0.0694*%
%ADD115C,0.2049*%
%ADD116C,0.2442*%
%ADD117C,0.0610*%
G04:AMPARAMS|DCode=118|XSize=61mil|YSize=61mil|CornerRadius=16.7mil|HoleSize=0mil|Usage=FLASHONLY|Rotation=270.000|XOffset=0mil|YOffset=0mil|HoleType=Round|Shape=RoundedRectangle|*
%AMROUNDEDRECTD118*
21,1,0.0610,0.0276,0,0,270.0*
21,1,0.0276,0.0610,0,0,270.0*
1,1,0.0335,-0.0138,-0.0138*
1,1,0.0335,-0.0138,0.0138*
1,1,0.0335,0.0138,0.0138*
1,1,0.0335,0.0138,-0.0138*
%
%ADD118ROUNDEDRECTD118*%
%ADD119C,0.1280*%
%ADD120C,0.3996*%
%ADD121R,0.0480X0.4680*%
G36*
X072693Y043299D02*
X072695Y043299D01*
X072695Y043299D01*
X072695Y043299D01*
X072698Y043299D01*
X0727Y043298D01*
X0727Y043298D01*
X0727Y043298D01*
X072703Y043298D01*
X072705Y043297D01*
X072705Y043297D01*
X072705Y043297D01*
X072708Y043296D01*
X07271Y043294D01*
X07271Y043294D01*
X07271Y043294D01*
X072712Y043293D01*
X072714Y043292D01*
X072714Y043291D01*
X072714Y043291D01*
X072716Y04329D01*
X072718Y043288D01*
X072718Y043288D01*
X072718Y043288D01*
X07272Y043286D01*
X072722Y043284D01*
X072722Y043284D01*
X072722Y043284D01*
X072723Y043282D01*
X072725Y04328D01*
X072725Y04328D01*
X072725Y04328D01*
X072726Y043277D01*
X072727Y043275D01*
X072727Y043275D01*
X072727Y043275D01*
X072728Y043273D01*
X072729Y04327D01*
X072729Y04327D01*
X072729Y04327D01*
X072729Y043267D01*
X07273Y043265D01*
X07273Y043265D01*
X07273Y043265D01*
X07273Y043262D01*
X07273Y04326D01*
X07273Y04326D01*
X07273Y04326D01*
X07273Y03231D01*
X07273Y032305D01*
X072729Y0323D01*
X072727Y032295D01*
X072725Y03229D01*
X072722Y032286D01*
X072718Y032282D01*
X072714Y032278D01*
X07271Y032275D01*
X072705Y032273D01*
X0727Y032271D01*
X072695Y03227D01*
X07269Y03227D01*
X06694Y03227D01*
X06694Y03227D01*
X06694Y03227D01*
X066938Y03227D01*
X066935Y03227D01*
X066935Y03227D01*
X066935Y03227D01*
X066932Y032271D01*
X06693Y032271D01*
X06693Y032271D01*
X06693Y032271D01*
X066928Y032272D01*
X066925Y032273D01*
X066925Y032273D01*
X066925Y032273D01*
X066922Y032274D01*
X06692Y032275D01*
X06692Y032275D01*
X06692Y032275D01*
X066918Y032277D01*
X066916Y032278D01*
X066916Y032278D01*
X066916Y032278D01*
X066914Y03228D01*
X066912Y032282D01*
X066912Y032282D01*
X066912Y032282D01*
X06691Y032283D01*
X066908Y032286D01*
X066908Y032286D01*
X066908Y032286D01*
X066907Y032288D01*
X066905Y03229D01*
X066905Y03229D01*
X066905Y03229D01*
X066904Y032292D01*
X066903Y032295D01*
X066903Y032295D01*
X066903Y032295D01*
X066902Y032297D01*
X066901Y0323D01*
X066901Y0323D01*
X066901Y0323D01*
X066901Y032302D01*
X0669Y032305D01*
X0669Y032305D01*
X0669Y032305D01*
X0669Y032308D01*
X0669Y03231D01*
X0669Y03231D01*
X0669Y03231D01*
X06692Y04316D01*
Y04323D01*
X06692Y043233D01*
X06692Y043235D01*
X06692Y043235D01*
X06692Y043235D01*
X066921Y043238D01*
X066921Y04324D01*
X066921Y04324D01*
X066921Y04324D01*
X066922Y043243D01*
X066923Y043245D01*
X066923Y043245D01*
X066923Y043245D01*
X066924Y043248D01*
X066925Y04325D01*
X066925Y04325D01*
X066925Y04325D01*
X066927Y043252D01*
X066928Y043254D01*
X066928Y043254D01*
X066928Y043254D01*
X06693Y043256D01*
X066932Y043258D01*
X066932Y043258D01*
X066932Y043258D01*
X066934Y04326D01*
X066935Y043262D01*
X066936Y043262D01*
X066936Y043262D01*
X066938Y043263D01*
X06694Y043265D01*
X06694Y043265D01*
X06694Y043265D01*
X066942Y043266D01*
X066944Y043267D01*
X066945Y043267D01*
X066945Y043267D01*
X066947Y043268D01*
X066949Y043269D01*
X06695Y043269D01*
X06695Y043269D01*
X066952Y043269D01*
X066955Y04327D01*
X066955Y04327D01*
X066955Y04327D01*
X066957Y04327D01*
X06696Y04327D01*
X07269Y0433D01*
X07269Y0433D01*
X07269Y0433D01*
X072693Y043299D01*
D02*
G37*
D59*
X0788Y029441D02*
D03*
Y028259D02*
D03*
X05077Y04131D02*
D03*
Y040129D02*
D03*
Y037635D02*
D03*
Y038816D02*
D03*
X0788Y046359D02*
D03*
Y047541D02*
D03*
D60*
X0803Y0293D02*
D03*
Y0284D02*
D03*
X04325Y0222D02*
D03*
Y0213D02*
D03*
X0419Y02219D02*
D03*
Y02129D02*
D03*
X0803Y04719D02*
D03*
Y04629D02*
D03*
D61*
X05073Y026385D02*
D03*
Y02733D02*
D03*
X05008Y026385D02*
D03*
Y02733D02*
D03*
X04871Y026378D02*
D03*
Y027322D02*
D03*
X04943Y026385D02*
D03*
Y02733D02*
D03*
X0526Y04375D02*
D03*
Y042805D02*
D03*
Y03705D02*
D03*
Y037995D02*
D03*
X04309Y038272D02*
D03*
Y037328D02*
D03*
X05356Y020798D02*
D03*
Y021742D02*
D03*
D62*
X045585Y02847D02*
D03*
X045892Y026249D02*
D03*
X043706Y026253D02*
D03*
X044397Y028971D02*
D03*
X044387Y028421D02*
D03*
X04619Y03015D02*
D03*
X04556D02*
D03*
X04718Y0302D02*
D03*
X04781D02*
D03*
X04845Y042264D02*
D03*
X04275Y04121D02*
D03*
Y04071D02*
D03*
X04479Y03929D02*
D03*
X04416D02*
D03*
X04275Y03921D02*
D03*
X04416Y03846D02*
D03*
X04479D02*
D03*
X04416Y03788D02*
D03*
X03735Y0272D02*
D03*
X03672D02*
D03*
X036681Y02655D02*
D03*
X043745Y02384D02*
D03*
Y02334D02*
D03*
X045879Y02564D02*
D03*
X046811Y02606D02*
D03*
X047021Y02245D02*
D03*
X049441Y02432D02*
D03*
X050115Y02382D02*
D03*
Y02332D02*
D03*
X05157Y02245D02*
D03*
X052835Y02293D02*
D03*
Y02343D02*
D03*
X053505Y02399D02*
D03*
X05349Y02456D02*
D03*
X05286D02*
D03*
X05898Y02265D02*
D03*
X05835D02*
D03*
X062581Y01915D02*
D03*
X063781D02*
D03*
X03677Y0502D02*
D03*
X04853Y05385D02*
D03*
X0479D02*
D03*
X0491D02*
D03*
Y0544D02*
D03*
X04973D02*
D03*
X04975Y05495D02*
D03*
X052019Y05575D02*
D03*
X052731D02*
D03*
X052835Y02243D02*
D03*
X047854Y02847D02*
D03*
X06365Y05575D02*
D03*
X062481D02*
D03*
X04867Y04774D02*
D03*
X04804D02*
D03*
X05634Y02492D02*
D03*
X05571D02*
D03*
D63*
X046254Y02847D02*
D03*
X045223Y026249D02*
D03*
X044375Y026253D02*
D03*
X043728Y028971D02*
D03*
X043718Y028421D02*
D03*
X04912Y042264D02*
D03*
X04342Y04121D02*
D03*
Y04071D02*
D03*
Y03921D02*
D03*
X044829Y03788D02*
D03*
X03735Y02655D02*
D03*
X044414Y02384D02*
D03*
Y02334D02*
D03*
X04521Y02564D02*
D03*
X04748Y02606D02*
D03*
X04769Y02245D02*
D03*
X05011Y02432D02*
D03*
X049446Y02382D02*
D03*
Y02332D02*
D03*
X052239Y02245D02*
D03*
X053504Y02293D02*
D03*
Y02343D02*
D03*
X052836Y02399D02*
D03*
X06325Y01915D02*
D03*
X06445D02*
D03*
X037439Y0502D02*
D03*
X049769Y05385D02*
D03*
X049081Y05495D02*
D03*
X05135Y05575D02*
D03*
X0534D02*
D03*
X053504Y02243D02*
D03*
X047185Y02847D02*
D03*
X064319Y05575D02*
D03*
X06315D02*
D03*
D64*
X047154Y027861D02*
D03*
X047528Y026779D02*
D03*
X04678D02*
D03*
X045585Y027861D02*
D03*
X045959Y026779D02*
D03*
X045211D02*
D03*
X04409Y025441D02*
D03*
X044464Y024359D02*
D03*
X043716D02*
D03*
X044056Y027853D02*
D03*
X04443Y02677D02*
D03*
X043682D02*
D03*
X043654Y02953D02*
D03*
X044402D02*
D03*
X044028Y030613D02*
D03*
D65*
X04541Y0309D02*
D03*
X046276D02*
D03*
X04791D02*
D03*
X047044D02*
D03*
X050926Y04319D02*
D03*
X05006D02*
D03*
X053234Y04365D02*
D03*
Y04285D02*
D03*
Y03795D02*
D03*
Y03715D02*
D03*
X044084Y0371D02*
D03*
X04495D02*
D03*
X04777Y02315D02*
D03*
X046904D02*
D03*
X045196Y04805D02*
D03*
X04433D02*
D03*
D66*
X0566Y04467D02*
D03*
Y038988D02*
D03*
D67*
Y045969D02*
D03*
Y040287D02*
D03*
D68*
Y046816D02*
D03*
Y041133D02*
D03*
D69*
X056836Y0428D02*
D03*
Y037118D02*
D03*
D70*
X058254Y042249D02*
D03*
X057781D02*
D03*
X057309D02*
D03*
X056836D02*
D03*
X056364D02*
D03*
X055891D02*
D03*
X055419D02*
D03*
Y036567D02*
D03*
X055891D02*
D03*
X056364D02*
D03*
X056836D02*
D03*
X057309D02*
D03*
X057781D02*
D03*
X058254D02*
D03*
D71*
X054946Y042406D02*
D03*
Y036724D02*
D03*
D72*
X0541Y04152D02*
D03*
Y04215D02*
D03*
X0536Y041481D02*
D03*
Y035781D02*
D03*
X04472Y04071D02*
D03*
Y04008D02*
D03*
X04422Y040041D02*
D03*
X04124Y034159D02*
D03*
X04185Y03349D02*
D03*
Y03412D02*
D03*
X04123Y03541D02*
D03*
Y03478D02*
D03*
Y03684D02*
D03*
Y03621D02*
D03*
X04124Y037341D02*
D03*
Y03856D02*
D03*
Y03919D02*
D03*
X04049Y026401D02*
D03*
X03992Y02642D02*
D03*
Y02705D02*
D03*
X03934Y02643D02*
D03*
Y02706D02*
D03*
X03875Y02641D02*
D03*
X04423Y0221D02*
D03*
X04485Y02211D02*
D03*
X05202Y02179D02*
D03*
X05265D02*
D03*
X05672Y020451D02*
D03*
X06195Y02307D02*
D03*
Y0237D02*
D03*
X04546Y05422D02*
D03*
Y05485D02*
D03*
X0479Y0545D02*
D03*
X05045Y05415D02*
D03*
Y05352D02*
D03*
X05535Y055719D02*
D03*
X0548D02*
D03*
X0543Y05568D02*
D03*
Y05505D02*
D03*
X06145Y05345D02*
D03*
X06195D02*
D03*
Y05282D02*
D03*
X0795Y047269D02*
D03*
Y028481D02*
D03*
X04422Y041879D02*
D03*
X05171Y044801D02*
D03*
X0542Y03582D02*
D03*
Y03645D02*
D03*
X05506Y02229D02*
D03*
Y02292D02*
D03*
Y021789D02*
D03*
X05616Y02049D02*
D03*
Y02112D02*
D03*
X05561Y020451D02*
D03*
X05631Y02542D02*
D03*
X05576D02*
D03*
X05701Y02407D02*
D03*
X04472Y04121D02*
D03*
Y04184D02*
D03*
D73*
X0541Y04365D02*
D03*
Y04285D02*
D03*
Y03795D02*
D03*
Y03715D02*
D03*
D74*
X054Y04475D02*
D03*
Y045498D02*
D03*
D75*
X05173Y04374D02*
D03*
X0518Y04202D02*
D03*
X05104Y03663D02*
D03*
X05169Y03551D02*
D03*
D76*
X0536Y04215D02*
D03*
Y03645D02*
D03*
X04422Y04071D02*
D03*
X04124Y03349D02*
D03*
Y03801D02*
D03*
X04049Y02707D02*
D03*
X03875Y027079D02*
D03*
X04423Y021431D02*
D03*
X04485Y021441D02*
D03*
X05202Y021121D02*
D03*
X05265D02*
D03*
X05672Y02112D02*
D03*
X0479Y055169D02*
D03*
X05535Y05505D02*
D03*
X0548D02*
D03*
X06145Y052781D02*
D03*
X0795Y0466D02*
D03*
Y02915D02*
D03*
X04422Y04121D02*
D03*
X05171Y04547D02*
D03*
X05506Y02112D02*
D03*
X05561D02*
D03*
X05631Y026089D02*
D03*
X05576D02*
D03*
X05701Y023401D02*
D03*
D77*
X04677Y04261D02*
D03*
X045825D02*
D03*
X04677Y04201D02*
D03*
X045825D02*
D03*
X047782Y02538D02*
D03*
X046838D02*
D03*
X047792Y02465D02*
D03*
X046848D02*
D03*
X047802Y02395D02*
D03*
X046858D02*
D03*
X038012Y0514D02*
D03*
X037068D02*
D03*
X038002Y0523D02*
D03*
X037058D02*
D03*
X037992Y02554D02*
D03*
X037048D02*
D03*
X037055Y02485D02*
D03*
X038D02*
D03*
D78*
X04571Y031893D02*
D03*
X04751Y031893D02*
D03*
D79*
X04661Y034807D02*
D03*
D80*
X04431Y034281D02*
D03*
Y031919D02*
D03*
D81*
X048995Y021304D02*
D03*
X045925D02*
D03*
D82*
X050279Y02144D02*
D03*
X051361Y021814D02*
D03*
Y021066D02*
D03*
D83*
X042671Y05252D02*
D03*
X04401D02*
D03*
D84*
X046491Y05055D02*
D03*
X050309D02*
D03*
D85*
X047Y05517D02*
D03*
Y05395D02*
D03*
X06045Y05535D02*
D03*
Y05413D02*
D03*
X0555Y05417D02*
D03*
Y05295D02*
D03*
D86*
X052251Y05174D02*
D03*
D87*
X053749Y051331D02*
D03*
Y052149D02*
D03*
D88*
X05335Y05365D02*
D03*
Y05415D02*
D03*
Y05465D02*
D03*
Y05515D02*
D03*
X051215D02*
D03*
Y05465D02*
D03*
Y05415D02*
D03*
Y05365D02*
D03*
D89*
X052282Y0544D02*
D03*
D90*
X059329Y05255D02*
D03*
X056671D02*
D03*
D91*
X073454Y05617D02*
D03*
Y054359D02*
D03*
D92*
X06775Y05735D02*
D03*
X066569D02*
D03*
D93*
X05445Y054016D02*
D03*
Y05315D02*
D03*
D94*
X06395Y0402D02*
D03*
Y03535D02*
D03*
D95*
X07465Y03785D02*
D03*
D96*
X056394Y021913D02*
D03*
X056138D02*
D03*
X055882D02*
D03*
X055626D02*
D03*
Y024227D02*
D03*
X055882D02*
D03*
X056138D02*
D03*
X056394D02*
D03*
D97*
X06065Y027735D02*
D03*
Y029665D02*
D03*
D98*
X059154D02*
D03*
Y027735D02*
D03*
D99*
X04586Y04121D02*
D03*
Y04071D02*
D03*
Y04021D02*
D03*
Y03971D02*
D03*
Y03921D02*
D03*
Y03871D02*
D03*
Y03821D02*
D03*
Y03771D02*
D03*
X04958D02*
D03*
Y03821D02*
D03*
Y03871D02*
D03*
Y03921D02*
D03*
Y03971D02*
D03*
Y04021D02*
D03*
Y04071D02*
D03*
Y04121D02*
D03*
D100*
X06097Y04285D02*
D03*
X05975D02*
D03*
X06097Y0415D02*
D03*
X05975D02*
D03*
X06097Y04015D02*
D03*
X05975D02*
D03*
X06097Y0388D02*
D03*
X05975D02*
D03*
D101*
X05103Y04231D02*
D03*
X04968D02*
D03*
D102*
X052032Y024234D02*
D03*
Y023978D02*
D03*
Y023722D02*
D03*
Y023466D02*
D03*
X051048D02*
D03*
Y023722D02*
D03*
Y023978D02*
D03*
Y024234D02*
D03*
D103*
X07625Y0194D02*
D03*
X0531Y0268D02*
D03*
X0369Y0194D02*
D03*
Y05615D02*
D03*
X07625D02*
D03*
D104*
X079387Y03045D02*
D03*
X079387Y0452D02*
D03*
X0794Y04875D02*
D03*
X04194Y03235D02*
D03*
X04194Y03083D02*
D03*
Y02928D02*
D03*
Y02773D02*
D03*
Y02622D02*
D03*
X04197Y04361D02*
D03*
Y04499D02*
D03*
Y04641D02*
D03*
Y04781D02*
D03*
X0794Y02725D02*
D03*
X04015Y053D02*
D03*
D105*
X061399Y0319D02*
D03*
X05735D02*
D03*
D106*
X06007Y032512D02*
D03*
X060533Y032682D02*
D03*
X061058D02*
D03*
X061583D02*
D03*
X062108D02*
D03*
X062571Y032512D02*
D03*
X062857Y032118D02*
D03*
Y031632D02*
D03*
X062571Y031238D02*
D03*
X062108Y031068D02*
D03*
X061583D02*
D03*
X061058D02*
D03*
X06007Y031238D02*
D03*
X059784Y031632D02*
D03*
X058634Y032512D02*
D03*
X058171Y032682D02*
D03*
X057646D02*
D03*
X057121D02*
D03*
X056596D02*
D03*
X056133Y032512D02*
D03*
X055847Y032118D02*
D03*
Y031632D02*
D03*
X056133Y031238D02*
D03*
X056596Y031068D02*
D03*
X057121D02*
D03*
X057646D02*
D03*
X058171D02*
D03*
X058634Y031238D02*
D03*
X05892Y031632D02*
D03*
Y032118D02*
D03*
X059784D02*
D03*
X060533Y031068D02*
D03*
X071812Y02218D02*
D03*
X071982Y021717D02*
D03*
Y021192D02*
D03*
Y020667D02*
D03*
Y020142D02*
D03*
X071812Y019679D02*
D03*
X071418Y019393D02*
D03*
X070932D02*
D03*
X070538Y019679D02*
D03*
X070368Y020142D02*
D03*
Y020667D02*
D03*
Y021192D02*
D03*
X070538Y02218D02*
D03*
X070932Y022466D02*
D03*
X071812Y023616D02*
D03*
X071982Y024079D02*
D03*
Y024604D02*
D03*
Y025129D02*
D03*
Y025654D02*
D03*
X071812Y026117D02*
D03*
X071418Y026403D02*
D03*
X070932D02*
D03*
X070538Y026117D02*
D03*
X070368Y025654D02*
D03*
Y025129D02*
D03*
Y024604D02*
D03*
Y024079D02*
D03*
X070538Y023616D02*
D03*
X070932Y02333D02*
D03*
X071418D02*
D03*
Y022466D02*
D03*
X070368Y021717D02*
D03*
X071812Y052029D02*
D03*
X071982Y051566D02*
D03*
Y051041D02*
D03*
Y050516D02*
D03*
Y049991D02*
D03*
X071812Y049528D02*
D03*
X071418Y049243D02*
D03*
X070932D02*
D03*
X070538Y049528D02*
D03*
X070368Y049991D02*
D03*
Y050516D02*
D03*
Y051041D02*
D03*
X070538Y052029D02*
D03*
X070932Y052315D02*
D03*
X071812Y053465D02*
D03*
X071982Y053928D02*
D03*
Y054453D02*
D03*
Y054978D02*
D03*
Y055503D02*
D03*
X071812Y055966D02*
D03*
X071418Y056252D02*
D03*
X070932D02*
D03*
X070538Y055966D02*
D03*
X070368Y055503D02*
D03*
Y054978D02*
D03*
Y054453D02*
D03*
Y053928D02*
D03*
X070538Y053465D02*
D03*
X070932Y05318D02*
D03*
X071418D02*
D03*
Y052315D02*
D03*
X070368Y051566D02*
D03*
D107*
X060104Y02345D02*
D03*
X059352D02*
D03*
X06275Y022146D02*
D03*
Y022898D02*
D03*
X04524Y04698D02*
D03*
X04724D02*
D03*
X04924D02*
D03*
X06275Y051995D02*
D03*
Y052747D02*
D03*
D108*
X0586Y02345D02*
D03*
X04424Y04698D02*
D03*
D109*
X0427Y05389D02*
D03*
X0437D02*
D03*
X04998Y031631D02*
D03*
Y033009D02*
D03*
X058079Y05603D02*
D03*
X056701D02*
D03*
D110*
X0712Y020851D02*
D03*
Y0249D02*
D03*
Y0507D02*
D03*
Y054749D02*
D03*
D111*
X06275Y02365D02*
D03*
Y053499D02*
D03*
D112*
X04296Y05078D02*
D03*
Y04978D02*
D03*
D113*
X0383Y0318D02*
D03*
D114*
Y032891D02*
D03*
Y033981D02*
D03*
Y035072D02*
D03*
Y036162D02*
D03*
Y037253D02*
D03*
Y038343D02*
D03*
Y039434D02*
D03*
Y040524D02*
D03*
Y041615D02*
D03*
Y042706D02*
D03*
Y043796D02*
D03*
X037182Y032345D02*
D03*
Y033436D02*
D03*
Y034526D02*
D03*
Y035617D02*
D03*
Y036707D02*
D03*
Y037798D02*
D03*
Y038889D02*
D03*
Y039979D02*
D03*
Y04107D02*
D03*
Y043251D02*
D03*
Y044341D02*
D03*
Y04216D02*
D03*
X0383Y044887D02*
D03*
D115*
X037741Y047603D02*
D03*
Y029083D02*
D03*
X0531Y0399D02*
D03*
Y0344D02*
D03*
D116*
Y04905D02*
D03*
D117*
X0753Y029818D02*
D03*
X07005D02*
D03*
X0648D02*
D03*
X0753Y045781D02*
D03*
X07005D02*
D03*
X0648D02*
D03*
D118*
X0753Y02785D02*
D03*
X07005D02*
D03*
X0648D02*
D03*
X0753Y04775D02*
D03*
X07005D02*
D03*
X0648D02*
D03*
D119*
X08265Y0191D02*
D03*
Y05645D02*
D03*
D120*
X08145Y05205D02*
D03*
Y0418D02*
D03*
Y0339D02*
D03*
Y0235D02*
D03*
D121*
X04762Y03941D02*
D03*
M02*
