G04*
G04 #@! TF.GenerationSoftware,Altium Limited,Altium Designer,21.3.2 (30)*
G04*
G04 Layer_Color=16711935*
%FSTAX24Y24*%
%MOIN*%
G70*
G04*
G04 #@! TF.SameCoordinates,B67C6306-A56B-4E52-B5C8-3BB335875088*
G04*
G04*
G04 #@! TF.FilePolarity,Positive*
G04*
G01*
G75*
%ADD151C,0.0020*%
G36*
X073257Y055188D02*
X073651D01*
X073454Y055385D01*
X073257Y055188D01*
D02*
G37*
D151*
X043Y05389D02*
G03*
X043Y05389I-0003J0D01*
G01*
X044D02*
G03*
X044Y05389I-0003J0D01*
G01*
X050137Y030942D02*
G03*
X050137Y030942I-000157J0D01*
G01*
X050295Y031631D02*
G03*
X050295Y031631I-000315J0D01*
G01*
Y033009D02*
G03*
X050295Y033009I-000315J0D01*
G01*
X051653Y03232D02*
G03*
X051653Y03232I-001673J0D01*
G01*
X04326Y05078D02*
G03*
X04326Y05078I-0003J0D01*
G01*
Y04978D02*
G03*
X04326Y04978I-0003J0D01*
G01*
X058925Y05603D02*
G03*
X058925Y05603I-000157J0D01*
G01*
X058394Y05603D02*
G03*
X058394Y05603I-000315J0D01*
G01*
X057016D02*
G03*
X057016Y05603I-000315J0D01*
G01*
X059063Y05603D02*
G03*
X059063Y05603I-001673J0D01*
G01*
X078485Y02948D02*
X079115D01*
X078485Y02822D02*
Y02948D01*
Y02822D02*
X079115D01*
Y02948D01*
X078485Y029204D02*
X079115D01*
X078485Y028496D02*
X079115D01*
X042393Y054323D02*
X043007D01*
X042267Y054197D02*
X042393Y054323D01*
X042267Y053583D02*
Y054197D01*
Y053583D02*
X042393Y053457D01*
X043007D01*
X043393Y054323D02*
X044007D01*
X043393Y053457D02*
X044007D01*
X044133Y053583D01*
Y054197D01*
X044007Y054323D02*
X044133Y054197D01*
X043267D02*
X043393Y054323D01*
X043007D02*
X043133Y054197D01*
X043267Y053583D02*
X043393Y053457D01*
X043007D02*
X043133Y053583D01*
X043267D02*
Y054197D01*
X043133Y053583D02*
Y054197D01*
X049823Y030942D02*
X050137D01*
X04998Y030785D02*
Y0311D01*
X046083Y030624D02*
Y031176D01*
X045607Y030634D02*
Y031176D01*
X04541Y030624D02*
X046276D01*
Y031176D01*
X04541D02*
X046276D01*
X04541Y030624D02*
Y031176D01*
X047237Y030624D02*
Y031176D01*
X047713Y030624D02*
Y031166D01*
X047044Y031176D02*
X04791D01*
X047044Y030624D02*
Y031176D01*
Y030624D02*
X04791D01*
Y031176D01*
X050253Y042914D02*
Y043466D01*
X050729Y042914D02*
Y043456D01*
X05006Y043466D02*
X050926D01*
X05006Y042914D02*
Y043466D01*
Y042914D02*
X050926D01*
Y043466D01*
X050455Y041074D02*
X051085D01*
X050455Y040365D02*
X051085D01*
X050455Y04009D02*
Y041349D01*
X051085D01*
Y04009D02*
Y041349D01*
X050455Y04009D02*
X051085D01*
X053427Y043384D02*
Y043916D01*
X053903Y04339D02*
Y043916D01*
X053234D02*
X0541D01*
X053234Y043384D02*
Y043916D01*
Y043384D02*
X0541D01*
Y043916D01*
Y042584D02*
Y043116D01*
X053234Y042584D02*
X0541D01*
X053234D02*
Y043116D01*
X0541D01*
X053903Y04259D02*
Y043116D01*
X053427Y042584D02*
Y043116D01*
X050455Y037871D02*
X051085D01*
X050455Y03858D02*
X051085D01*
Y037596D02*
Y038855D01*
X050455Y037596D02*
X051085D01*
X050455D02*
Y038855D01*
X051085D01*
X0541Y037684D02*
Y038216D01*
X053234Y037684D02*
X0541D01*
X053234D02*
Y038216D01*
X0541D01*
X053903Y03769D02*
Y038216D01*
X053427Y037684D02*
Y038216D01*
X0541Y036884D02*
Y037416D01*
X053234Y036884D02*
X0541D01*
X053234D02*
Y037416D01*
X0541D01*
X053903Y03689D02*
Y037416D01*
X053427Y036884D02*
Y037416D01*
X04495Y036824D02*
Y037376D01*
X044084Y036824D02*
X04495D01*
X044084D02*
Y037376D01*
X04495D01*
X044753Y036824D02*
Y037366D01*
X044277Y036824D02*
Y037376D01*
X04935Y021009D02*
Y021599D01*
X048661Y021009D02*
X04935D01*
X048661Y021599D02*
X04935D01*
X04557Y021009D02*
X046259D01*
X04557Y021599D02*
X046259D01*
X04557Y021009D02*
Y021599D01*
X046259Y022032D02*
X048661D01*
Y020576D02*
Y022032D01*
X046259Y020576D02*
X048661D01*
X046259D02*
Y022032D01*
X047097Y022874D02*
Y023426D01*
X047573Y022874D02*
Y023416D01*
X046904Y023426D02*
X04777D01*
X046904Y022874D02*
Y023426D01*
Y022874D02*
X04777D01*
Y023426D01*
X04433Y047774D02*
Y048326D01*
X045196D01*
Y047774D02*
Y048326D01*
X04433Y047774D02*
X045196D01*
X044527Y047784D02*
Y048326D01*
X045003Y047774D02*
Y048326D01*
X04434Y048756D02*
Y051819D01*
X041938Y048756D02*
Y051819D01*
Y049485D02*
X042251D01*
Y050075D01*
X041938D02*
X042251D01*
X041938Y051075D02*
X042251D01*
Y050485D02*
Y051075D01*
X041938Y050485D02*
X042251D01*
X041938Y051819D02*
X04434D01*
X041938Y048756D02*
X04434D01*
X046508Y05519D02*
X047492D01*
X046508Y05393D02*
Y05519D01*
Y05393D02*
X047492D01*
Y05519D01*
X046508Y054915D02*
X047492D01*
X046508Y054206D02*
X047492D01*
X058768Y055873D02*
Y056187D01*
X05861Y05603D02*
X058925D01*
X059958Y055094D02*
X060942D01*
X059958Y054385D02*
X060942D01*
X059958Y05411D02*
Y05537D01*
X060942D01*
Y05411D02*
Y05537D01*
X059958Y05411D02*
X060942D01*
X073966Y056269D02*
Y056387D01*
X073946Y056249D02*
X073966Y056269D01*
X072942D02*
X072962Y056249D01*
X072942Y056269D02*
Y056387D01*
X073966D01*
X072942Y054143D02*
X073966D01*
Y054261D01*
X073946Y05428D02*
X073966Y054261D01*
X072962Y05428D02*
X073946D01*
X072942Y054261D02*
X072962Y05428D01*
X072942Y054143D02*
Y054261D01*
X073946Y05428D02*
Y056249D01*
X072962D02*
X073946D01*
X072962Y05428D02*
Y056249D01*
Y05428D02*
X073946D01*
X073454Y054991D02*
Y055188D01*
X073257Y055385D02*
X073651D01*
X073454D02*
Y055581D01*
X078485Y04632D02*
X079115D01*
Y04758D01*
X078485D02*
X079115D01*
X078485Y04632D02*
Y04758D01*
Y046596D02*
X079115D01*
X078485Y047304D02*
X079115D01*
X054174Y053343D02*
X054726D01*
X054184Y053819D02*
X054726D01*
X054174Y05315D02*
Y054016D01*
Y05315D02*
X054726D01*
Y054016D01*
X054174D02*
X054726D01*
X055008Y053915D02*
X055992D01*
X055008Y053206D02*
X055992D01*
X055008Y05293D02*
Y05419D01*
X055992D01*
Y05293D02*
Y05419D01*
X055008Y05293D02*
X055992D01*
X067789Y057035D02*
Y057665D01*
X06653D02*
X067789D01*
X06653Y057035D02*
Y057665D01*
Y057035D02*
X067789D01*
X067514D02*
Y057665D01*
X066805Y057035D02*
Y057665D01*
X079635Y04618D02*
X080265D01*
X079635D02*
Y047439D01*
X080265D01*
Y04618D02*
Y047439D01*
X079635Y046455D02*
X080265D01*
X079635Y047164D02*
X080265D01*
X062658Y047094D02*
X063642D01*
X062658Y046385D02*
X063642D01*
Y04611D02*
Y04737D01*
X062658D02*
X063642D01*
X062658Y04611D02*
Y04737D01*
Y04611D02*
X063642D01*
X062008Y028535D02*
X062992D01*
X062008Y029244D02*
X062992D01*
X062008Y02826D02*
Y02952D01*
Y02826D02*
X062992D01*
Y02952D01*
X062008D02*
X062992D01*
X066958Y02944D02*
X067942D01*
Y02818D02*
Y02944D01*
X066958Y02818D02*
X067942D01*
X066958D02*
Y02944D01*
Y029165D02*
X067942D01*
X066958Y028456D02*
X067942D01*
X072208Y02944D02*
X073192D01*
Y02818D02*
Y02944D01*
X072208Y02818D02*
X073192D01*
X072208D02*
Y02944D01*
Y029165D02*
X073192D01*
X072208Y028456D02*
X073192D01*
X079585Y02947D02*
X080215D01*
Y028211D02*
Y02947D01*
X079585Y028211D02*
X080215D01*
X079585D02*
Y02947D01*
Y029195D02*
X080215D01*
X079585Y028486D02*
X080215D01*
X078585D02*
X079215D01*
X078585Y029195D02*
X079215D01*
X078585Y028211D02*
Y02947D01*
Y028211D02*
X079215D01*
Y02947D01*
X078585D02*
X079215D01*
X072208Y04611D02*
X073192D01*
X072208D02*
Y04737D01*
X073192D01*
Y04611D02*
Y04737D01*
X072208Y046385D02*
X073192D01*
X072208Y047094D02*
X073192D01*
X066958Y04611D02*
X067942D01*
X066958D02*
Y04737D01*
X067942D01*
Y04611D02*
Y04737D01*
X066958Y046385D02*
X067942D01*
X066958Y047094D02*
X067942D01*
X078635Y047164D02*
X079265D01*
X078635Y046455D02*
X079265D01*
Y04618D02*
Y047439D01*
X078635D02*
X079265D01*
X078635Y04618D02*
Y047439D01*
Y04618D02*
X079265D01*
X06099Y042358D02*
Y043342D01*
X05973D02*
X06099D01*
X05973Y042358D02*
Y043342D01*
Y042358D02*
X06099D01*
X060715D02*
Y043342D01*
X060006Y042358D02*
Y043342D01*
X06099Y041008D02*
Y041992D01*
X05973D02*
X06099D01*
X05973Y041008D02*
Y041992D01*
Y041008D02*
X06099D01*
X060715D02*
Y041992D01*
X060006Y041008D02*
Y041992D01*
X06099Y039658D02*
Y040642D01*
X05973D02*
X06099D01*
X05973Y039658D02*
Y040642D01*
Y039658D02*
X06099D01*
X060715D02*
Y040642D01*
X060006Y039658D02*
Y040642D01*
X06099Y038308D02*
Y039292D01*
X05973D02*
X06099D01*
X05973Y038308D02*
Y039292D01*
Y038308D02*
X06099D01*
X060715D02*
Y039292D01*
X060006Y038308D02*
Y039292D01*
X042585Y054047D02*
X042794D01*
X042585Y053838D01*
Y053785D01*
X042637Y053733D01*
X042742D01*
X042794Y053785D01*
X043739Y054047D02*
X043634D01*
X043687D01*
Y053733D01*
X043739Y053785D01*
X042803Y049698D02*
Y049898D01*
X043002Y049698D01*
X043052D01*
X043102Y049748D01*
Y049848D01*
X043052Y049898D01*
X042803Y050843D02*
Y050743D01*
Y050793D01*
X043102D01*
X043052Y050843D01*
M02*
