M48
;Layer_Color=9474304
;FILE_FORMAT=2:4
INCH,LZ
;TYPE=PLATED
T1F00S00C0.0118
T2F00S00C0.0197
T3F00S00C0.0300
T4F00S00C0.0315
T5F00S00C0.0354
T6F00S00C0.0394
T8F00S00C0.0409
T9F00S00C0.0472
T10F00S00C0.0500
T12F00S00C0.1200
T13F00S00C0.1575
T14F00S00C0.1600
T15F00S00C0.1969
;TYPE=NON_PLATED
T16F00S00C0.0394
%
T01
X07825Y022
X07875
X07925
X07975
X08Y0215
X0805
X0795Y0225
X079
X0785
X07875Y023
X07925
X079Y0235
X0785
X07875Y024
X07925
X0795Y0245
X079
X0785
X07875Y025
X07925
X07975
X08Y0255
X0805
X08075Y026
X08125
X08175
X08225
X08275
X08325
X083Y0265
X0825
X082
X0815
X081
X0805
X08
X0795
X079
X0785
X07875Y027
X07825
X0785Y0275
X08
X0805
X081
X0815
X082
X08225Y027
X08275
X08175
X08125
X08075
X08025
Y026
X07975
X07925
X07875
X07825
X0785Y0255
X079
X0795
X07825Y025
Y024
Y023
X0825Y0255
X083
X08325Y025
X0825Y0305
X082
X0815
X081
X0805
X08075Y031
X08125
X08175
X08225
X08275
X08175Y03
X08125
X08075
X08025
Y031
X07975
X07875
X07825
X0785Y0305
X07875Y03
X07825
X081Y0295
X0815
X078
X0775
X077
X0765
X076
X07625Y03
X07675
X07725
X07775
X078Y0305
X0775
X077
X0765
X076
X0755
X075
X0745
X074
X0735
X073
X0725
X072
X0715
X071
X0705
X07
X0695
X069
X0685
X068
X0675
X067
X0665
X066
X0655
X065
X06525Y031
X06575
X06625
X06675
X06725
X06775
X06825
X06875
X06925
X06975
X07025
X07075
X07125
X07175
X07225
X07275
X07325
X07375
X07425
X07475
X07525
X07575
X07625
X07675
X07725
X07775
X078Y0275
X07775Y027
X07725
X0775Y0265
X078
X07775Y026
X07725
X07675
X07625
X07575
X07525
X07475
X07425
X07375
X07325
X07275
X073Y0265
X0735
X074
X0745
X075
X0755
X076
X0765
X077
Y0255
X0775
X078
X07775Y025
X07725
X07675
X07625
X07575
X07525
X07475
X07425
X07375
X07325
X07275
X073Y0255
X0735
X074
X0745
X075
X0755
X076
X0765
Y0245
X077
X0775
X078
X07775Y024
X07725
X07675
X07625
X07575
X07525
X07475
X07425
X07375
X07325
X07275
X073Y0245
X0735
X074
X0745
X075
X0755
X076
Y0235
X0765
X077
X0775
X078
X07775Y023
X07725
X07675
X07625
X07575
X07525
X07475
X07425
X07375
X07325
X07275
X073Y0235
X0735
X074
X0745
X075
X0755
Y0225
X076
X0765
X077
X0775
X078
X07775Y022
X07725
X07675
X07625
X07575
X07525
X07475
X07425
X07375
X074Y0225
X0745
X075
X0735
X0725Y0235
Y0245
Y0255
Y0265
Y0275
X073
X0735
X074
X0745
X07425Y028
X07475
X07575
X07375
X074Y0295
X0745
X07475Y03
X07425
X07375
X07325
X07275
X07225
X07175
X07125
X07075
X071Y0295
X0715
X0705
X0695
X069
X0685
X06875Y03
X06925
X06825
X06775
X06725
X06675
X06625
X06575
X066Y0295
X0665
X0655
X06525Y028
X06575
X06625
X0665Y0275
X067
X0675
X068
X0685
X069
X0695
X06925Y028
X06875
X06825
Y027
X06875
X06925
X069Y0265
X0685
X068
X0675
X067
X0665
X066
X0655
X065
X0645
X064
X0635
X063
X0625
X06275Y027
X06325
X06375
X06425
X06475
X06525
X06575
X06625
X06675
X06725
X06775
Y026
X06825
X06875
X06925
X069Y0255
X0685
X068
X0675
X067
X0665
X066
X0655
X065
X0645
X064
X0635
X063
X0625
X06275Y026
X06325
X06375
X06425
X06475
X06525
X06575
X06625
X06675
X06725
Y025
X06775
X06825
X06875
X06925
X069Y0245
X0685
X068
X0675
X067
X0665
X066
X0655
X065
X0645
X064
X0635
X06375Y025
X06425
X06475
X06525
X06575
X06625
X06675
Y024
X06725
X06775
X06825
X06875
X06925
X069Y0235
X0685
X068
X0675
X067
X0665
X066
X0655
X065
X0645
X06475Y024
X06525
X06575
X06625
Y023
X06675
X06725
X06775
X06825
X06875
X06925
X0695Y0225
X07
X06975Y022
X06925
X06875
X06825
X06775
X06725
X06675
X06625
X06575
X06525
X06475
X06425
X0645Y0225
X065
X0655
X066
X0665
X067
X0675
X068
X0685
X069
Y0215
X0685
X068
X0675
X067
X0665
X066
X0655
X065
X0645
X06475Y021
X06525
X06575
X06625
X06675
X06725
X06775
X06825
X06875
X06925
X06975
X0695Y0215
Y0205
X069
X0685
X068
X0675
X067
X0665
X066
X0655
X065
X0645
X06475Y02
X06525
X06575
X06625
X06675
X06725
X06775
X06825
X06875
X06925
X06975
X0695Y0195
X069
X0685
X068
X0675
X067
X0665
X066
X0655
X06425Y021
X06275
X0625Y0205
X06275Y02
X06425Y023
X06475
X06525
X06575
X06425Y024
X06325Y025
X0635Y0275
X064
X06425Y028
X06375
X06325
X063Y0275
X0625
X0655
X066
X0705
X071
X0715
X072
X07175Y028
X07125
X07075
X0735Y0295
X062Y0275
X06225Y027
X06175
X06125
X06075
X06025
X0605Y0265
X06
X06025Y026
X06075
X06125
X06175
X06225
X062Y0265
X0615
X061
Y0255
X0615
X062
X0605
X061Y0235
X06125Y023
X0615Y0225
X062
X06175Y022
X06125
X0615Y0215
X06125Y021
X0615Y0205
X06225Y02
X06025
X05975
X05925
X05875
X05825
X05775
X05725
X05676Y02007
X05561Y02008
X05475Y02
X05425
X05351Y01991
X05275Y02
X05225
X05175
X05125
X05075
X051Y0205
X0515
X052
X0525
X053
X053193Y021748
X05171Y021802
X051Y0215
X05075Y022
Y021
X05025
X0505Y0205
X0495
X04925Y02
X04875
X04825
X04775
X04725
X04775Y021
X04825
X048Y0215
X04825Y022
X04725
X049446Y022914
X048644Y023724
X049155Y024345
X049577Y025303
X050059Y025296
X051564Y02474
X05231Y02463
X052568Y023383
X051882Y022883
X051048Y023233
X053922Y02343
X05394Y02293
X05459Y02356
X054628Y023832
X055Y0235
X0555
X056
X0565
X05675Y023
X05625
X05557Y02303
X056Y0225
X057
X0575
X05775Y022
X05825
X05875
X05925
X05975
X06025
X06Y0225
X0595
Y0215
X06
X06025Y021
X05975
X05925
X05875
X05825
X05775
X05725
X0575Y0215
X058
X0585
X059
Y0205
X0595
X06
X0585
X058
X0575
X05725Y022
X05761Y02348
X05471Y02212
Y021895
X055Y0205
X05396Y0242
X05397Y02478
X05375Y031
X05325
X05275
X05225
X05175
X05125
X05069Y02932
X0495Y0295
X049
X0485
X048
X0475
X047
X04775Y028
X047804Y02633
X047998Y02598
X04836Y02572
X049558Y028118
X05004Y02824
X04988Y01983
X04675Y02
X04625
X04575
X04525
X04475
X04425
X04375
X04325
X04275
X0425Y0215
X04366Y0213
X04575Y022
X04625
X04675
X0465Y0225
X046
X0455
X04575Y023
X04625
X04619Y023671
X046Y0245
X04509Y02471
X045487Y025172
X04375Y025
X04325
X04275
X04225
X04175
X042Y0245
X0425
X043
X04325Y024
X04275
X04225
X04175
X042Y0235
X0425
X043
X04225Y023
X04175
X0415Y0235
Y0245
X041Y0255
X04125Y026
X041Y0265
Y0275
X04125Y028
X0415Y0285
X042
X0425
X04225Y03
X04175
X041Y0305
X04125Y031
X04075
X04275
X04425Y03
X044737Y028971
X046Y0295
X0465
X04675Y03
X046Y0275
X04611Y02693
X04447Y026563
X0435Y0275
X04225Y027
X04175
X04275Y026
X04043Y02582
X03963Y02609
X03925Y026
X03879Y02593
X038Y0265
X03825Y027
X03872Y02802
X03911Y02853
X04032Y02802
X04072Y02867
X04125Y029
X03875Y03
X0385Y0305
X038
X0375
X037
X0365
X03675Y031
X03725
X03775
X03825
X03675Y03
X0365Y0295
Y0285
X03675Y028
Y026
X03725
X03648Y02554
X03775Y024
X03825
X03875
X0385Y0245
Y0235
X038
X03875Y023
X0405Y0235
Y0225
X04525Y023
X044796Y02384
X045Y0325
X0445
X044
X0435
X04375Y033
X04425
X04475
X04525
X04575
X04625
X04675
X0465Y0325
X04675Y032
X04625
X0465Y0315
X0455Y0335
X045
X0445
X044
X0435
X04251Y033598
X04225Y033
X041121Y033012
X041Y0325
X04125Y032
X04075
X041Y0315
X0415
X0425
Y0345
X04225Y035
X04175
X042Y0355
X0425
X04225Y036
X04175
X04123Y03586
X04054Y035188
X040144Y033794
X039858Y032948
X0395Y0325
X03975Y032
X0375Y0315
X037
X0365
X03675Y032
X0365Y0325
X03675Y033
X0365Y0335
X03675Y034
X0365Y0345
X03675Y035
X0365Y0355
X03675Y036
X0365Y0365
Y0375
Y0385
Y0395
X0375
X03775Y04
X0375Y0405
X037
X0365
Y0415
Y0425
Y0435
X03675Y044
X0365Y0445
X03675Y045
X03725
X03775
X038Y0455
X0385
X039
X03875Y046
X03825
X03775
X03725
X03675
X037Y0465
X0365
Y0455
X037
X0375
X0385Y0465
X039
X041
X04125Y046
X0415Y0455
X041
X04125Y045
X0415Y0445
X041
X04125Y044
X041Y0435
X04101Y04267
X04098Y04146
X04096Y04097
X0415Y0415
X04192Y0403
X04225Y04
X04275
X04325
X04375
X0439Y03955
X04378Y03846
X0425Y0385
X04202Y039557
X04124Y03947
X040014Y038436
X03947Y037252
X03961Y036508
X04041Y03693
X04175Y037
X042Y0365
X044
X0445
X04425Y036
X04375
X0435Y0355
X04375Y035
X04475
X04525
X0466Y03685
X04382Y04071
Y04121
X04375Y042
X04422Y04229
X045287Y0425
X045Y0445
X0445
X044
X0435
X04375Y045
X04425
X04475
X04525
X0455Y0455
X046
X046452Y045272
X04678Y04464
X04575Y046
X04525
X04475
X04425
X04375
X04325
X0435Y0465
X043
X0435Y0455
X044
X0445
X045
Y0465
X0455
X04425Y044
X04375
X0425Y0445
X039
X03912Y04211
X0396Y041965
X04001Y04228
X03775Y042
Y043
Y041
X03875Y04
Y039
X03775Y037
X039Y0355
X038Y0345
X048
X0485
X049
X0495
X05
X0505
X05025Y035
X04975
X04925
X04875
X04825
X0485Y0355
X049
X0495
X05
X05125Y036
X05175
X05225
X05275
X053Y0365
X052
X05175Y037
X05025
X04975
X04886Y03641
X048Y0355
X04825Y034
X04875
X04925
X04975
X05025
X0505Y0335
X0495
X049
X0485
X048
X04825Y033
X04875
X04925
X04775
X04725
X047Y0325
Y0315
X0515
X052
X0525
X053
X0535
X054
X05425Y032
X05375
X05325
X05275
X05225
X05175
X05125
X0515Y0325
X052
X0525
X053
X0535
X054
X05425Y033
X05375
X05325
X05275
X05225
X05175
X052Y0335
X05175Y034
Y035
X05425
X05475
X05535Y0349
X0556
X05585
X0561
X05635
X0566
X05685
X0571
X05735
X0576
X05785
X0581
X05835
Y03515
X0581
X05785
X0576
X05735
X0571
X05685
X0566
X05635
X0561
X05585
X0556
X05535
Y0354
Y03565
X0556
Y0354
X05585
X0561
X05635
Y03565
X0566
Y0354
X05685
Y03565
X0571
Y0359
X05685
X0566
X05635
X0561
Y03565
X05585
Y0359
X0556
X05535
X055Y0355
Y0345
X0555
X056
X0565
X057
X0575
X058
X0585
X059
X0595
X06
X06025Y035
X06075
X061Y0355
X0605
X06
X0595
X0589Y0354
Y03515
Y0349
X05865
Y03515
Y0354
Y03565
X0589
Y0359
X05865
Y03615
Y0364
Y03665
Y0369
X0589
Y03665
Y0364
Y03615
X05925Y036
X05975
X06025
X06075
X06125
X06175
X0615Y0365
X061
X0605
X06
X0595
X05975Y037
X06025
X06075
X06125
X06175
X05925
X0589Y03715
X05865
X0584Y03825
X05815
X0579
X05765
Y0385
Y03875
Y039
Y03925
Y0395
Y03975
Y04
Y04025
Y0405
Y04075
Y041
Y04125
Y0415
X0574
X05715
X0569
X05665
X0564
X05615
X0559
X05565
X0554
Y04125
X05565
Y041
X0554
X05515
Y04125
X0549
Y041
Y04075
Y0405
X05515
Y04075
X0554
X05565
Y0405
X0554
Y04025
X05565
Y04
X0554
X05515
Y04025
X0549
Y04
Y03975
Y0395
X05515
Y03975
X0554
X05565
Y0395
X0554
Y03925
X05565
Y039
X0554
X05515
Y03925
X0549
Y039
Y03875
Y0385
X05515
Y03875
X0554
X05565
Y0385
X0554
Y03825
X05565
X0559
Y0385
Y03875
Y039
X05615
X0564
X05665
Y03925
Y0395
Y03975
Y04
Y04025
Y0405
Y04075
Y041
Y04125
X0564
Y041
X05615
Y04125
X0559
Y041
Y04075
Y0405
X05615
Y04075
X0564
Y0405
Y04025
Y04
X05615
Y04025
X0559
Y04
Y03975
Y0395
X05615
Y03975
X0564
Y0395
Y03925
X05615
X0559
X05615Y03875
Y0385
X0564
X05665
Y03875
X0564
Y03825
X05665
X0569
Y0385
Y03875
Y039
X05715
X0574
Y03925
Y0395
X05715
X0569
Y03975
Y04
X05715
X0574
Y04025
Y0405
X05715
X0569
Y04075
Y041
X05715
X0574
Y04125
X05715
X0569
X05715Y04075
X0574
X0579
Y0405
X05815
Y04075
Y041
Y04125
X0579
Y0415
X05815
X0584
Y04125
Y041
Y04075
Y0405
Y04025
X05815
Y04
Y03975
X0579
Y04
Y04025
X05715
X0569
X05715Y03975
X0574
X05715Y03925
X0569
X05715Y03875
Y0385
X0574
Y03875
Y03825
X05715
X05615
X05515
X0549
X0579Y0385
X05815
Y03875
Y039
X0579
Y03925
X05815
Y0395
X0579
X0584
Y03975
Y04
Y03925
Y039
Y03875
Y0385
X0579Y03875
Y041
X05785Y0438
Y04405
Y0443
X0581
X05835
Y04405
Y0438
X0581
Y04405
Y04455
X05835
Y0448
Y04505
Y0453
Y04555
Y0458
X0581
X05785
Y04555
X0581
Y0453
Y04505
X05785
Y0448
X0581
X05785Y04455
X0576
Y0443
X05735
Y04405
Y0438
X0571
X05685
Y04405
X0571
Y0443
X05685
X0566
X05635
Y04405
Y0438
X0561
X05585
Y04405
X0561
Y0443
X05585
X0556
X05535
Y04405
Y0438
X0551
X05485
Y04405
X0551
Y0443
X05485
Y04455
Y0448
X0551
Y04455
X05535
Y0448
X0556
X05585
Y04455
X0561
Y0448
X05635
Y04455
X0566
X05685
Y0448
X0571
Y04455
X05735
Y0448
X0576
Y04505
X05735
Y0453
X0571
Y04505
X05685
Y0453
X0566
X05635
Y04505
X0561
Y0453
X05585
Y04505
X0556
X05535
Y0453
X0551
Y04505
X05485
Y0453
Y04555
Y0458
X0551
Y04555
X05535
Y0458
X0556
X05585
Y04555
X0561
Y0458
X05635
Y04555
X0566
X05685
Y0458
X0571
Y04555
X05735
Y0458
X0576
Y04555
Y0453
X05785
Y04605
Y0463
Y04655
X0581
X05835
Y0463
Y04605
X0581
Y0463
Y0468
X05835
X05785
X0576
X05735
X0571
X05685
Y04655
Y0463
X0571
X05735
Y04605
X0571
X05685
X0566
Y0458
X05635Y04605
Y0463
X0561
Y04605
X05585
Y0463
X0556
X05535
Y04605
X0551
Y0463
X05485
Y04605
Y04655
Y0468
X0551
Y04655
X05535
Y0468
X0556
X05585
Y04655
X0561
Y0468
X05635
Y04655
X0566
Y0463
Y0468
X0571Y04655
X05735
X0576
Y0463
Y04605
X059Y046
X0595
X06
X0605
X061
X06125Y0465
X06075
X06025
X05975
X05925
Y0455
X05975
X06025
X06Y045
X0595
X059
X05925Y0445
X05975
X0595Y044
X059
X05875Y0445
Y0455
X0576Y04405
Y0438
X0566
Y04405
Y0448
Y04505
X0556Y0453
Y04555
Y04605
Y04655
Y04455
Y04405
Y0438
X05173Y04316
X049513Y043197
X049Y0435
X04908Y04547
X04885Y04591
X048Y0465
X05
X0507Y04675
X05095
X051013Y039597
X0545Y0345
X05475Y034
X05525
X05575
X05625
X05675
X05725
X05775
X05825
X05875
X05925
X05975
Y035
X05925
X05835Y0354
X0581
X05785
X0576
X05735
X0571
X05735Y03565
X0576
X05785
X0581
X05835
Y0359
X0581
X05785
X0576
X05735
X0545Y0335
X06125Y044
X06175
X06225
X062Y0445
X0615
X061
X06175Y045
X06225
X062Y0455
X0625
X063
X0635
X064
X06425Y046
Y045
X06475
X06525
X06575
X06625
X06675
X06725
X06775
X06825
X06875
X06925
X06975
X07025
X07075
X07125
X07175
X07225
X07275
X07325
X07375
X07425
X07475
X07525
X07575
X07625
X07675
X07725
X07775
X078Y0455
X0775
X077
X0765
X076
X07625Y046
X07675
X07725
X07775
X078Y0445
X0775
X077
X0765
X076
X0755
X075
X0745
X074
X0735
X073
X0725
X072
X0715
X071
X0705
X07
X0695
X069
X0685
X068
X0675
X067
X0665
X066
X0655
X065
X0645
X064
X0635
X063
X0625
X06275Y045
X06325
X06375
Y044
X06425
X06475
X06525
X06575
X06625
X06675
X06725
X06775
X06825
X06875
X06925
X06975
X07025
X07075
X07125
X07175
X07225
X07275
X07325
X07375
X07425
X07475
X07525
X07575
X07625
X07675
X07725
X07775
X078Y0435
X0775
X077
X0765
X076
X0755
X075
X0745
X074
X0735
X073
X0725
X072
X0715
X071
X0705
X07
X0695
X069
X0685
X068
X0675
X067
X0665
X066
X0655
X06625Y043
X06675
X06725
X06775
X06825
X06875
X06925
X06975
X07025
X07075
X07125
X07175
X07225
X07275
X07325
X07375
X07425
X07475
X07525
X07575
X07625
X07675
X07725
X07775
X078Y0425
X0775
X077
X0765
X076
X0755
X075
X0745
X074
X0735
X073
X0725
X072
X0715
X071
X0705
X07
X0695
X069
X0685
X068
X0675
X067
X0665
X06675Y042
X06725
X06775
X06825
X06875
X06925
X06975
X07025
X07075
X07125
X07175
X07225
X07275
X07325
X07375
X07425
X07475
X07525
X07575
X07625
X07675
X07725
X07775
X078Y0415
X0775
X077
X0765
X076
X0755
X075
X0745
X074
X0735
X073
X0725
X072
X0715
X071
X0705
X07
X0695
X069
X0685
X068
X0675
X067
X0665
X06675Y041
X06725
X06775
X06825
X06875
X06925
X06975
X07025
X07075
X07125
X07175
X07225
X07275
X07325
X07375
X07425
X07475
X07525
X07575
X07625
X07675
X07725
X07775
X078Y0405
X0775
X077
X0765
X076
X0755
X075
X0745
X074
X0735
X073
X0725
X072
X0715
X071
X0705
X07
X0695
X069
X0685
X068
X0675
X067
X0665
X06675Y04
X06725
X06775
X06825
X06875
X06925
X06975
X07025
X07075
X07125
X07175
X07225
X07275
X07325
X07375
X07425
X07475
X07525
X07575
X07625
X07675
X07725
X07775
X078Y0395
X0775
X077
X07725Y039
X07775
X078Y0385
X0775
X077
X07725Y038
X07775
X078Y0375
X0775
X077
X07725Y037
X07775
X078Y0365
X0775
X077
X07725Y036
X07775
X078Y0355
X0775
X077
X0765
X076
X0755
X075
X0745
X074
X0735
X073
X0725
X072
X0715
X071
X0705
X07
X0695
X069
X0685
X068
X0675
X067
X0665
X06675Y036
X06725
X06775
X06825
X06875
X06925
X06975
X07025
X07075
X07125
X07175
X07225
X07275
X0725Y0365
X072
X0715
X071
X0705
X07
X0695
X069
X0685
X068
X0675
X067
X0665
X06675Y037
X06725
X06775
X06825
X06875
X06925
X06975
X07025
X07075
X07125
X07175
X07225
X0725Y0375
X072
X0715
X071
X0705
X07
X0695
X069
X0685
X068
X0675
X067
X0665
X06675Y038
X06725
X06775
X06825
X06875
X06925
X06975
X07025
X07075
X07125
X07175
X07225
X0725Y0385
X072
X0715
X071
X0705
X07
X0695
X069
X0685
X068
X0675
X067
X0665
X06675Y039
X06725
X06775
X06825
X06875
X06925
X06975
X07025
X07075
X07125
X07175
X07225
X0725Y0395
X072
X0715
X071
X0705
X07
X0695
X069
X0685
X068
X0675
X067
X0665
X06495Y0396
Y03985
Y0401
Y04035
Y0406
Y04085
Y0411
X0647
X06445
Y04085
Y0406
X0647
Y04035
Y0401
X06445
Y03985
X0642
Y0401
Y04035
Y0406
Y04085
Y0411
Y04135
Y0416
X06445
Y04135
X0647
X06495
Y0416
Y04185
Y0421
X0647
X06445
Y04235
Y0426
X0642
Y04235
Y0421
Y04185
X06445
X0647
Y0416
Y04235
Y0426
X06495Y04235
X06395
X0637
X06345
Y0426
Y04285
X0637
X06395
Y0426
X0637
X0632
X06295
Y04235
X0627
Y0426
Y04285
X06295
X0632
Y04235
Y0421
Y04185
Y0416
X06295
X0627
Y04135
Y0411
X06295
X0632
Y04085
Y0406
X06295
X0627
Y04035
Y0401
X06295
X0632
Y03985
Y0396
X06295
X0627
Y03935
Y0391
X06295
X0632
Y03885
Y0386
X06295
X0627
Y03835
X06295
X0632
X06345
X0637
X06395
X0642
Y0386
Y03885
X06445
X0647
Y0386
Y03835
X06495
Y0386
Y03885
Y0391
Y03935
X0647
Y0396
Y03985
X06445Y0396
X0642
Y03935
X06445
Y0391
X0647
X0642
X06395
Y03885
Y0386
X0637
X06345
Y03885
X0637
Y0391
X06345
Y03935
X0632
X06295
Y03885
X0627
Y03985
X06295
X06345
Y0396
X0637
X06395
Y03935
X0637
Y03985
X06395
Y0401
X0637
X06345
Y04035
X0632
X06295
Y04085
X0627
X06345
Y0406
X0637
X06395
Y04035
X0637
Y04085
X06395
Y0411
X0637
X06345
Y04135
X0632
X06295
Y04185
Y0421
X0627
Y04185
X06345
Y0416
X0637
X06395
Y04135
X0637
Y04185
X06395
Y0421
X0637
X06345
X06325Y044
X06275
X0655Y0455
X066
X0665
X067
X0675
X068
X0685
X069
X0695
X06925Y046
X06875
X06825
X06625
X06575
X07075
X07125
X07175
X072Y0455
X0725
X073
X0735
X074
X0745
X07475Y046
X07425
X07375
X0715Y0455
X071
X0705
X0647Y04085
X06445Y04035
Y0386
Y03835
X06675Y035
X06725
X06775
X06825
X06875
X06925
X06975
X07025
X07075
X07125
X07175
X07225
X07275
X07325
X07375
X07425
X07475
X07525
X07575
X07625
X07675
X07725
X07775
X078Y0345
X0775
X077
X0765
X076
X0755
X075
X0745
X074
X0735
X073
X0725
X072
X0715
X071
X0705
X07
X0695
X069
X0685
X068
X0675
X067
X0665
X06675Y034
X06725
X06775
X06825
X06875
X06925
X06975
X07025
X07075
X07125
X07175
X07225
X07275
X07325
X07375
X07425
X07475
X07525
X07575
X07625
X07675
X07725
X07775
X078Y0335
X0775
X077
X0765
X076
X0755
X075
X0745
X074
X0735
X073
X0725
X072
X0715
X071
X0705
X07
X0695
X069
X0685
X068
X0675
X067
X0665
X06675Y033
X06725
X06775
X06825
X06875
X06925
X06975
X07025
X07075
X07125
X07175
X07225
X07275
X07325
X07375
X07425
X07475
X07525
X07575
X07625
X07675
X07725
X07775
X078Y0325
X0775
X077
X0765
X076
X0755
X075
X0745
X074
X0735
X073
X0725
X072
X0715
X071
X0705
X07
X0695
X069
X0685
X068
X0675
X067
X0665
X06675Y032
X06725
X06775
X06825
X06875
X06925
X06975
X07025
X07075
X07125
X07175
X07225
X07275
X07325
X07375
X07425
X07475
X07525
X07575
X07625
X07675
X07725
X07775
X078Y0315
X0775
X077
X0765
X076
X0755
X075
X0745
X074
X0735
X073
X0725
X072
X0715
X071
X0705
X07
X0695
X069
X0685
X068
X0675
X067
X0665
X066
X0655
X06625Y032
X07675Y036
Y037
Y038
Y039
X07825
X07875
X07925
X07975
X08025
X08075
X08125
X08175
X08225
X08275
X08325
X083Y0395
X0825
X082
X0815
X081
X0805
X08
X0795
X079
X0785
X07875Y04
X07925
X07975
X0795Y0405
X079
X0785
X07875Y041
X07925
X079Y0415
X0785
X07875Y042
X07925
X079Y0425
X0785
X07875Y043
X07925
X0795Y0435
X08
X08025Y044
X08075
X08125
X08175
X08225
X08275
X08325
X083Y0445
X0825
X082
X0815
X081
X0805
X08
X0795
X079
X0785
X07875Y045
X07825
X0785Y0455
X07825Y046
Y044
X07875
X07925
X07975
X079Y0435
X0785
X07825Y043
Y042
Y041
Y04
X0785Y0385
X079
X0795
X08
X0805
X081
X0815
X082
X0825
X083
X08325Y038
X08275
X08225
X08175
X08125
X08075
X08025
X07975
X07925
X07875
X07825
X0785Y0375
X079
X0795
X08
X0805
X081
X0815
X082
X0825
X083
X08325Y037
X08275
X08225
X08175
X08125
X08075
X08025
X07975
X07925
X07875
X07825
X0785Y0365
X079
X0795
X08
X0805
X081
X0815
X082
X0825
X083
X08325Y036
X08275
X08225
X083Y0355
X08075Y036
X08025
X07975
X07925
X07875
X07825
X0785Y0355
X079
X0795
X07925Y035
X07875
X07825
X0785Y0345
X079
X07875Y034
X07825
X0785Y0335
X079
X07925Y033
X07875
X07825
X0785Y0325
X079
X0795
X07975Y032
X08025
X0805Y0315
X081
X0815
X082
X0825
X083
X08325Y032
X08275
X08Y0315
X0795
X079
X0785
X07875Y032
X07925
X07825
X08275Y04
X08325
X083Y0435
X08325Y045
X08275
X08225
X08175
X08125
X08075
X08025
X0805Y0455
X081
X0815
X082
X0825
X08225Y046
X08175
X08125
X08Y0455
X0805Y0485
X081
X0815
X082
X0825
X083
X08325Y049
X08275
X08225
X08175
X08125
X08075
X08025
X0805Y0495
X081
X0815
X082
X0825
X083
X08325Y05
X08275
X08025
X07975
X07925
X07875
X07825
X0785Y0505
X079
X0795
X07925Y051
X07875
X07825
X0785Y0515
X079
X07875Y052
X07825
X0785Y0525
X079
X07925Y053
X07875
X07825
X0785Y0535
X079
X0795
Y0495
X08
X079
X0785
X07825Y049
X0785Y0485
X078
X0775
X077
X07725Y049
X07775
X078Y0495
X0775
X077
X0765
X076
X0755
X075
X0745
X074
X0735
X073
X07325Y05
X07375
X07425
X07475
X07525
X07575
X07625
X07675
X07725
X07775
X078Y0505
X0775
X077
X0765
X076
X0755
X075
X0745
X074
X0735
X073
X07325Y051
X07375
X07425
X07475
X07525
X07575
X07625
X07675
X07725
X07775
X078Y0515
X0775
X077
X0765
X076
X0755
X075
X0745
X074
X0735
X073
X07325Y052
X07375
X07425
X07475
X07525
X07575
X07625
X07675
X07725
X07775
X078Y0525
X0775
X077
X0765
X076
X0755
X075
X0745
X074
X0735
X073
X0725
X07275Y052
Y051
Y05
Y049
X07325
X07375
X07425
X07475
X07525
X07575
X07625
X07675
X07575Y0475
X07475
X07425
X07375
X074Y048
X0745
X0735
X073
X0725
X072
X0715
X071
X0705
X07075Y0475
X07125
X07175
X06925
X06875
X06825
X0685Y048
X069
X0695
X06975Y0485
X06925
X06875
X06825
X06775
X06725
X06675
X06625
X06575
X06525
X06475
X06425
X06375
X06325
X06275
X063Y049
X0635
X064
X0645
X065
X0655
X066
X0665
X067
X0675
X068
X0685
X069
X0695
X06925Y0495
X06875
X06825
X06775
X06725
X06675
X06625
X06575
X06525
X06475
X06425
X06375
X06325
X06275
X063Y05
X0635
X064
X0645
X065
X0655
X066
X0665
X067
X0675
X068
X0685
X069
X0695
X06925Y0505
X06875
X06825
X06775
X06725
X06675
X06625
X06575
X06525
X06475
X06425
X06375
X06325
X06275
X063Y051
X0635
X064
X0645
X065
X0655
X066
X0665
X067
X0675
X068
X0685
X069
X0695
X06925Y0515
X06875
X06825
X06775
X06725
X06675
X06625
X06575
X06525
X06475
X06425
X06375
X0645Y052
X065
X0655
X066
X0665
X067
X0675
X068
X0685
X069
X0695
X06925Y0525
X06875
X06825
X06775
X06725
X06675
X06625
X06575
X06525
X06475
X065Y053
X0655
X066
X0665
X067
X0675
X068
X0685
X069
X0695
X07
X06975Y0535
X06925
X06875
X06825
X06775
X06725
X06675
X06625
X06575
X06525
X06475
X065Y054
X0655
X066
X0665
X067
X0675
X068
X0685
X069
X0695
X06975Y0545
X06925
X06875
X06825
X06775
X06725
X06675
X06625
X06575
X06525
X06475
X065Y055
X0655
X066
X0665
X067
X0675
X068
X0685
X069
X0695
X06975Y0555
X06925
X06875
X06825
X06775
X06725
X06675
X06625
X06575
X06525
X066Y056
X0665
X067
X0675
X068
X0685
X069
X0695
X06427Y05636
X06394Y05638
X06362Y05637
X0635Y05664
X06382
X0641Y05665
X06435
X06426Y05689
X06395Y05687
X06363
X0645Y054
Y053
X0625Y051
Y05
Y049
Y048
X063
X0635
X064
X06425Y0475
X06525
X06575
X06625
X0665Y048
X067
X0675
X068
X066
X0655
X07325Y053
X07375
X07425
X07475
X07525
X07575
X07625
X07675
X07725
X07775
X078Y0535
X0775
X077
X0765
X076
X0755
X075
X0745
X074
X0735
X06195Y05415
X06194Y05449
X0615Y0545
X06125Y054
X061Y0535
X0605
X06
X06025Y053
X06075
X061Y0525
X0605
X06
X058
X0575
X05775Y053
X058Y0535
X0575
X05775Y054
X058Y0545
X05625Y055
X0565Y0555
X056
X05395Y0557
X05265Y0549
Y05465
Y0544
Y05415
Y0539
X0524
Y05415
X05215
X0519
Y0539
X05215
Y0544
X0519
Y05465
Y0549
X05215
X0524
Y05465
Y0544
X05215Y05465
X052Y0535
X0525
X05275Y053
X05325
X05375
X0545Y0525
X05475Y052
X05525
X05425
X0545Y0515
X052849Y051581
Y051831
Y052081
X052599
X052349
Y051831
X052099
Y052081
Y052331
X052349
X052599
X052849
X052599Y051831
Y051581
Y051331
Y051081
X052349
X052099
X051849
X051599
Y051331
Y051581
Y051831
X051849
Y052081
Y052331
X051599
Y052081
X051849Y051581
Y051331
X052099
X052349
Y051581
X052099
X052849Y051331
Y051081
X05225Y053
X04925
X04875
X04825
X0485Y0525
X049
X04925Y052
X04875
X04825
X04775
X048Y0525
Y0515
X0485
X049
X04925Y051
X04875
X04825
X04775
X048Y0505
X0485
X049
X04925Y05
X04875
X04825
X04775
X048Y0495
X0485
X049
X04925Y049
X04975
X05025
X05075
X0505Y0485
X05
X0495
X049
X0485
X048
X0475
X047
X04725Y049
X04775
X04825
X04875
X04925Y048
X04975
X05025
X05075
X0505Y0475
X05
X05025Y047
X04825
X04725Y048
X055
X0555
X056
X0565
X057
X0575
X058
X0585
X059
X0595
X06
X0605
X061
X0615
X062
X06225Y0485
X06175
X06125
X06075
X06025
X05975
X05925
X05875
X05825
X05775
X05725
X05675
X05625
X05575
X05525
X0555Y049
X056
X0565
X057
X0575
X058
X0585
X059
X0595
X06
X0605
X061
X0615
X062
X06225Y0495
X06175
X06125
X06075
X06025
X05975
X05925
X05875
X05825
X05775
X05725
X05675
X05625
X05575
X05525
X0555Y05
X056
X0565
X057
X0575
X058
X0585
X059
X0595
X06
X0605
X061
X0615
X062
X06225Y0505
X06175
X06125
X06075
X06025
X05975
X05925
X05875
X05825
X05775
X05725
X05675
X05625
X05575
X055Y049
X0551Y0473
X05535
Y04705
X0551
X05485
Y0473
X0556
X05585
X0561
X05635
Y04705
X0561
X05585
X0556
X0566
X05685
X0571
X05735
Y0473
X0571
X05685
X0566
X0576
X05785
X0581
X05835
Y04705
X0581
X05785
X0576
X059Y047
X0595
X06
X0605
X061
X0615
X062
X06225Y0475
X06175
X06125
X06075
X06025
X05975
X05925
X05875
X0605Y051
X061
X0615
X062
X06069Y05565
X06037Y05561
X06006Y05564
X05991Y05585
X0602Y05595
X06051Y05588
X06084Y0559
X0594Y05643
X0555Y0535
X055
X0505Y0547
X05075Y056
X05025
X04975
X04925
X04875
X04825
X04775
X04725
X04825Y05515
X04675Y056
X04625
X04575
X04525
X0455Y0555
X046
X045
X04475Y055
X04425
X0445Y0545
X045
X04475Y054
X045Y0535
X0455
X0445
X044Y0545
X0435
X043
X0425
X042
X04125Y055
X04075
X0405Y0545
X04
X04025Y054
X03975
X0395Y0535
X03948Y05226
X038432Y0523
X0385Y0495
X039
X03875Y049
X03825
X03775
X03725
X03675
X037Y0495
X0375
X038
X0365
Y0485
X039
X041
X0415
X042
X0425
X043
X0435
X04375Y049
X04325
X04275
X04225
X04175
X04125
X0415Y0495
X042
X04225Y05
X04175
X04125
X0415Y0505
X042
X04175Y051
X04125
X0415Y0515
X041
X04125Y052
X041Y0505
Y0495
X04125Y048
X041Y0475
X04125Y047
X04275
X04325
X0435Y0475
X043
X04325Y048
X04375
X04275
X045Y0475
X0455
X04525Y04859
X0445Y0495
X044
X04425Y05
X04475
X045Y0505
X0455
X04525Y051
X04475
X04425
X04375
X044Y0515
X0445
X045
X0455
X0445Y0505
X044
X04375Y05
X0435Y0515
X04325Y052
X04675Y049
Y048
T02
X070538Y019679
X070368Y020142
Y020667
Y021192
Y021717
X070538Y02218
X070932Y022466
X071418
X071812Y02218
X071982Y021717
Y021192
Y020667
Y020142
X071812Y019679
X071418Y019393
X070932
Y02333
X071418
X071812Y023616
X071982Y024079
Y024604
Y025129
Y025654
X071812Y026117
X071418Y026403
X070932
X070538Y026117
X070368Y025654
Y025129
Y024604
Y024079
X070538Y023616
X062571Y031238
X062108Y031068
X061583
X061058
X060533
X06007Y031238
X058634
X058171Y031068
X057646
X057121
X056596
X056133Y031238
X055847Y031632
Y032118
X056133Y032512
X056596Y032682
X057121
X057646
X058171
X058634Y032512
X05892Y032118
Y031632
X059784
Y032118
X06007Y032512
X060533Y032682
X061058
X061583
X062108
X062571Y032512
X062857Y032118
Y031632
X070538Y049528
X070368Y049991
Y050516
Y051041
Y051566
X070538Y052029
X070932Y052315
X071418
X071812Y052029
X071982Y051566
Y051041
Y050516
Y049991
X071812Y049528
X071418Y049243
X070932
Y05318
X071418
X071812Y053465
X071982Y053928
Y054453
Y054978
Y055503
X071812Y055966
X071418Y056252
X070932
X070538Y055966
X070368Y055503
Y054978
Y054453
Y053928
X070538Y053465
T03
X08035Y0224
X08005Y0229
X079932Y0235
X08005Y0241
X08035Y0246
X08085Y0249
X08145Y025018
X08205Y0249
X08255Y0246
X08285Y0241
X082968Y0235
X08285Y0229
X08255Y0224
X08205Y0221
X08145Y021982
X08085Y0221
Y0325
X08145Y032382
X08205Y0325
X08255Y0328
X08285Y0333
X082968Y0339
X08285Y0345
X08255Y035
X08205Y0353
X08145Y035418
X08085Y0353
X08035Y035
X08005Y0345
X079932Y0339
X08005Y0333
X08035Y0328
Y0407
X08085Y0404
X08145Y040282
X08205Y0404
X08255Y0407
X08285Y0412
X082968Y0418
X08285Y0424
X08255Y0429
X08205Y0432
X08145Y043318
X08085Y0432
X08035Y0429
X08005Y0424
X079932Y0418
X08005Y0412
X08035Y05095
X08005Y05145
X079932Y05205
X08005Y05265
X08035Y05315
X08085Y05345
X08145Y053568
X08205Y05345
X08255Y05315
X08285Y05265
X082968Y05205
X08285Y05145
X08255Y05095
X08205Y05065
X08145Y050532
X08085Y05065
T04
X06275Y022146
Y022898
Y02365
X060104Y02345
X059352
X0586
X06275Y051995
Y052747
Y053499
T05
X0648Y02785
Y029818
X07005
Y02785
X0753
Y029818
Y045781
X07005
X0648
Y04775
X07005
X0753
T06
X04998Y031631
Y033009
X04924Y04698
X04724
X056701Y05603
X058079
X0437Y05389
X0427
X04424Y04698
X04524
T08
X037182Y032345
Y033436
Y034526
Y035617
Y036707
Y037798
Y038889
Y039979
Y04107
Y04216
Y043251
Y044341
X0383Y043796
Y042706
Y041615
Y040524
Y039434
Y038343
Y037253
Y036162
Y035072
Y033981
Y032891
Y0318
Y044887
T09
X04296Y04978
Y05078
T10
X0794Y02725
X079387Y03045
X04194Y03083
Y02928
Y02773
Y02622
X04194Y03235
X04197Y04361
Y04499
Y04641
X079387Y0452
X0794Y04875
X04197Y04781
X04015Y053
T12
X08265Y0191
X0531Y0344
Y0399
X08265Y05645
X0531Y04905
T13
X0531Y0268
T14
X07625Y0194
X0369
X07625Y05615
X0369
T15
X08145Y0235
Y0339
Y0418
Y05205
T16
X037741Y029083
Y047603
M30
