G04*
G04 #@! TF.GenerationSoftware,Altium Limited,Altium Designer,21.3.2 (30)*
G04*
G04 Layer_Color=16711935*
%FSTAX24Y24*%
%MOIN*%
G70*
G04*
G04 #@! TF.SameCoordinates,B67C6306-A56B-4E52-B5C8-3BB335875088*
G04*
G04*
G04 #@! TF.FilePolarity,Negative*
G04*
G01*
G75*
G04:AMPARAMS|DCode=59|XSize=55.1mil|YSize=78.7mil|CornerRadius=8.7mil|HoleSize=0mil|Usage=FLASHONLY|Rotation=270.000|XOffset=0mil|YOffset=0mil|HoleType=Round|Shape=RoundedRectangle|*
%AMROUNDEDRECTD59*
21,1,0.0551,0.0614,0,0,270.0*
21,1,0.0378,0.0787,0,0,270.0*
1,1,0.0173,-0.0307,-0.0189*
1,1,0.0173,-0.0307,0.0189*
1,1,0.0173,0.0307,0.0189*
1,1,0.0173,0.0307,-0.0189*
%
%ADD59ROUNDEDRECTD59*%
%ADD85R,0.1181X0.0591*%
%ADD103C,0.2836*%
%ADD104C,0.0880*%
G04:AMPARAMS|DCode=105|XSize=378mil|YSize=218mil|CornerRadius=56.5mil|HoleSize=0mil|Usage=FLASHONLY|Rotation=0.000|XOffset=0mil|YOffset=0mil|HoleType=Round|Shape=RoundedRectangle|*
%AMROUNDEDRECTD105*
21,1,0.3780,0.1050,0,0,0.0*
21,1,0.2650,0.2180,0,0,0.0*
1,1,0.1130,0.1325,-0.0525*
1,1,0.1130,-0.1325,-0.0525*
1,1,0.1130,-0.1325,0.0525*
1,1,0.1130,0.1325,0.0525*
%
%ADD105ROUNDEDRECTD105*%
%ADD106C,0.0474*%
%ADD107C,0.0671*%
%ADD108R,0.0671X0.0671*%
%ADD109C,0.0709*%
G04:AMPARAMS|DCode=110|XSize=378mil|YSize=218mil|CornerRadius=56.5mil|HoleSize=0mil|Usage=FLASHONLY|Rotation=270.000|XOffset=0mil|YOffset=0mil|HoleType=Round|Shape=RoundedRectangle|*
%AMROUNDEDRECTD110*
21,1,0.3780,0.1050,0,0,270.0*
21,1,0.2650,0.2180,0,0,270.0*
1,1,0.1130,-0.0525,-0.1325*
1,1,0.1130,-0.0525,0.1325*
1,1,0.1130,0.0525,0.1325*
1,1,0.1130,0.0525,-0.1325*
%
%ADD110ROUNDEDRECTD110*%
%ADD111R,0.0671X0.0671*%
%ADD112R,0.0709X0.0787*%
%ADD113R,0.0694X0.0694*%
%ADD114C,0.0694*%
%ADD115C,0.2049*%
%ADD116C,0.2442*%
%ADD117C,0.0610*%
G04:AMPARAMS|DCode=118|XSize=61mil|YSize=61mil|CornerRadius=16.7mil|HoleSize=0mil|Usage=FLASHONLY|Rotation=270.000|XOffset=0mil|YOffset=0mil|HoleType=Round|Shape=RoundedRectangle|*
%AMROUNDEDRECTD118*
21,1,0.0610,0.0276,0,0,270.0*
21,1,0.0276,0.0610,0,0,270.0*
1,1,0.0335,-0.0138,-0.0138*
1,1,0.0335,-0.0138,0.0138*
1,1,0.0335,0.0138,0.0138*
1,1,0.0335,0.0138,-0.0138*
%
%ADD118ROUNDEDRECTD118*%
%ADD119C,0.1280*%
%ADD120C,0.3996*%
%ADD121R,0.0480X0.4680*%
G36*
X053145Y05258D02*
X05315Y052579D01*
X053155Y052577D01*
X05316Y052575D01*
X053164Y052572D01*
X053168Y052568D01*
X053172Y052564D01*
X053175Y05256D01*
X053177Y052555D01*
X053179Y05255D01*
X05318Y052545D01*
X05318Y05254D01*
Y05093D01*
X05318Y050925D01*
X053179Y05092D01*
X053177Y050915D01*
X053175Y05091D01*
X053172Y050906D01*
X053168Y050902D01*
X053138Y050872D01*
X053134Y050868D01*
X05313Y050865D01*
X053125Y050863D01*
X05312Y050861D01*
X053115Y05086D01*
X05311Y05086D01*
X05112D01*
X051115Y05086D01*
X05111Y050861D01*
X051105Y050863D01*
X0511Y050865D01*
X051096Y050868D01*
X051092Y050872D01*
X051088Y050876D01*
X051085Y05088D01*
X051083Y050885D01*
X051081Y05089D01*
X05108Y050895D01*
X05108Y0509D01*
Y05253D01*
X05108Y052535D01*
X051081Y05254D01*
X051083Y052545D01*
X051085Y05255D01*
X051088Y052554D01*
X051092Y052558D01*
X051102Y052568D01*
X051106Y052572D01*
X05111Y052575D01*
X051115Y052577D01*
X05112Y052579D01*
X051125Y05258D01*
X05113Y05258D01*
X05314D01*
X053145Y05258D01*
D02*
G37*
G36*
X0618Y04675D02*
X05995Y0449D01*
Y0439D01*
X0546D01*
X0546Y04955D01*
X0557Y05065D01*
X0618Y05065D01*
X0618Y04675D01*
D02*
G37*
G36*
X072723Y04329D02*
X072725Y04329D01*
X072725Y04329D01*
X072725Y04329D01*
X072728Y043289D01*
X07273Y043289D01*
X07273Y043289D01*
X07273Y043289D01*
X072733Y043288D01*
X072735Y043287D01*
X072735Y043287D01*
X072735Y043287D01*
X072738Y043286D01*
X07274Y043285D01*
X07274Y043285D01*
X07274Y043285D01*
X072742Y043283D01*
X072744Y043282D01*
X072744Y043282D01*
X072744Y043282D01*
X072746Y04328D01*
X072748Y043278D01*
X072748Y043278D01*
X072748Y043278D01*
X07275Y043276D01*
X072752Y043275D01*
X072752Y043274D01*
X072752Y043274D01*
X072753Y043272D01*
X072755Y04327D01*
X072755Y04327D01*
X072755Y04327D01*
X072756Y043268D01*
X072757Y043266D01*
X072757Y043265D01*
X072757Y043265D01*
X072758Y043263D01*
X072759Y043261D01*
X072759Y04326D01*
X072759Y04326D01*
X072759Y043258D01*
X07276Y043255D01*
X07276Y043255D01*
X07276Y043255D01*
X07276Y043253D01*
X07276Y04325D01*
X07276Y04325D01*
X07276Y04325D01*
Y03326D01*
X07276Y033255D01*
X072759Y03325D01*
X072757Y033245D01*
X072755Y03324D01*
X072752Y033236D01*
X072748Y033232D01*
X072728Y033212D01*
X072724Y033208D01*
X07272Y033205D01*
X072715Y033203D01*
X07271Y033201D01*
X072705Y0332D01*
X0727Y0332D01*
X072695Y0332D01*
X07269Y033201D01*
X072685Y033203D01*
X07268Y033205D01*
X072676Y033208D01*
X072672Y033212D01*
X072623Y03326D01*
X06697D01*
X066965Y03326D01*
X06696Y033261D01*
X066955Y033263D01*
X06695Y033265D01*
X066946Y033268D01*
X066942Y033272D01*
X066938Y033276D01*
X066935Y03328D01*
X066933Y033285D01*
X066931Y03329D01*
X06693Y033295D01*
X06693Y0333D01*
Y03356D01*
X0555Y03356D01*
X055495Y03356D01*
X05549Y033561D01*
X055485Y033563D01*
X05548Y033565D01*
X055476Y033568D01*
X055472Y033572D01*
X054572Y034472D01*
X054568Y034476D01*
X054565Y03448D01*
X054563Y034485D01*
X054561Y03449D01*
X05456Y034495D01*
X05456Y0345D01*
X05456Y03735D01*
X05456Y037355D01*
X054561Y03736D01*
X054563Y037365D01*
X054565Y03737D01*
X054568Y037374D01*
X054572Y037378D01*
X054576Y037382D01*
X05458Y037385D01*
X054585Y037387D01*
X05459Y037389D01*
X054595Y03739D01*
X0546Y03739D01*
X06693Y03739D01*
Y043153D01*
X066892Y043192D01*
X06689Y043194D01*
X066888Y043195D01*
X066888Y043196D01*
X066888Y043196D01*
X066887Y043198D01*
X066885Y0432D01*
X066885Y0432D01*
X066885Y0432D01*
X066884Y043202D01*
X066883Y043204D01*
X066883Y043205D01*
X066883Y043205D01*
X066882Y043207D01*
X066881Y043209D01*
X066881Y04321D01*
X066881Y04321D01*
X066881Y043212D01*
X06688Y043215D01*
X06688Y043215D01*
X06688Y043215D01*
X06688Y043217D01*
X06688Y04322D01*
X06688Y04322D01*
X06688Y04322D01*
X06688Y043222D01*
X06688Y043225D01*
X06688Y043225D01*
X06688Y043225D01*
X066881Y043228D01*
X066881Y04323D01*
X066881Y04323D01*
X066881Y04323D01*
X066882Y043233D01*
X066883Y043235D01*
X066883Y043235D01*
X066883Y043235D01*
X066884Y043238D01*
X066885Y04324D01*
X066885Y04324D01*
X066885Y04324D01*
X066887Y043242D01*
X066888Y043244D01*
X066888Y043244D01*
X066888Y043244D01*
X06689Y043246D01*
X066892Y043248D01*
X066892Y043248D01*
X066892Y043248D01*
X066893Y04325D01*
X066895Y043252D01*
X066896Y043252D01*
X066896Y043252D01*
X066898Y043253D01*
X0669Y043255D01*
X0669Y043255D01*
X0669Y043255D01*
X066902Y043256D01*
X066904Y043257D01*
X066905Y043257D01*
X066905Y043257D01*
X066907Y043258D01*
X066909Y043259D01*
X06691Y043259D01*
X06691Y043259D01*
X066912Y043259D01*
X066915Y04326D01*
X066915Y04326D01*
X066915Y04326D01*
X066917Y04326D01*
X06692Y04326D01*
X07272Y04329D01*
X07272Y04329D01*
X07272Y04329D01*
X072723Y04329D01*
D02*
G37*
G36*
X06555Y0422D02*
Y03845D01*
X06515Y03805D01*
X05485D01*
X0546Y0383D01*
Y04155D01*
X05505Y04155D01*
X05525Y04175D01*
X05525Y04295D01*
X0553Y043D01*
X06475D01*
X06555Y0422D01*
D02*
G37*
D59*
X07995Y046219D02*
D03*
Y0474D02*
D03*
X0799Y029431D02*
D03*
Y02825D02*
D03*
X0789D02*
D03*
Y029431D02*
D03*
X07895Y0474D02*
D03*
Y046219D02*
D03*
D85*
X06315Y04735D02*
D03*
Y04613D02*
D03*
X0625Y02828D02*
D03*
Y0295D02*
D03*
X06745Y02942D02*
D03*
Y0282D02*
D03*
X0727Y02942D02*
D03*
Y0282D02*
D03*
Y04613D02*
D03*
Y04735D02*
D03*
X06745Y04613D02*
D03*
Y04735D02*
D03*
D103*
X07625Y0194D02*
D03*
X0531Y0268D02*
D03*
X0369Y0194D02*
D03*
Y05615D02*
D03*
X07625D02*
D03*
D104*
X079387Y03045D02*
D03*
X079387Y0452D02*
D03*
X0794Y04875D02*
D03*
X04194Y03235D02*
D03*
X04194Y03083D02*
D03*
Y02928D02*
D03*
Y02773D02*
D03*
Y02622D02*
D03*
X04197Y04361D02*
D03*
Y04499D02*
D03*
Y04641D02*
D03*
Y04781D02*
D03*
X0794Y02725D02*
D03*
X04015Y053D02*
D03*
D105*
X061399Y0319D02*
D03*
X05735D02*
D03*
D106*
X06007Y032512D02*
D03*
X060533Y032682D02*
D03*
X061058D02*
D03*
X061583D02*
D03*
X062108D02*
D03*
X062571Y032512D02*
D03*
X062857Y032118D02*
D03*
Y031632D02*
D03*
X062571Y031238D02*
D03*
X062108Y031068D02*
D03*
X061583D02*
D03*
X061058D02*
D03*
X06007Y031238D02*
D03*
X059784Y031632D02*
D03*
X058634Y032512D02*
D03*
X058171Y032682D02*
D03*
X057646D02*
D03*
X057121D02*
D03*
X056596D02*
D03*
X056133Y032512D02*
D03*
X055847Y032118D02*
D03*
Y031632D02*
D03*
X056133Y031238D02*
D03*
X056596Y031068D02*
D03*
X057121D02*
D03*
X057646D02*
D03*
X058171D02*
D03*
X058634Y031238D02*
D03*
X05892Y031632D02*
D03*
Y032118D02*
D03*
X059784D02*
D03*
X060533Y031068D02*
D03*
X071812Y02218D02*
D03*
X071982Y021717D02*
D03*
Y021192D02*
D03*
Y020667D02*
D03*
Y020142D02*
D03*
X071812Y019679D02*
D03*
X071418Y019393D02*
D03*
X070932D02*
D03*
X070538Y019679D02*
D03*
X070368Y020142D02*
D03*
Y020667D02*
D03*
Y021192D02*
D03*
X070538Y02218D02*
D03*
X070932Y022466D02*
D03*
X071812Y023616D02*
D03*
X071982Y024079D02*
D03*
Y024604D02*
D03*
Y025129D02*
D03*
Y025654D02*
D03*
X071812Y026117D02*
D03*
X071418Y026403D02*
D03*
X070932D02*
D03*
X070538Y026117D02*
D03*
X070368Y025654D02*
D03*
Y025129D02*
D03*
Y024604D02*
D03*
Y024079D02*
D03*
X070538Y023616D02*
D03*
X070932Y02333D02*
D03*
X071418D02*
D03*
Y022466D02*
D03*
X070368Y021717D02*
D03*
X071812Y052029D02*
D03*
X071982Y051566D02*
D03*
Y051041D02*
D03*
Y050516D02*
D03*
Y049991D02*
D03*
X071812Y049528D02*
D03*
X071418Y049243D02*
D03*
X070932D02*
D03*
X070538Y049528D02*
D03*
X070368Y049991D02*
D03*
Y050516D02*
D03*
Y051041D02*
D03*
X070538Y052029D02*
D03*
X070932Y052315D02*
D03*
X071812Y053465D02*
D03*
X071982Y053928D02*
D03*
Y054453D02*
D03*
Y054978D02*
D03*
Y055503D02*
D03*
X071812Y055966D02*
D03*
X071418Y056252D02*
D03*
X070932D02*
D03*
X070538Y055966D02*
D03*
X070368Y055503D02*
D03*
Y054978D02*
D03*
Y054453D02*
D03*
Y053928D02*
D03*
X070538Y053465D02*
D03*
X070932Y05318D02*
D03*
X071418D02*
D03*
Y052315D02*
D03*
X070368Y051566D02*
D03*
D107*
X060104Y02345D02*
D03*
X059352D02*
D03*
X06275Y022146D02*
D03*
Y022898D02*
D03*
X04524Y04698D02*
D03*
X04724D02*
D03*
X04924D02*
D03*
X06275Y051995D02*
D03*
Y052747D02*
D03*
D108*
X0586Y02345D02*
D03*
X04424Y04698D02*
D03*
D109*
X0427Y05389D02*
D03*
X0437D02*
D03*
X04998Y031631D02*
D03*
Y033009D02*
D03*
X058079Y05603D02*
D03*
X056701D02*
D03*
D110*
X0712Y020851D02*
D03*
Y0249D02*
D03*
Y0507D02*
D03*
Y054749D02*
D03*
D111*
X06275Y02365D02*
D03*
Y053499D02*
D03*
D112*
X04296Y05078D02*
D03*
Y04978D02*
D03*
D113*
X0383Y0318D02*
D03*
D114*
Y032891D02*
D03*
Y033981D02*
D03*
Y035072D02*
D03*
Y036162D02*
D03*
Y037253D02*
D03*
Y038343D02*
D03*
Y039434D02*
D03*
Y040524D02*
D03*
Y041615D02*
D03*
Y042706D02*
D03*
Y043796D02*
D03*
X037182Y032345D02*
D03*
Y033436D02*
D03*
Y034526D02*
D03*
Y035617D02*
D03*
Y036707D02*
D03*
Y037798D02*
D03*
Y038889D02*
D03*
Y039979D02*
D03*
Y04107D02*
D03*
Y043251D02*
D03*
Y044341D02*
D03*
Y04216D02*
D03*
X0383Y044887D02*
D03*
D115*
X037741Y047603D02*
D03*
Y029083D02*
D03*
X0531Y0399D02*
D03*
Y0344D02*
D03*
D116*
Y04905D02*
D03*
D117*
X0753Y029818D02*
D03*
X07005D02*
D03*
X0648D02*
D03*
X0753Y045781D02*
D03*
X07005D02*
D03*
X0648D02*
D03*
D118*
X0753Y02785D02*
D03*
X07005D02*
D03*
X0648D02*
D03*
X0753Y04775D02*
D03*
X07005D02*
D03*
X0648D02*
D03*
D119*
X08265Y0191D02*
D03*
Y05645D02*
D03*
D120*
X08145Y05205D02*
D03*
Y0418D02*
D03*
Y0339D02*
D03*
Y0235D02*
D03*
D121*
X04762Y03941D02*
D03*
M02*
