G04*
G04 #@! TF.GenerationSoftware,Altium Limited,Altium Designer,21.3.2 (30)*
G04*
G04 Layer_Physical_Order=2*
G04 Layer_Color=16711680*
%FSTAX24Y24*%
%MOIN*%
G70*
G04*
G04 #@! TF.SameCoordinates,B67C6306-A56B-4E52-B5C8-3BB335875088*
G04*
G04*
G04 #@! TF.FilePolarity,Positive*
G04*
G01*
G75*
%ADD10C,0.0100*%
G04:AMPARAMS|DCode=18|XSize=47.2mil|YSize=70.9mil|CornerRadius=4.7mil|HoleSize=0mil|Usage=FLASHONLY|Rotation=270.000|XOffset=0mil|YOffset=0mil|HoleType=Round|Shape=RoundedRectangle|*
%AMROUNDEDRECTD18*
21,1,0.0472,0.0614,0,0,270.0*
21,1,0.0378,0.0709,0,0,270.0*
1,1,0.0094,-0.0307,-0.0189*
1,1,0.0094,-0.0307,0.0189*
1,1,0.0094,0.0307,0.0189*
1,1,0.0094,0.0307,-0.0189*
%
%ADD18ROUNDEDRECTD18*%
%ADD32C,0.0394*%
%ADD41R,0.1102X0.0512*%
%ADD122C,0.0500*%
%ADD124C,0.0200*%
%ADD126C,0.0250*%
%ADD127C,0.0300*%
%ADD130C,0.2756*%
%ADD131C,0.0800*%
G04:AMPARAMS|DCode=132|XSize=370mil|YSize=210mil|CornerRadius=52.5mil|HoleSize=0mil|Usage=FLASHONLY|Rotation=0.000|XOffset=0mil|YOffset=0mil|HoleType=Round|Shape=RoundedRectangle|*
%AMROUNDEDRECTD132*
21,1,0.3700,0.1050,0,0,0.0*
21,1,0.2650,0.2100,0,0,0.0*
1,1,0.1050,0.1325,-0.0525*
1,1,0.1050,-0.1325,-0.0525*
1,1,0.1050,-0.1325,0.0525*
1,1,0.1050,0.1325,0.0525*
%
%ADD132ROUNDEDRECTD132*%
%ADD133C,0.0591*%
%ADD134R,0.0591X0.0591*%
%ADD135C,0.0630*%
G04:AMPARAMS|DCode=136|XSize=370mil|YSize=210mil|CornerRadius=52.5mil|HoleSize=0mil|Usage=FLASHONLY|Rotation=270.000|XOffset=0mil|YOffset=0mil|HoleType=Round|Shape=RoundedRectangle|*
%AMROUNDEDRECTD136*
21,1,0.3700,0.1050,0,0,270.0*
21,1,0.2650,0.2100,0,0,270.0*
1,1,0.1050,-0.0525,-0.1325*
1,1,0.1050,-0.0525,0.1325*
1,1,0.1050,0.0525,0.1325*
1,1,0.1050,0.0525,-0.1325*
%
%ADD136ROUNDEDRECTD136*%
%ADD137R,0.0591X0.0591*%
%ADD138R,0.0630X0.0709*%
%ADD139R,0.0614X0.0614*%
%ADD140C,0.0614*%
%ADD141C,0.1969*%
%ADD142C,0.2362*%
%ADD143C,0.0551*%
G04:AMPARAMS|DCode=144|XSize=55.1mil|YSize=55.1mil|CornerRadius=13.8mil|HoleSize=0mil|Usage=FLASHONLY|Rotation=270.000|XOffset=0mil|YOffset=0mil|HoleType=Round|Shape=RoundedRectangle|*
%AMROUNDEDRECTD144*
21,1,0.0551,0.0276,0,0,270.0*
21,1,0.0276,0.0551,0,0,270.0*
1,1,0.0276,-0.0138,-0.0138*
1,1,0.0276,-0.0138,0.0138*
1,1,0.0276,0.0138,0.0138*
1,1,0.0276,0.0138,-0.0138*
%
%ADD144ROUNDEDRECTD144*%
%ADD145C,0.1200*%
%ADD146C,0.3937*%
%ADD147R,0.0400X0.4600*%
%ADD148C,0.0236*%
%ADD149C,0.0400*%
%ADD150C,0.0300*%
G36*
X062892Y05655D02*
X062912Y056504D01*
X06256Y056153D01*
X06112D01*
X061106Y056186D01*
X061036Y056256D01*
X06099Y056275D01*
X059878D01*
X059855Y056266D01*
X059832Y056256D01*
X059664Y056091D01*
X059642Y056094D01*
X059614Y056107D01*
Y05643D01*
X0596Y0565D01*
X059628Y05655D01*
X062892D01*
D02*
G37*
G36*
X06307Y055712D02*
X06307Y053854D01*
X062964D01*
Y0548D01*
X062948Y054882D01*
X062901Y054951D01*
X062591Y055261D01*
X062522Y055308D01*
X06244Y055324D01*
X061092D01*
X061082Y055374D01*
X061106Y055384D01*
X061125Y05543D01*
Y055527D01*
X06269D01*
X06269Y055527D01*
X062771Y055538D01*
X062846Y055569D01*
X062911Y055619D01*
X063024Y055732D01*
X06307Y055712D01*
D02*
G37*
G36*
X06106Y05614D02*
Y05543D01*
X05974D01*
X059705Y055465D01*
Y05604D01*
X059878Y05621D01*
X06099D01*
X06106Y05614D01*
D02*
G37*
G36*
X059172Y05655D02*
X0592Y0565D01*
X059186Y05643D01*
Y055306D01*
X059202Y055224D01*
X059249Y055154D01*
X059444Y054959D01*
X059514Y054912D01*
X059596Y054896D01*
X062351D01*
X062536Y054711D01*
Y053854D01*
X062395D01*
Y053144D01*
X06307D01*
Y05293D01*
X06235Y05221D01*
X062221D01*
X062113Y052318D01*
Y054078D01*
X062128Y054115D01*
Y054185D01*
X062108Y054234D01*
Y05443D01*
X062118Y054455D01*
Y054525D01*
X062091Y054591D01*
X062041Y054641D01*
X061975Y054668D01*
X061905D01*
X061839Y054641D01*
X061789Y054591D01*
X061762Y054525D01*
Y054455D01*
X061782Y054406D01*
Y05421D01*
X061772Y054185D01*
Y054115D01*
X061787Y054078D01*
Y05225D01*
X061787Y052249D01*
X061755Y05221D01*
X05367D01*
X053251Y051791D01*
X053205Y05181D01*
Y05254D01*
X053186Y052586D01*
X05314Y052605D01*
X05113D01*
X051084Y052586D01*
X051074Y052576D01*
X051055Y05253D01*
Y0509D01*
X051074Y050854D01*
X05112Y050835D01*
X05223D01*
X052249Y050789D01*
X05094Y04948D01*
Y042066D01*
X050894Y042047D01*
X049678Y043262D01*
X049663Y043298D01*
X049613Y043348D01*
X049548Y043376D01*
X049477D01*
X049412Y043348D01*
X049362Y043298D01*
X049334Y043233D01*
Y043162D01*
X049362Y043097D01*
X049412Y043047D01*
X049448Y043032D01*
X050805Y041675D01*
X050849Y04163D01*
Y039669D01*
X050834Y039633D01*
Y039562D01*
X050862Y039497D01*
X050912Y039447D01*
X05094Y039435D01*
Y03735D01*
X0546D01*
Y03735D01*
X06555D01*
X0662Y038D01*
Y04235D01*
X065Y04355D01*
X06065D01*
Y0446D01*
X06255Y0465D01*
X082Y0465D01*
X08349Y04501D01*
Y031051D01*
X081639Y0292D01*
X06405Y0292D01*
X0631Y0292D01*
X0629Y029D01*
X0622D01*
X06195Y02925D01*
Y02975D01*
X06215Y02995D01*
X0628D01*
X06375Y0309D01*
Y03095D01*
X06375Y03295D01*
X0631Y0336D01*
X0555Y0336D01*
X0555Y0336D01*
X0551D01*
X05444Y03294D01*
Y0311D01*
X05411Y03077D01*
X05094D01*
Y025709D01*
X052299Y02435D01*
X052359D01*
X052625Y024085D01*
X052678Y024049D01*
X05274Y024037D01*
X053889D01*
X053924Y024022D01*
X053995D01*
X054031Y024037D01*
X054128D01*
X05416Y023998D01*
X05416Y023997D01*
X05416Y023997D01*
Y023158D01*
X05416Y023158D01*
X054168Y023115D01*
X054193Y023079D01*
X054598Y022674D01*
Y02226D01*
X054559Y022221D01*
X054532Y022155D01*
Y022085D01*
X054559Y022019D01*
X054571Y022008D01*
X054559Y021996D01*
X054532Y02193D01*
Y02186D01*
X054559Y021794D01*
X054609Y021744D01*
X054675Y021717D01*
X054745D01*
X054811Y021744D01*
X054861Y021794D01*
X054888Y02186D01*
Y02193D01*
X054861Y021996D01*
X054849Y022008D01*
X054861Y022019D01*
X054888Y022085D01*
Y022155D01*
X054861Y022221D01*
X054822Y02226D01*
Y02272D01*
X054822Y02272D01*
X054814Y022763D01*
X054789Y022799D01*
X054789Y022799D01*
X054384Y023205D01*
Y023951D01*
X05447Y024037D01*
X056823D01*
X057444Y023415D01*
X057459Y023379D01*
X057509Y023329D01*
X057575Y023302D01*
X057645D01*
X057711Y023329D01*
X057761Y023379D01*
X057788Y023445D01*
Y023516D01*
X057761Y023581D01*
X057711Y023631D01*
X057675Y023646D01*
X057021Y0243D01*
X057042Y02435D01*
X06216D01*
X062459Y024051D01*
X062439Y024005D01*
X062395D01*
Y023295D01*
X06297D01*
X06297Y022487D01*
X06292Y022458D01*
X062887Y022477D01*
X062797Y022501D01*
X062703D01*
X062613Y022477D01*
X062532Y02243D01*
X062466Y022364D01*
X062419Y022283D01*
X062395Y022193D01*
Y022099D01*
X062411Y022038D01*
X061835Y021461D01*
X061799Y021408D01*
X061787Y021346D01*
Y020448D01*
X060652Y019313D01*
X060418D01*
X060403Y019363D01*
X060435Y019385D01*
X060894Y019843D01*
X060929Y019896D01*
X060942Y019959D01*
Y022775D01*
X060929Y022838D01*
X060894Y022891D01*
X060443Y023342D01*
X060459Y023403D01*
Y023497D01*
X060435Y023587D01*
X060388Y023668D01*
X060322Y023734D01*
X060241Y023781D01*
X060151Y023805D01*
X060057D01*
X059967Y023781D01*
X059886Y023734D01*
X05982Y023668D01*
X059773Y023587D01*
X059749Y023497D01*
Y023403D01*
X059773Y023313D01*
X05982Y023232D01*
X059886Y023166D01*
X059967Y023119D01*
X060057Y023095D01*
X060151D01*
X060212Y023111D01*
X060616Y022708D01*
Y020026D01*
X060252Y019663D01*
X056649D01*
X05663Y019709D01*
X056825Y019904D01*
X056861Y019919D01*
X056911Y019969D01*
X056938Y020035D01*
Y020105D01*
X056911Y020171D01*
X056861Y020221D01*
X056795Y020248D01*
X056725D01*
X056659Y020221D01*
X056609Y020171D01*
X056594Y020135D01*
X056122Y019663D01*
X053673D01*
Y019838D01*
X053688Y019875D01*
Y019945D01*
X053661Y020011D01*
X053611Y020061D01*
X053545Y020088D01*
X053475D01*
X053409Y020061D01*
X053359Y020011D01*
X053332Y019945D01*
Y019875D01*
X053347Y019838D01*
Y019663D01*
X050043D01*
Y019758D01*
X050058Y019795D01*
Y019865D01*
X050031Y019931D01*
X049981Y019981D01*
X049915Y020008D01*
X049845D01*
X049779Y019981D01*
X049729Y019931D01*
X049702Y019865D01*
Y019795D01*
X049717Y019758D01*
Y019672D01*
X042504D01*
X040073Y022103D01*
Y025232D01*
X040495Y025654D01*
X040531Y025669D01*
X040581Y025719D01*
X040608Y025785D01*
Y025855D01*
X040581Y025921D01*
X040531Y025971D01*
X040465Y025998D01*
X040395D01*
X040329Y025971D01*
X040279Y025921D01*
X040264Y025885D01*
X039795Y025415D01*
X039759Y025362D01*
X039747Y0253D01*
Y022035D01*
X039754Y021997D01*
X039708Y021972D01*
X039463Y022218D01*
Y02479D01*
Y02529D01*
X039451Y025352D01*
X039415Y025405D01*
X038956Y025865D01*
X038968Y025895D01*
Y025965D01*
X038941Y026031D01*
X038891Y026081D01*
X038825Y026108D01*
X038755D01*
X038689Y026081D01*
X038639Y026031D01*
X038612Y025965D01*
Y025895D01*
X038627Y025858D01*
Y0258D01*
X038639Y025738D01*
X038675Y025685D01*
X039137Y025222D01*
Y02479D01*
Y02215D01*
X039149Y022088D01*
X039185Y022035D01*
X042063Y019156D01*
X042044Y01911D01*
X04187D01*
X0359Y02508D01*
Y05066D01*
X04179Y05655D01*
X059172Y05655D01*
D02*
G37*
G36*
X05314Y05093D02*
X05311Y0509D01*
X05112D01*
Y05253D01*
X05113Y05254D01*
X05314D01*
Y05093D01*
D02*
G37*
G36*
X0723Y0563D02*
Y0532D01*
X072Y0529D01*
X07025Y0529D01*
X06975Y0524D01*
Y0489D01*
X0702Y04845D01*
X07575D01*
X07595Y04825D01*
Y0472D01*
X07575Y047D01*
X06225D01*
X0601Y04485D01*
Y04365D01*
X0546D01*
Y04433D01*
X0536D01*
X05338Y04455D01*
Y04575D01*
X05345Y04582D01*
X05364D01*
X05366Y0458D01*
X0546D01*
Y047D01*
Y04845D01*
Y04955D01*
X0557Y05065D01*
X05965Y05065D01*
X0602Y0512D01*
X06332D01*
Y05121D01*
X0639Y05179D01*
Y0547D01*
X064191Y05498D01*
Y055759D01*
X065221Y05665D01*
X07195Y05665D01*
X0723Y0563D01*
D02*
G37*
G36*
X08007Y054005D02*
X082081D01*
X082081Y054005D01*
X082081Y054005D01*
X082179Y054005D01*
X082372Y053967D01*
X082554Y053891D01*
X082718Y053782D01*
X082788Y053712D01*
X082969Y053531D01*
X083257Y053243D01*
X083257Y053243D01*
X083327Y053173D01*
X083436Y053009D01*
X083512Y052827D01*
X08355Y052634D01*
X08355Y052536D01*
X08355Y0488D01*
Y0486D01*
X082Y04705D01*
X07715D01*
X076789Y047411D01*
X076825Y048375D01*
X0764Y0488D01*
X07045D01*
X0701Y04915D01*
Y05225D01*
X0704Y05255D01*
X0722D01*
X073655Y054005D01*
X08007Y054005D01*
D02*
G37*
G36*
X06555Y0422D02*
Y03845D01*
X06515Y03805D01*
X05485D01*
X0546Y0383D01*
Y04155D01*
X05505Y04155D01*
X05525Y04175D01*
X05525Y04295D01*
X0553Y043D01*
X06475D01*
X06555Y0422D01*
D02*
G37*
G36*
X06297Y021805D02*
X06297Y01911D01*
X060976D01*
X060957Y019156D01*
X062065Y020265D01*
X062101Y020318D01*
X062113Y02038D01*
Y021278D01*
X062642Y021807D01*
X062703Y021791D01*
X062797D01*
X062887Y021815D01*
X06292Y021834D01*
X06297Y021805D01*
D02*
G37*
G36*
X08347Y02668D02*
X08348Y02667D01*
X083494Y026648D01*
X083505Y026623D01*
X08351Y026597D01*
X08351Y026583D01*
X08351Y026583D01*
X08351Y022914D01*
X08351Y022816D01*
X083472Y022623D01*
X083396Y022441D01*
X083287Y022277D01*
X083217Y022207D01*
X08281Y02182D01*
X082603Y021613D01*
X082533Y021543D01*
X082369Y021434D01*
X082187Y021358D01*
X081994Y02132D01*
X08003D01*
X079986Y02132D01*
X079901Y021337D01*
X079821Y02137D01*
X079748Y021419D01*
X079718Y021449D01*
X079693Y021472D01*
X079637Y021509D01*
X079574Y021535D01*
X079508Y021548D01*
X079474Y02155D01*
X079474Y02155D01*
X07681D01*
X07385Y02155D01*
X07235Y02305D01*
X0704D01*
X07015Y0233D01*
Y02655D01*
X07035Y02675D01*
X07665D01*
X0771Y0272D01*
Y02825D01*
X07745Y0286D01*
X08155D01*
X08347Y02668D01*
D02*
G37*
G36*
X0592Y0327D02*
Y03055D01*
X0613Y02845D01*
X0631D01*
X0633Y02865D01*
X07585D01*
X0762Y0283D01*
Y02755D01*
X0759Y02725D01*
X07D01*
X0695Y02675D01*
Y0232D01*
X07Y0227D01*
X07205D01*
X0723Y02245D01*
X0723Y0193D01*
X07195Y01895D01*
X06545D01*
X06395Y02045D01*
Y0237D01*
X0625Y02515D01*
X0575Y02515D01*
X05545Y0272D01*
Y02845D01*
Y03265D01*
X0558Y033D01*
X0589D01*
X0592Y0327D01*
D02*
G37*
%LPC*%
G36*
X058128Y056405D02*
X05803D01*
X057934Y056379D01*
X057849Y05633D01*
X057779Y05626D01*
X05773Y056175D01*
X057704Y056079D01*
Y055981D01*
X05773Y055885D01*
X057779Y0558D01*
X057849Y05573D01*
X057934Y055681D01*
X05803Y055655D01*
X058128D01*
X058224Y055681D01*
X058309Y05573D01*
X058379Y0558D01*
X058428Y055885D01*
X058454Y055981D01*
Y056079D01*
X058428Y056175D01*
X058379Y05626D01*
X058309Y05633D01*
X058224Y056379D01*
X058128Y056405D01*
D02*
G37*
G36*
X048285Y055328D02*
X048215D01*
X048149Y055301D01*
X048099Y055251D01*
X048072Y055185D01*
Y055115D01*
X048099Y055049D01*
X048149Y054999D01*
X048215Y054972D01*
X048285D01*
X048322Y054987D01*
X049682D01*
X050085Y054585D01*
X050138Y054549D01*
X0502Y054537D01*
X050428D01*
X050465Y054522D01*
X050535D01*
X050601Y054549D01*
X050651Y054599D01*
X050678Y054665D01*
Y054735D01*
X050651Y054801D01*
X050601Y054851D01*
X050535Y054878D01*
X050465D01*
X050428Y054863D01*
X050268D01*
X049865Y055265D01*
X049812Y055301D01*
X04975Y055313D01*
X048322D01*
X048285Y055328D01*
D02*
G37*
G36*
X043749Y054265D02*
X043651D01*
X043555Y054239D01*
X04347Y05419D01*
X0434Y05412D01*
X043351Y054035D01*
X043325Y053939D01*
Y053841D01*
X043351Y053745D01*
X0434Y05366D01*
X04347Y05359D01*
X043555Y053541D01*
X043651Y053515D01*
X043749D01*
X043845Y053541D01*
X04393Y05359D01*
X044Y05366D01*
X044049Y053745D01*
X044075Y053841D01*
Y053939D01*
X044049Y054035D01*
X044Y05412D01*
X04393Y05419D01*
X043845Y054239D01*
X043749Y054265D01*
D02*
G37*
G36*
X042749D02*
X042651D01*
X042555Y054239D01*
X04247Y05419D01*
X0424Y05412D01*
X042351Y054035D01*
X042325Y053939D01*
Y053841D01*
X042351Y053745D01*
X0424Y05366D01*
X04247Y05359D01*
X042555Y053541D01*
X042651Y053515D01*
X042749D01*
X042845Y053541D01*
X04293Y05359D01*
X043Y05366D01*
X043049Y053745D01*
X043075Y053841D01*
Y053939D01*
X043049Y054035D01*
X043Y05412D01*
X04293Y05419D01*
X042845Y054239D01*
X042749Y054265D01*
D02*
G37*
G36*
X038467Y052478D02*
X038397D01*
X038331Y052451D01*
X038281Y052401D01*
X038254Y052335D01*
Y052265D01*
X038281Y052199D01*
X038331Y052149D01*
X038397Y052122D01*
X038467D01*
X038504Y052137D01*
X039266D01*
X039278Y052128D01*
X039341Y052116D01*
X039372D01*
X039379Y052109D01*
X039445Y052082D01*
X039515D01*
X039581Y052109D01*
X039631Y052159D01*
X039658Y052225D01*
Y052295D01*
X039631Y052361D01*
X039581Y052411D01*
X039515Y052438D01*
X039482D01*
X039461Y052442D01*
X039395D01*
X039382Y052451D01*
X03932Y052463D01*
X038504D01*
X038467Y052478D01*
D02*
G37*
G36*
X043335Y051194D02*
X042585D01*
Y050366D01*
X043335D01*
Y051194D01*
D02*
G37*
G36*
X049287Y047335D02*
X049193D01*
X049103Y047311D01*
X049022Y047264D01*
X048956Y047198D01*
X048909Y047117D01*
X048885Y047027D01*
Y046933D01*
X048909Y046843D01*
X048956Y046762D01*
X049022Y046696D01*
X049103Y046649D01*
X049193Y046625D01*
X049287D01*
X049377Y046649D01*
X049458Y046696D01*
X049524Y046762D01*
X049571Y046843D01*
X049595Y046933D01*
Y047027D01*
X049571Y047117D01*
X049524Y047198D01*
X049458Y047264D01*
X049377Y047311D01*
X049287Y047335D01*
D02*
G37*
G36*
X047287D02*
X047193D01*
X047103Y047311D01*
X047022Y047264D01*
X046956Y047198D01*
X046909Y047117D01*
X046885Y047027D01*
Y046933D01*
X046909Y046843D01*
X046956Y046762D01*
X047022Y046696D01*
X047103Y046649D01*
X047193Y046625D01*
X047287D01*
X047377Y046649D01*
X047458Y046696D01*
X047524Y046762D01*
X047571Y046843D01*
X047595Y046933D01*
Y047027D01*
X047571Y047117D01*
X047524Y047198D01*
X047458Y047264D01*
X047377Y047311D01*
X047287Y047335D01*
D02*
G37*
G36*
X044595D02*
X043885D01*
Y046625D01*
X044595D01*
Y047335D01*
D02*
G37*
G36*
X037823Y048647D02*
X037659D01*
X037496Y048622D01*
X03734Y048571D01*
X037194Y048496D01*
X037061Y0484D01*
X036944Y048283D01*
X036848Y04815D01*
X036773Y048004D01*
X036722Y047848D01*
X036697Y047685D01*
Y047521D01*
X036722Y047359D01*
X036773Y047202D01*
X036848Y047056D01*
X036944Y046923D01*
X037061Y046807D01*
X037194Y04671D01*
X03734Y046635D01*
X037496Y046585D01*
X037659Y046559D01*
X037823D01*
X037985Y046585D01*
X038142Y046635D01*
X038288Y04671D01*
X038421Y046807D01*
X038537Y046923D01*
X038634Y047056D01*
X038709Y047202D01*
X038759Y047359D01*
X038785Y047521D01*
Y047685D01*
X038759Y047848D01*
X038709Y048004D01*
X038634Y04815D01*
X038537Y048283D01*
X038421Y0484D01*
X038288Y048496D01*
X038142Y048571D01*
X037985Y048622D01*
X037823Y048647D01*
D02*
G37*
G36*
X048885Y046088D02*
X048815D01*
X048778Y046073D01*
X04709D01*
X047028Y046061D01*
X046975Y046025D01*
X046387Y045438D01*
X046351Y045423D01*
X046301Y045373D01*
X046274Y045307D01*
Y045236D01*
X046301Y045171D01*
X046351Y045121D01*
X046416Y045094D01*
X046487D01*
X046553Y045121D01*
X046603Y045171D01*
X046618Y045207D01*
X047158Y045747D01*
X048778D01*
X048815Y045732D01*
X048885D01*
X048951Y045759D01*
X049001Y045809D01*
X049028Y045875D01*
Y045945D01*
X049001Y046011D01*
X048951Y046061D01*
X048885Y046088D01*
D02*
G37*
G36*
X04908Y045659D02*
X04761D01*
X047538Y045644D01*
X047477Y045603D01*
X046647Y044773D01*
X046606Y044712D01*
X046591Y04464D01*
X046606Y044568D01*
X046647Y044507D01*
X046708Y044466D01*
X04678Y044451D01*
X046852Y044466D01*
X046913Y044507D01*
X047688Y045281D01*
X04908D01*
X049152Y045296D01*
X049213Y045337D01*
X049254Y045398D01*
X049269Y04547D01*
X049254Y045542D01*
X049213Y045603D01*
X049152Y045644D01*
X04908Y045659D01*
D02*
G37*
G36*
X038348Y044163D02*
X038252D01*
X038158Y044138D01*
X038075Y04409D01*
X038006Y044021D01*
X037958Y043938D01*
X037933Y043844D01*
Y043748D01*
X037958Y043654D01*
X038006Y043571D01*
X038075Y043502D01*
X038158Y043454D01*
X038252Y043429D01*
X038348D01*
X038442Y043454D01*
X038525Y043502D01*
X038594Y043571D01*
X038642Y043654D01*
X038667Y043748D01*
Y043844D01*
X038642Y043938D01*
X038594Y044021D01*
X038525Y04409D01*
X038442Y044138D01*
X038348Y044163D01*
D02*
G37*
G36*
Y043073D02*
X038252D01*
X038158Y043048D01*
X038075Y042999D01*
X038006Y042931D01*
X037958Y042847D01*
X037933Y042754D01*
Y042657D01*
X037958Y042564D01*
X038006Y04248D01*
X038075Y042412D01*
X038158Y042363D01*
X038252Y042338D01*
X038348D01*
X038442Y042363D01*
X038525Y042412D01*
X038594Y04248D01*
X038642Y042564D01*
X038667Y042657D01*
Y042754D01*
X038642Y042847D01*
X038594Y042931D01*
X038525Y042999D01*
X038442Y043048D01*
X038348Y043073D01*
D02*
G37*
G36*
Y041982D02*
X038252D01*
X038158Y041957D01*
X038075Y041909D01*
X038006Y04184D01*
X037958Y041757D01*
X037933Y041663D01*
Y041567D01*
X037958Y041473D01*
X038006Y04139D01*
X038075Y041321D01*
X038158Y041273D01*
X038252Y041248D01*
X038348D01*
X038442Y041273D01*
X038525Y041321D01*
X038594Y04139D01*
X038642Y041473D01*
X038667Y041567D01*
Y041663D01*
X038642Y041757D01*
X038594Y04184D01*
X038525Y041909D01*
X038442Y041957D01*
X038348Y041982D01*
D02*
G37*
G36*
X042031Y04687D02*
X041909D01*
X041792Y046839D01*
X041688Y046778D01*
X041602Y046692D01*
X041541Y046588D01*
X04151Y046471D01*
Y046349D01*
X041541Y046232D01*
X041602Y046128D01*
X041688Y046042D01*
X041792Y045981D01*
X041909Y04595D01*
X042031D01*
X042148Y045981D01*
X042206Y046015D01*
X042888Y045334D01*
Y04203D01*
X042888Y04203D01*
X042896Y041987D01*
X042921Y04195D01*
X043642Y04123D01*
Y041175D01*
X043669Y041109D01*
X043719Y041059D01*
X043784Y041032D01*
X043855D01*
X043921Y041059D01*
X043971Y041109D01*
X043998Y041175D01*
Y041245D01*
X043971Y041311D01*
X043921Y041361D01*
X043855Y041388D01*
X0438D01*
X043112Y042076D01*
Y04538D01*
X043112Y04538D01*
X043104Y045423D01*
X043079Y045459D01*
X042365Y046174D01*
X042399Y046232D01*
X04243Y046349D01*
Y046471D01*
X042399Y046588D01*
X042338Y046692D01*
X042252Y046778D01*
X042148Y046839D01*
X042031Y04687D01*
D02*
G37*
G36*
Y04407D02*
X041909D01*
X041792Y044039D01*
X041688Y043978D01*
X041602Y043892D01*
X041541Y043788D01*
X04151Y043671D01*
Y043549D01*
X041541Y043432D01*
X041602Y043328D01*
X041688Y043242D01*
X041792Y043181D01*
X041858Y043164D01*
Y04256D01*
X041858Y04256D01*
X041866Y042517D01*
X041891Y04248D01*
X043642Y040729D01*
Y040675D01*
X043669Y040609D01*
X043719Y040559D01*
X043784Y040532D01*
X043855D01*
X043921Y040559D01*
X043971Y040609D01*
X043998Y040675D01*
Y040685D01*
X044014Y040695D01*
X045366Y042048D01*
X045366Y042048D01*
X045391Y042084D01*
X045399Y042127D01*
X045399Y042127D01*
Y04236D01*
X045438Y042399D01*
X045465Y042465D01*
Y042535D01*
X045438Y042601D01*
X045388Y042651D01*
X045322Y042678D01*
X045252D01*
X045186Y042651D01*
X045136Y042601D01*
X045109Y042535D01*
Y042465D01*
X045136Y042399D01*
X045175Y04236D01*
Y042174D01*
X04388Y040878D01*
X043879Y040878D01*
X043855Y040888D01*
X0438D01*
X042082Y042606D01*
Y043164D01*
X042148Y043181D01*
X042252Y043242D01*
X042338Y043328D01*
X042399Y043432D01*
X04243Y043549D01*
Y043671D01*
X042399Y043788D01*
X042338Y043892D01*
X042252Y043978D01*
X042148Y044039D01*
X042031Y04407D01*
D02*
G37*
G36*
X038348Y040891D02*
X038252D01*
X038158Y040866D01*
X038075Y040818D01*
X038006Y04075D01*
X037958Y040666D01*
X037933Y040573D01*
Y040476D01*
X037958Y040383D01*
X038006Y040299D01*
X038075Y040231D01*
X038158Y040182D01*
X038252Y040157D01*
X038348D01*
X038442Y040182D01*
X038525Y040231D01*
X038594Y040299D01*
X038642Y040383D01*
X038667Y040476D01*
Y040573D01*
X038642Y040666D01*
X038594Y04075D01*
X038525Y040818D01*
X038442Y040866D01*
X038348Y040891D01*
D02*
G37*
G36*
X041015Y041638D02*
X040945D01*
X040879Y041611D01*
X040829Y041561D01*
X040802Y041495D01*
Y041425D01*
X040829Y041359D01*
X040879Y041309D01*
X040945Y041282D01*
X040999D01*
X04177Y040512D01*
Y040401D01*
X041769Y040401D01*
X041742Y040335D01*
Y040265D01*
X041769Y040199D01*
X041819Y040149D01*
X041885Y040122D01*
X041955D01*
X042021Y040149D01*
X042071Y040199D01*
X042098Y040265D01*
Y040335D01*
X042071Y040401D01*
X042021Y040451D01*
X041994Y040462D01*
Y040558D01*
X041994Y040558D01*
X041985Y040601D01*
X041961Y040638D01*
X041158Y041441D01*
Y041495D01*
X041131Y041561D01*
X041081Y041611D01*
X041015Y041638D01*
D02*
G37*
G36*
X040995Y041148D02*
X040925D01*
X040859Y041121D01*
X040809Y041071D01*
X040782Y041005D01*
Y040935D01*
X040809Y040869D01*
X04081Y040869D01*
Y040776D01*
X040801Y040763D01*
X040792Y04072D01*
X040792Y04072D01*
Y04062D01*
X040792Y04062D01*
X040801Y040577D01*
X040825Y040541D01*
X041842Y039524D01*
Y039522D01*
X041869Y039456D01*
X041919Y039406D01*
X041985Y039379D01*
X042055D01*
X042121Y039406D01*
X042171Y039456D01*
X042198Y039522D01*
Y039593D01*
X042171Y039658D01*
X042121Y039708D01*
X042055Y039735D01*
X041985D01*
X041958Y039724D01*
X041016Y040666D01*
Y040681D01*
X041025Y040694D01*
X041034Y040737D01*
X041034Y040737D01*
Y040808D01*
X041061Y040819D01*
X041111Y040869D01*
X041138Y040935D01*
Y041005D01*
X041111Y041071D01*
X041061Y041121D01*
X040995Y041148D01*
D02*
G37*
G36*
X038348Y039801D02*
X038252D01*
X038158Y039776D01*
X038075Y039728D01*
X038006Y039659D01*
X037958Y039576D01*
X037933Y039482D01*
Y039386D01*
X037958Y039292D01*
X038006Y039208D01*
X038075Y03914D01*
X038158Y039092D01*
X038252Y039067D01*
X038348D01*
X038442Y039092D01*
X038525Y03914D01*
X038594Y039208D01*
X038642Y039292D01*
X038667Y039386D01*
Y039482D01*
X038642Y039576D01*
X038594Y039659D01*
X038525Y039728D01*
X038442Y039776D01*
X038348Y039801D01*
D02*
G37*
G36*
X040045Y042458D02*
X039975D01*
X039909Y042431D01*
X039859Y042381D01*
X039832Y042315D01*
Y042245D01*
X039849Y042203D01*
Y038502D01*
X039836Y038471D01*
Y0384D01*
X039863Y038335D01*
X039913Y038285D01*
X039979Y038258D01*
X04005D01*
X040115Y038285D01*
X040165Y038335D01*
X040192Y0384D01*
Y038471D01*
X040175Y038512D01*
Y042214D01*
X040188Y042245D01*
Y042315D01*
X040161Y042381D01*
X040111Y042431D01*
X040045Y042458D01*
D02*
G37*
G36*
X038348Y03871D02*
X038252D01*
X038158Y038685D01*
X038075Y038637D01*
X038006Y038569D01*
X037958Y038485D01*
X037933Y038392D01*
Y038295D01*
X037958Y038202D01*
X038006Y038118D01*
X038075Y03805D01*
X038158Y038001D01*
X038252Y037976D01*
X038348D01*
X038442Y038001D01*
X038525Y03805D01*
X038594Y038118D01*
X038642Y038202D01*
X038667Y038295D01*
Y038392D01*
X038642Y038485D01*
X038594Y038569D01*
X038525Y038637D01*
X038442Y038685D01*
X038348Y03871D01*
D02*
G37*
G36*
X04782Y041775D02*
X04742D01*
X047408Y04177D01*
X04736D01*
Y041722D01*
X047355Y04171D01*
Y03711D01*
X04736Y037098D01*
Y03705D01*
X047408D01*
X04742Y037045D01*
X04782D01*
X047832Y03705D01*
X04788D01*
Y037098D01*
X047885Y03711D01*
Y04171D01*
X04788Y041722D01*
Y04177D01*
X047832D01*
X04782Y041775D01*
D02*
G37*
G36*
X039155Y042288D02*
X039085D01*
X039019Y042261D01*
X038969Y042211D01*
X038942Y042145D01*
Y042075D01*
X038969Y042009D01*
X039008Y04197D01*
Y036998D01*
X039008Y036998D01*
X039016Y036956D01*
X039041Y036919D01*
X039432Y036528D01*
Y036473D01*
X039459Y036408D01*
X039509Y036357D01*
X039575Y03633D01*
X039645D01*
X039711Y036357D01*
X039761Y036408D01*
X039788Y036473D01*
Y036544D01*
X039761Y036609D01*
X039711Y036659D01*
X039645Y036687D01*
X03959D01*
X039232Y037045D01*
Y037125D01*
X039282Y037141D01*
X039305Y037107D01*
X039597Y036815D01*
X03965Y036779D01*
X039712Y036767D01*
X040338D01*
X040375Y036752D01*
X040445D01*
X040511Y036779D01*
X040561Y036829D01*
X040588Y036895D01*
Y036965D01*
X040561Y037031D01*
X040511Y037081D01*
X040445Y037108D01*
X040375D01*
X040338Y037093D01*
X03978D01*
X039648Y037225D01*
Y03725D01*
X039652Y037271D01*
Y037688D01*
X039653Y037692D01*
Y04176D01*
X039715Y041823D01*
X039727Y04184D01*
X039751Y041864D01*
X039778Y04193D01*
Y042D01*
X039751Y042066D01*
X039701Y042116D01*
X039635Y042143D01*
X039565D01*
X039499Y042116D01*
X039449Y042066D01*
X039422Y042D01*
Y04199D01*
X039375Y041943D01*
X039339Y04189D01*
X039327Y041828D01*
Y037696D01*
X039326Y037691D01*
Y03736D01*
X039319Y037353D01*
X039316Y037345D01*
X039305Y037338D01*
X039282Y037304D01*
X039232Y037319D01*
Y04197D01*
X039271Y042009D01*
X039298Y042075D01*
Y042145D01*
X039271Y042211D01*
X039221Y042261D01*
X039155Y042288D01*
D02*
G37*
G36*
X0466Y037064D02*
X046518Y037048D01*
X046448Y037001D01*
X046402Y036932D01*
X046386Y03685D01*
X046402Y036768D01*
X046448Y036699D01*
X046888Y036259D01*
X046958Y036212D01*
X04704Y036196D01*
X04886D01*
X048942Y036212D01*
X049011Y036259D01*
X049058Y036328D01*
X049074Y03641D01*
X049058Y036492D01*
X049011Y036561D01*
X048942Y036608D01*
X04886Y036624D01*
X047128D01*
X046751Y037001D01*
X046682Y037048D01*
X0466Y037064D01*
D02*
G37*
G36*
X038348Y036529D02*
X038252D01*
X038158Y036504D01*
X038075Y036456D01*
X038006Y036388D01*
X037958Y036304D01*
X037933Y036211D01*
Y036114D01*
X037958Y036021D01*
X038006Y035937D01*
X038075Y035868D01*
X038158Y03582D01*
X038252Y035795D01*
X038348D01*
X038442Y03582D01*
X038525Y035868D01*
X038594Y035937D01*
X038642Y036021D01*
X038667Y036114D01*
Y036211D01*
X038642Y036304D01*
X038594Y036388D01*
X038525Y036456D01*
X038442Y036504D01*
X038348Y036529D01*
D02*
G37*
G36*
X041045Y042848D02*
X040975D01*
X040909Y042821D01*
X040859Y042771D01*
X040837Y042718D01*
X040445Y042325D01*
X040409Y042272D01*
X040397Y04221D01*
Y03744D01*
X040409Y037378D01*
X040445Y037325D01*
X040647Y037122D01*
Y035558D01*
X040475Y035385D01*
X040465Y035371D01*
X040465Y035371D01*
X040413D01*
X038648Y037135D01*
X038667Y037204D01*
Y037301D01*
X038642Y037394D01*
X038594Y037478D01*
X038525Y037547D01*
X038442Y037595D01*
X038348Y03762D01*
X038252D01*
X038158Y037595D01*
X038075Y037547D01*
X038006Y037478D01*
X037958Y037394D01*
X037933Y037301D01*
Y037204D01*
X037958Y037111D01*
X038006Y037027D01*
X038075Y036959D01*
X038158Y036911D01*
X038252Y036886D01*
X038348D01*
X038418Y036904D01*
X04023Y035092D01*
X040283Y035057D01*
X040345Y035044D01*
X040432D01*
X040439Y035037D01*
X040505Y03501D01*
X040575D01*
X040641Y035037D01*
X040691Y035087D01*
X040718Y035153D01*
Y035167D01*
X040925Y035375D01*
X040961Y035428D01*
X040973Y03549D01*
Y03719D01*
X040961Y037252D01*
X040925Y037305D01*
X040723Y037508D01*
Y042142D01*
X041092Y042511D01*
X041111Y042519D01*
X041161Y042569D01*
X041188Y042635D01*
Y042705D01*
X041161Y042771D01*
X041111Y042821D01*
X041045Y042848D01*
D02*
G37*
G36*
X038348Y035439D02*
X038252D01*
X038158Y035414D01*
X038075Y035365D01*
X038006Y035297D01*
X037958Y035213D01*
X037933Y03512D01*
Y035023D01*
X037958Y03493D01*
X038006Y034846D01*
X038075Y034778D01*
X038158Y03473D01*
X038252Y034705D01*
X038348D01*
X038442Y03473D01*
X038525Y034778D01*
X038594Y034846D01*
X038642Y03493D01*
X038667Y035023D01*
Y03512D01*
X038642Y035213D01*
X038594Y035297D01*
X038525Y035365D01*
X038442Y035414D01*
X038348Y035439D01*
D02*
G37*
G36*
Y034348D02*
X038252D01*
X038158Y034323D01*
X038075Y034275D01*
X038006Y034207D01*
X037958Y034123D01*
X037933Y034029D01*
Y033933D01*
X037958Y033839D01*
X038006Y033756D01*
X038075Y033687D01*
X038158Y033639D01*
X038252Y033614D01*
X038348D01*
X038442Y033639D01*
X038525Y033687D01*
X038594Y033756D01*
X038642Y033839D01*
X038667Y033933D01*
Y034029D01*
X038642Y034123D01*
X038594Y034207D01*
X038525Y034275D01*
X038442Y034323D01*
X038348Y034348D01*
D02*
G37*
G36*
X040179Y033972D02*
X040108D01*
X040043Y033945D01*
X039993Y033895D01*
X039966Y033829D01*
Y033758D01*
X039993Y033693D01*
X040043Y033643D01*
X040108Y033616D01*
X040179D01*
X040245Y033643D01*
X040283Y033682D01*
X042235D01*
X042332Y033585D01*
Y033562D01*
X042359Y033497D01*
X042409Y033447D01*
X042475Y03342D01*
X042545D01*
X042611Y033447D01*
X042661Y033497D01*
X042688Y033562D01*
Y033633D01*
X042661Y033699D01*
X042611Y033749D01*
X042545Y033776D01*
X042475D01*
X042463Y033771D01*
X042361Y033873D01*
X042324Y033897D01*
X042282Y033906D01*
X042282Y033906D01*
X040283D01*
X040245Y033945D01*
X040179Y033972D01*
D02*
G37*
G36*
X053182Y035444D02*
X053018D01*
X052855Y035419D01*
X052699Y035368D01*
X052553Y035293D01*
X05242Y035197D01*
X052303Y03508D01*
X052207Y034947D01*
X052132Y034801D01*
X052081Y034645D01*
X052056Y034482D01*
Y034318D01*
X052081Y034155D01*
X052132Y033999D01*
X052207Y033853D01*
X052303Y03372D01*
X05242Y033603D01*
X052553Y033507D01*
X052699Y033432D01*
X052855Y033381D01*
X053018Y033356D01*
X053182D01*
X053345Y033381D01*
X053501Y033432D01*
X053647Y033507D01*
X05378Y033603D01*
X053897Y03372D01*
X053993Y033853D01*
X054068Y033999D01*
X054119Y034155D01*
X054144Y034318D01*
Y034482D01*
X054119Y034645D01*
X054068Y034801D01*
X053993Y034947D01*
X053897Y03508D01*
X05378Y035197D01*
X053647Y035293D01*
X053501Y035368D01*
X053345Y035419D01*
X053182Y035444D01*
D02*
G37*
G36*
X041157Y03319D02*
X041086D01*
X041021Y033163D01*
X040997Y033139D01*
X040979Y033127D01*
X040963Y033111D01*
X03993D01*
X039893Y033126D01*
X039823D01*
X039757Y033099D01*
X039707Y033049D01*
X03968Y032983D01*
Y032913D01*
X039707Y032847D01*
X039757Y032797D01*
X039823Y03277D01*
X039893D01*
X03993Y032785D01*
X04103D01*
X041093Y032797D01*
X041146Y032833D01*
X041147Y032834D01*
X041157D01*
X041222Y032861D01*
X041272Y032911D01*
X0413Y032977D01*
Y033047D01*
X041272Y033113D01*
X041222Y033163D01*
X041157Y03319D01*
D02*
G37*
G36*
X038348Y033258D02*
X038252D01*
X038158Y033233D01*
X038075Y033184D01*
X038006Y033116D01*
X037958Y033032D01*
X037933Y032939D01*
Y032842D01*
X037958Y032749D01*
X038006Y032665D01*
X038075Y032597D01*
X038158Y032548D01*
X038252Y032523D01*
X038348D01*
X038442Y032548D01*
X038525Y032597D01*
X038594Y032665D01*
X038642Y032749D01*
X038667Y032842D01*
Y032939D01*
X038642Y033032D01*
X038594Y033116D01*
X038525Y033184D01*
X038442Y033233D01*
X038348Y033258D01*
D02*
G37*
G36*
X042Y03281D02*
X041879D01*
X041762Y032779D01*
X041657Y032718D01*
X041572Y032632D01*
X041511Y032528D01*
X04148Y032411D01*
Y032289D01*
X041511Y032172D01*
X041572Y032068D01*
X041657Y031982D01*
X041762Y031921D01*
X041879Y03189D01*
X042D01*
X042117Y031921D01*
X042222Y031982D01*
X042308Y032068D01*
X042368Y032172D01*
X0424Y032289D01*
Y032411D01*
X042368Y032528D01*
X042308Y032632D01*
X042222Y032718D01*
X042117Y032779D01*
X042Y03281D01*
D02*
G37*
G36*
X038667Y032167D02*
X037933D01*
Y031433D01*
X038667D01*
Y032167D01*
D02*
G37*
G36*
X050029Y032006D02*
X049931D01*
X049835Y03198D01*
X04975Y031931D01*
X04968Y031861D01*
X049631Y031776D01*
X049605Y03168D01*
Y031582D01*
X049631Y031486D01*
X04968Y031401D01*
X04975Y031331D01*
X049835Y031282D01*
X049931Y031256D01*
X050029D01*
X050125Y031282D01*
X05021Y031331D01*
X05023Y031351D01*
X05028Y031401D01*
X050329Y031486D01*
X050355Y031582D01*
Y03168D01*
X050329Y031776D01*
X05028Y031861D01*
X05023Y031911D01*
X05021Y031931D01*
X050125Y03198D01*
X050029Y032006D01*
D02*
G37*
G36*
X042001Y03129D02*
X041879D01*
X041762Y031259D01*
X041658Y031198D01*
X041572Y031112D01*
X041511Y031008D01*
X04148Y030891D01*
Y030769D01*
X041511Y030652D01*
X041572Y030548D01*
X041658Y030462D01*
X041762Y030401D01*
X041879Y03037D01*
X042001D01*
X042118Y030401D01*
X042222Y030462D01*
X042308Y030548D01*
X042369Y030652D01*
X0424Y030769D01*
Y030891D01*
X042369Y031008D01*
X042308Y031112D01*
X042222Y031198D01*
X042118Y031259D01*
X042001Y03129D01*
D02*
G37*
G36*
X050725Y029498D02*
X050655D01*
X050589Y029471D01*
X050539Y029421D01*
X050517Y029367D01*
X050507Y029361D01*
X049516Y02837D01*
X049492Y028334D01*
X049484Y028291D01*
X049484Y028291D01*
Y02828D01*
X049457Y028269D01*
X049407Y028218D01*
X049379Y028153D01*
Y028082D01*
X049407Y028017D01*
X049445Y027978D01*
Y025422D01*
X049426Y025403D01*
X049399Y025338D01*
Y025267D01*
X049426Y025202D01*
X049477Y025152D01*
X049542Y025124D01*
X049613D01*
X049678Y025152D01*
X049728Y025202D01*
X049756Y025267D01*
Y025338D01*
X049728Y025403D01*
X049678Y025454D01*
X04967Y025457D01*
Y027978D01*
X049709Y028017D01*
X049736Y028082D01*
Y028153D01*
X049709Y028218D01*
X049725Y028262D01*
X05062Y029156D01*
X050655Y029142D01*
X050725D01*
X050791Y029169D01*
X050841Y029219D01*
X050868Y029285D01*
Y029355D01*
X050841Y029421D01*
X050791Y029471D01*
X050725Y029498D01*
D02*
G37*
G36*
X040755Y028848D02*
X040685D01*
X040619Y028821D01*
X040569Y028771D01*
X040542Y028705D01*
Y028705D01*
X040479Y028642D01*
X03925D01*
X039211Y028681D01*
X039145Y028708D01*
X039075D01*
X039009Y028681D01*
X038959Y028631D01*
X038932Y028565D01*
Y028495D01*
X038959Y028429D01*
X039009Y028379D01*
X039075Y028352D01*
X039145D01*
X039211Y028379D01*
X03925Y028418D01*
X040526D01*
X040526Y028418D01*
X040569Y028426D01*
X040605Y028451D01*
X040658Y028503D01*
X040685Y028492D01*
X040755D01*
X040821Y028519D01*
X040871Y028569D01*
X040898Y028635D01*
Y028705D01*
X040871Y028771D01*
X040821Y028821D01*
X040755Y028848D01*
D02*
G37*
G36*
X040355Y028198D02*
X040285D01*
X040248Y028183D01*
X038792D01*
X038755Y028198D01*
X038685D01*
X038619Y028171D01*
X038569Y028121D01*
X038542Y028055D01*
Y027985D01*
X038569Y027919D01*
X038619Y027869D01*
X038685Y027842D01*
X038755D01*
X038792Y027857D01*
X040248D01*
X040285Y027842D01*
X040355D01*
X040421Y027869D01*
X040471Y027919D01*
X040498Y027985D01*
Y028055D01*
X040471Y028121D01*
X040421Y028171D01*
X040355Y028198D01*
D02*
G37*
G36*
X037823Y030128D02*
X037659D01*
X037496Y030102D01*
X03734Y030051D01*
X037194Y029977D01*
X037061Y02988D01*
X036944Y029764D01*
X036848Y029631D01*
X036773Y029484D01*
X036722Y029328D01*
X036697Y029166D01*
Y029001D01*
X036722Y028839D01*
X036773Y028683D01*
X036848Y028536D01*
X036944Y028403D01*
X037061Y028287D01*
X037194Y02819D01*
X03734Y028116D01*
X037496Y028065D01*
X037659Y028039D01*
X037823D01*
X037985Y028065D01*
X038142Y028116D01*
X038288Y02819D01*
X038421Y028287D01*
X038537Y028403D01*
X038634Y028536D01*
X038709Y028683D01*
X038759Y028839D01*
X038785Y029001D01*
Y029166D01*
X038759Y029328D01*
X038709Y029484D01*
X038634Y029631D01*
X038537Y029764D01*
X038421Y02988D01*
X038288Y029977D01*
X038142Y030051D01*
X037985Y030102D01*
X037823Y030128D01*
D02*
G37*
G36*
X042001Y02819D02*
X041879D01*
X041762Y028159D01*
X041658Y028098D01*
X041572Y028012D01*
X041511Y027908D01*
X04148Y027791D01*
Y027669D01*
X041511Y027552D01*
X041572Y027448D01*
X041658Y027362D01*
X041762Y027301D01*
X041879Y02727D01*
X042001D01*
X042118Y027301D01*
X042222Y027362D01*
X042308Y027448D01*
X042369Y027552D01*
X0424Y027669D01*
Y027791D01*
X042369Y027908D01*
X042308Y028012D01*
X042222Y028098D01*
X042118Y028159D01*
X042001Y02819D01*
D02*
G37*
G36*
X044505Y026741D02*
X044435D01*
X044369Y026714D01*
X044319Y026664D01*
X044292Y026599D01*
Y026528D01*
X044319Y026462D01*
X044369Y026412D01*
X044435Y026385D01*
X044505D01*
X044571Y026412D01*
X04461Y026451D01*
X044747D01*
X044758Y026441D01*
X044794Y026416D01*
X044837Y026408D01*
X044837Y026408D01*
X047568D01*
X047626Y026349D01*
Y026295D01*
X047653Y026229D01*
X047692Y02619D01*
X047667Y026144D01*
X047648Y026148D01*
X047648Y026148D01*
X046351D01*
X046308Y02614D01*
X046272Y026115D01*
X046272Y026115D01*
X045507Y02535D01*
X045452D01*
X045386Y025323D01*
X045336Y025273D01*
X045309Y025207D01*
Y025137D01*
X045336Y025071D01*
X045386Y025021D01*
X045452Y024994D01*
X045523D01*
X045588Y025021D01*
X045638Y025071D01*
X045665Y025137D01*
Y025192D01*
X046397Y025924D01*
X047602D01*
X047619Y025907D01*
X047619Y025907D01*
X047656Y025882D01*
X047698Y025874D01*
X047698Y025874D01*
X047853D01*
X047894Y025832D01*
X047893Y025817D01*
X04788Y025782D01*
X04648D01*
X04648Y025782D01*
X046437Y025774D01*
X046401Y025749D01*
X045474Y024822D01*
X04523D01*
X045191Y024861D01*
X045125Y024888D01*
X045055D01*
X044989Y024861D01*
X044939Y024811D01*
X044912Y024745D01*
Y024675D01*
X044939Y024609D01*
X044989Y024559D01*
X045055Y024532D01*
X045125D01*
X045191Y024559D01*
X04523Y024598D01*
X04552D01*
X04552Y024598D01*
X045563Y024606D01*
X045599Y024631D01*
X046526Y025558D01*
X048286D01*
X048325Y025542D01*
X048395D01*
X048461Y025569D01*
X048511Y025619D01*
X048538Y025685D01*
Y025755D01*
X048511Y025821D01*
X048461Y025871D01*
X048395Y025898D01*
X048325D01*
X048259Y025871D01*
X048209Y025821D01*
X048193Y025782D01*
X048117D01*
X048104Y025817D01*
X048103Y025832D01*
X048149Y025879D01*
X048177Y025944D01*
Y026015D01*
X048149Y026081D01*
X048099Y026131D01*
X048034Y026158D01*
X047963D01*
X047949Y026152D01*
X047921Y026195D01*
X047955Y026229D01*
X047983Y026295D01*
Y026365D01*
X047955Y026431D01*
X047905Y026481D01*
X04784Y026508D01*
X047785D01*
X047694Y026599D01*
X047657Y026624D01*
X047614Y026632D01*
X047614Y026632D01*
X044883D01*
X044873Y026643D01*
X044836Y026667D01*
X044794Y026675D01*
X044794Y026675D01*
X04461D01*
X044571Y026714D01*
X044505Y026741D01*
D02*
G37*
G36*
X050075Y028418D02*
X050005D01*
X049939Y028391D01*
X049889Y028341D01*
X049862Y028275D01*
Y028205D01*
X049889Y028139D01*
X049928Y0281D01*
Y026634D01*
X049911Y026617D01*
X049886Y026581D01*
X049878Y026538D01*
X049878Y026538D01*
Y025296D01*
X049881Y025281D01*
Y025261D01*
X049908Y025195D01*
X049958Y025145D01*
X050023Y025118D01*
X050094D01*
X05016Y025145D01*
X05021Y025195D01*
X050237Y025261D01*
Y025332D01*
X05021Y025397D01*
X05016Y025447D01*
X050102Y025471D01*
Y026491D01*
X050119Y026509D01*
X050119Y026509D01*
X050144Y026545D01*
X050152Y026588D01*
X050152Y026588D01*
Y0281D01*
X050191Y028139D01*
X050218Y028205D01*
Y028275D01*
X050191Y028341D01*
X050141Y028391D01*
X050075Y028418D01*
D02*
G37*
G36*
X04919Y024523D02*
X04912D01*
X049054Y024496D01*
X049004Y024446D01*
X048977Y02438D01*
Y024325D01*
X048603Y023952D01*
X048579Y023916D01*
X048573Y023888D01*
X048544Y023875D01*
X048493Y023825D01*
X048466Y02376D01*
Y023689D01*
X048493Y023623D01*
X048544Y023573D01*
X048609Y023546D01*
X04868D01*
X048745Y023573D01*
X048795Y023623D01*
X048823Y023689D01*
Y02376D01*
X048795Y023825D01*
X048795Y023826D01*
Y023826D01*
X049135Y024167D01*
X04919D01*
X049256Y024194D01*
X049306Y024244D01*
X049333Y02431D01*
Y02438D01*
X049306Y024446D01*
X049256Y024496D01*
X04919Y024523D01*
D02*
G37*
G36*
X058955Y023805D02*
X058245D01*
Y023095D01*
X058955D01*
Y023805D01*
D02*
G37*
G36*
X046225Y023849D02*
X046155D01*
X046089Y023822D01*
X046039Y023772D01*
X046012Y023706D01*
Y023636D01*
X046039Y02357D01*
X046089Y02352D01*
X046155Y023493D01*
X04621D01*
X047218Y022485D01*
X047218Y022485D01*
X047254Y022461D01*
X047297Y022452D01*
X051564D01*
X051564Y022452D01*
X051606Y022461D01*
X051643Y022485D01*
X051863Y022705D01*
X051917D01*
X051983Y022732D01*
X052033Y022782D01*
X052036Y02279D01*
X052087D01*
X052087Y02279D01*
X05213Y022798D01*
X052166Y022822D01*
X052549Y023205D01*
X052604D01*
X052669Y023232D01*
X052719Y023282D01*
X052746Y023348D01*
Y023418D01*
X052719Y023484D01*
X052669Y023534D01*
X052604Y023561D01*
X052533D01*
X052467Y023534D01*
X052417Y023484D01*
X05239Y023418D01*
Y023363D01*
X052041Y023014D01*
X052003D01*
X051983Y023034D01*
X051917Y023061D01*
X051847D01*
X051781Y023034D01*
X051731Y022984D01*
X051704Y022918D01*
Y022863D01*
X051517Y022676D01*
X047343D01*
X046368Y023652D01*
Y023706D01*
X046341Y023772D01*
X046291Y023822D01*
X046225Y023849D01*
D02*
G37*
G36*
X051599Y024918D02*
X051528D01*
X051463Y024891D01*
X051413Y024841D01*
X051385Y024775D01*
Y024705D01*
X051413Y024639D01*
X051463Y024589D01*
X051528Y024562D01*
X051583D01*
X052491Y023654D01*
X052491Y023654D01*
X052528Y023629D01*
X052571Y023621D01*
X052571Y023621D01*
X052667D01*
X053078Y02321D01*
Y022933D01*
X053078Y022933D01*
X053081Y022917D01*
Y021888D01*
X053042Y021849D01*
X053015Y021783D01*
Y021713D01*
X053042Y021647D01*
X053092Y021597D01*
X053158Y02157D01*
X053229D01*
X053294Y021597D01*
X053344Y021647D01*
X053371Y021713D01*
Y021783D01*
X053344Y021849D01*
X053305Y021888D01*
Y022818D01*
X0538D01*
X053839Y022779D01*
X053904Y022752D01*
X053975D01*
X054041Y022779D01*
X054091Y022829D01*
X054118Y022895D01*
Y022965D01*
X054091Y023031D01*
X054041Y023081D01*
X053975Y023108D01*
X053904D01*
X053839Y023081D01*
X0538Y023042D01*
X053302D01*
Y023256D01*
X053302Y023256D01*
X053294Y023299D01*
X053269Y023336D01*
X053269Y023336D01*
X052793Y023812D01*
X052756Y023837D01*
X052713Y023845D01*
X052713Y023845D01*
X052617D01*
X051742Y02472D01*
Y024775D01*
X051715Y024841D01*
X051664Y024891D01*
X051599Y024918D01*
D02*
G37*
%LPD*%
D10*
X047614Y02652D02*
X047804Y02633D01*
X044837Y02652D02*
X047614D01*
X047648Y026036D02*
X047698Y025986D01*
X047992D01*
X047998Y02598D01*
X046351Y026036D02*
X047648D01*
X040526Y02853D02*
X040666Y02867D01*
X04072D01*
X03911Y02853D02*
X040526D01*
X045287Y042127D02*
Y0425D01*
X043857Y04071D02*
X043921Y040774D01*
X043934D02*
X045287Y042127D01*
X04382Y04071D02*
X043857D01*
X043921Y040774D02*
X043934D01*
X043Y04203D02*
X04382Y04121D01*
X04447Y026563D02*
X044794D01*
X044837Y02652D01*
X048683Y023762D02*
Y023873D01*
X049155Y024345D01*
X048644Y023724D02*
X048683Y023762D01*
X03912Y036998D02*
Y04211D01*
Y036998D02*
X03961Y036508D01*
X042282Y033794D02*
X042477Y033598D01*
X040144Y033794D02*
X042282D01*
X042477Y033598D02*
X04251D01*
X04197Y04641D02*
X043Y04538D01*
Y04203D02*
Y04538D01*
X04197Y04256D02*
X04382Y04071D01*
X04197Y04256D02*
Y04361D01*
X05173Y0426D02*
Y04316D01*
X05092Y04179D02*
X05173Y0426D01*
X040904Y04062D02*
Y04072D01*
X040922Y040737D01*
Y040932D01*
X04096Y04097D01*
X040904Y04062D02*
X041967Y039557D01*
X04098Y04146D02*
X041882Y040558D01*
Y040338D02*
X04192Y0403D01*
X041882Y040338D02*
Y040558D01*
X041967Y039557D02*
X04202D01*
X04509Y02471D02*
X04552D01*
X04648Y02567D01*
X04831D02*
X04836Y02572D01*
X04648Y02567D02*
X04831D01*
X045487Y025172D02*
X046351Y026036D01*
X047297Y022564D02*
X051564D01*
X051882Y022883D01*
X051882D01*
X051901Y022902D01*
X04619Y023671D02*
X047297Y022564D01*
X052087Y022902D02*
X052568Y023383D01*
X051901Y022902D02*
X052087D01*
X05319Y022933D02*
Y023256D01*
X052713Y023733D02*
X05319Y023256D01*
Y022933D02*
X053193Y02293D01*
X051564Y02474D02*
X052571Y023733D01*
X052713D01*
X053193Y02293D02*
X05394D01*
X053193Y021748D02*
Y02293D01*
X049558Y025322D02*
Y028118D01*
Y025322D02*
X049577Y025303D01*
X04999Y025296D02*
X050059D01*
X04999D02*
Y026538D01*
X049558Y028118D02*
X049596Y028156D01*
Y028291D01*
X050587Y029282D01*
X050652D01*
X05069Y02932D01*
X04999Y026538D02*
X05004Y026588D01*
Y02824D01*
X054272Y023158D02*
Y023997D01*
Y023158D02*
X05471Y02272D01*
X054272Y023997D02*
X054475Y0242D01*
X05471Y02212D02*
Y02272D01*
D18*
X07995Y046219D02*
D03*
Y0474D02*
D03*
X0799Y029431D02*
D03*
Y02825D02*
D03*
X0789D02*
D03*
Y029431D02*
D03*
X07895Y0474D02*
D03*
Y046219D02*
D03*
D32*
X06007Y032512D02*
D03*
X060533Y032682D02*
D03*
X061058D02*
D03*
X061583D02*
D03*
X062108D02*
D03*
X062571Y032512D02*
D03*
X062857Y032118D02*
D03*
Y031632D02*
D03*
X062571Y031238D02*
D03*
X062108Y031068D02*
D03*
X061583D02*
D03*
X061058D02*
D03*
X06007Y031238D02*
D03*
X059784Y031632D02*
D03*
X058634Y032512D02*
D03*
X058171Y032682D02*
D03*
X057646D02*
D03*
X057121D02*
D03*
X056596D02*
D03*
X056133Y032512D02*
D03*
X055847Y032118D02*
D03*
Y031632D02*
D03*
X056133Y031238D02*
D03*
X056596Y031068D02*
D03*
X057121D02*
D03*
X057646D02*
D03*
X058171D02*
D03*
X058634Y031238D02*
D03*
X05892Y031632D02*
D03*
Y032118D02*
D03*
X059784D02*
D03*
X060533Y031068D02*
D03*
X071812Y02218D02*
D03*
X071982Y021717D02*
D03*
Y021192D02*
D03*
Y020667D02*
D03*
Y020142D02*
D03*
X071812Y019679D02*
D03*
X071418Y019393D02*
D03*
X070932D02*
D03*
X070538Y019679D02*
D03*
X070368Y020142D02*
D03*
Y020667D02*
D03*
Y021192D02*
D03*
X070538Y02218D02*
D03*
X070932Y022466D02*
D03*
X071812Y023616D02*
D03*
X071982Y024079D02*
D03*
Y024604D02*
D03*
Y025129D02*
D03*
Y025654D02*
D03*
X071812Y026117D02*
D03*
X071418Y026403D02*
D03*
X070932D02*
D03*
X070538Y026117D02*
D03*
X070368Y025654D02*
D03*
Y025129D02*
D03*
Y024604D02*
D03*
Y024079D02*
D03*
X070538Y023616D02*
D03*
X070932Y02333D02*
D03*
X071418D02*
D03*
Y022466D02*
D03*
X070368Y021717D02*
D03*
X071812Y052029D02*
D03*
X071982Y051566D02*
D03*
Y051041D02*
D03*
Y050516D02*
D03*
Y049991D02*
D03*
X071812Y049528D02*
D03*
X071418Y049243D02*
D03*
X070932D02*
D03*
X070538Y049528D02*
D03*
X070368Y049991D02*
D03*
Y050516D02*
D03*
Y051041D02*
D03*
X070538Y052029D02*
D03*
X070932Y052315D02*
D03*
X071812Y053465D02*
D03*
X071982Y053928D02*
D03*
Y054453D02*
D03*
Y054978D02*
D03*
Y055503D02*
D03*
X071812Y055966D02*
D03*
X071418Y056252D02*
D03*
X070932D02*
D03*
X070538Y055966D02*
D03*
X070368Y055503D02*
D03*
Y054978D02*
D03*
Y054453D02*
D03*
Y053928D02*
D03*
X070538Y053465D02*
D03*
X070932Y05318D02*
D03*
X071418D02*
D03*
Y052315D02*
D03*
X070368Y051566D02*
D03*
D41*
X06315Y04735D02*
D03*
Y04613D02*
D03*
X0625Y02828D02*
D03*
Y0295D02*
D03*
X06745Y02942D02*
D03*
Y0282D02*
D03*
X0727Y02942D02*
D03*
Y0282D02*
D03*
Y04613D02*
D03*
Y04735D02*
D03*
X06745Y04613D02*
D03*
Y04735D02*
D03*
D122*
X06363Y05664D02*
X06382D01*
X06084Y05584D02*
X06269D01*
X06028D02*
X06084D01*
X0635Y05664D02*
X06363D01*
X06269Y05584D02*
X06345Y0566D01*
D124*
X06194Y05449D02*
X061945Y054485D01*
Y054155D02*
Y054485D01*
X06195Y05225D02*
Y05415D01*
X061945Y054155D02*
X06195Y05415D01*
X04709Y04591D02*
X04885D01*
X046452Y045272D02*
X04709Y04591D01*
X04676Y04464D02*
X04678D01*
X062155Y052045D02*
X0627D01*
X06195Y05225D02*
X062155Y052045D01*
X0627D02*
X06275Y051995D01*
X03949Y041828D02*
X0396Y041938D01*
X039489Y037691D02*
X03949Y037692D01*
Y041828D01*
X0396Y041938D02*
Y041965D01*
X0383Y037253D02*
X040345Y035207D01*
X040521D02*
X04054Y035188D01*
X040345Y035207D02*
X040521D01*
X03947Y037252D02*
X039489Y037271D01*
X03942Y037222D02*
X039712Y03693D01*
X039489Y037271D02*
Y037691D01*
X039712Y03693D02*
X04041D01*
X05092Y04179D02*
X051013Y041698D01*
X049513Y043197D02*
X05092Y04179D01*
X042436Y019509D02*
X04988D01*
X03991Y022035D02*
X042436Y019509D01*
X0423Y01915D02*
X06072D01*
X0393Y02215D02*
Y02479D01*
Y02215D02*
X0423Y01915D01*
X03991Y022035D02*
Y0253D01*
X06195Y02038D02*
Y021346D01*
X06072Y01915D02*
X06195Y02038D01*
X03879Y0258D02*
X0393Y02529D01*
Y02479D02*
Y02529D01*
X03991Y0253D02*
X04043Y02582D01*
X04988Y019509D02*
Y01983D01*
X04056Y04221D02*
X04101Y04266D01*
X04056Y03744D02*
Y04221D01*
Y03744D02*
X04081Y03719D01*
X04101Y04266D02*
Y04267D01*
X040012Y038438D02*
Y042278D01*
X04001Y04228D02*
X040012Y042278D01*
X039461Y052279D02*
X03948Y05226D01*
X039341Y052279D02*
X039461D01*
X03932Y0523D02*
X039341Y052279D01*
X038432Y0523D02*
X03932D01*
X040012Y038438D02*
X040014Y038436D01*
X04103Y032948D02*
X041094Y033012D01*
X039858Y032948D02*
X04103D01*
X041094Y033012D02*
X041121D01*
X03872Y02802D02*
X04032D01*
X04081Y03549D02*
Y03719D01*
X04059Y035265D02*
Y03527D01*
X04054Y035188D02*
Y035215D01*
X04059Y035265D01*
Y03527D02*
X04081Y03549D01*
X03879Y0258D02*
Y02593D01*
X049889Y0195D02*
X05351D01*
X054475Y0242D02*
X05689D01*
X05396D02*
X054475D01*
X05274D02*
X05396D01*
X05396Y0242D01*
X05689Y0242D02*
X05761Y02348D01*
X05231Y02463D02*
X05274Y0242D01*
X05351Y0195D02*
X05619D01*
X05676Y02007D01*
X05619Y0195D02*
X06032D01*
X060779Y019959D01*
X05351Y0195D02*
Y01991D01*
X060779Y019959D02*
Y022775D01*
X060104Y02345D02*
X060779Y022775D01*
X051013Y039597D02*
Y041698D01*
X0502Y0547D02*
X0505D01*
X04825Y05515D02*
X04975D01*
X0502Y0547D01*
X06195Y021346D02*
X06275Y022146D01*
D126*
X04678Y04464D02*
X04761Y04547D01*
X04908D01*
D127*
X0594Y055306D02*
X059596Y05511D01*
X06244D01*
X06275Y0548D01*
Y053499D02*
Y0548D01*
X0594Y055306D02*
Y05643D01*
X0466Y03685D02*
X04704Y03641D01*
X04886D01*
D130*
X07625Y0194D02*
D03*
X0531Y0268D02*
D03*
X0369Y0194D02*
D03*
Y05615D02*
D03*
X07625D02*
D03*
D131*
X079387Y03045D02*
D03*
X079387Y0452D02*
D03*
X0794Y04875D02*
D03*
X04194Y03235D02*
D03*
X04194Y03083D02*
D03*
Y02928D02*
D03*
Y02773D02*
D03*
Y02622D02*
D03*
X04197Y04361D02*
D03*
Y04499D02*
D03*
Y04641D02*
D03*
Y04781D02*
D03*
X0794Y02725D02*
D03*
X04015Y053D02*
D03*
D132*
X061399Y0319D02*
D03*
X05735D02*
D03*
D133*
X060104Y02345D02*
D03*
X059352D02*
D03*
X06275Y022146D02*
D03*
Y022898D02*
D03*
X04524Y04698D02*
D03*
X04724D02*
D03*
X04924D02*
D03*
X06275Y051995D02*
D03*
Y052747D02*
D03*
D134*
X0586Y02345D02*
D03*
X04424Y04698D02*
D03*
D135*
X0427Y05389D02*
D03*
X0437D02*
D03*
X04998Y031631D02*
D03*
Y033009D02*
D03*
X058079Y05603D02*
D03*
X056701D02*
D03*
D136*
X0712Y020851D02*
D03*
Y0249D02*
D03*
Y0507D02*
D03*
Y054749D02*
D03*
D137*
X06275Y02365D02*
D03*
Y053499D02*
D03*
D138*
X04296Y05078D02*
D03*
Y04978D02*
D03*
D139*
X0383Y0318D02*
D03*
D140*
Y032891D02*
D03*
Y033981D02*
D03*
Y035072D02*
D03*
Y036162D02*
D03*
Y037253D02*
D03*
Y038343D02*
D03*
Y039434D02*
D03*
Y040524D02*
D03*
Y041615D02*
D03*
Y042706D02*
D03*
Y043796D02*
D03*
X037182Y032345D02*
D03*
Y033436D02*
D03*
Y034526D02*
D03*
Y035617D02*
D03*
Y036707D02*
D03*
Y037798D02*
D03*
Y038889D02*
D03*
Y039979D02*
D03*
Y04107D02*
D03*
Y043251D02*
D03*
Y044341D02*
D03*
Y04216D02*
D03*
X0383Y044887D02*
D03*
D141*
X037741Y047603D02*
D03*
Y029083D02*
D03*
X0531Y0399D02*
D03*
Y0344D02*
D03*
D142*
Y04905D02*
D03*
D143*
X0753Y029818D02*
D03*
X07005D02*
D03*
X0648D02*
D03*
X0753Y045781D02*
D03*
X07005D02*
D03*
X0648D02*
D03*
D144*
X0753Y02785D02*
D03*
X07005D02*
D03*
X0648D02*
D03*
X0753Y04775D02*
D03*
X07005D02*
D03*
X0648D02*
D03*
D145*
X08265Y0191D02*
D03*
Y05645D02*
D03*
D146*
X08145Y05205D02*
D03*
Y0418D02*
D03*
Y0339D02*
D03*
Y0235D02*
D03*
D147*
X04762Y03941D02*
D03*
D148*
X08325Y045D02*
D03*
X083Y0445D02*
D03*
X08325Y044D02*
D03*
X083Y0435D02*
D03*
X08325Y04D02*
D03*
X083Y0395D02*
D03*
X08325Y039D02*
D03*
X083Y0385D02*
D03*
X08325Y038D02*
D03*
X083Y0375D02*
D03*
X08325Y037D02*
D03*
X083Y0365D02*
D03*
X08325Y036D02*
D03*
X083Y0355D02*
D03*
X08325Y032D02*
D03*
X083Y0315D02*
D03*
X0825Y0455D02*
D03*
X08275Y045D02*
D03*
X0825Y0445D02*
D03*
X08275Y044D02*
D03*
Y04D02*
D03*
X0825Y0395D02*
D03*
X08275Y039D02*
D03*
X0825Y0385D02*
D03*
X08275Y038D02*
D03*
X0825Y0375D02*
D03*
X08275Y037D02*
D03*
X0825Y0365D02*
D03*
X08275Y036D02*
D03*
Y032D02*
D03*
X0825Y0315D02*
D03*
X08275Y031D02*
D03*
X0825Y0305D02*
D03*
X08225Y046D02*
D03*
X082Y0455D02*
D03*
X08225Y045D02*
D03*
X082Y0445D02*
D03*
X08225Y044D02*
D03*
X082Y0395D02*
D03*
X08225Y039D02*
D03*
X082Y0385D02*
D03*
X08225Y038D02*
D03*
X082Y0375D02*
D03*
X08225Y037D02*
D03*
X082Y0365D02*
D03*
X08225Y036D02*
D03*
X082Y0315D02*
D03*
X08225Y031D02*
D03*
X082Y0305D02*
D03*
X08175Y046D02*
D03*
X0815Y0455D02*
D03*
X08175Y045D02*
D03*
X0815Y0445D02*
D03*
X08175Y044D02*
D03*
X0815Y0395D02*
D03*
X08175Y039D02*
D03*
X0815Y0385D02*
D03*
X08175Y038D02*
D03*
X0815Y0375D02*
D03*
X08175Y037D02*
D03*
X0815Y0365D02*
D03*
Y0315D02*
D03*
X08175Y031D02*
D03*
X0815Y0305D02*
D03*
X08175Y03D02*
D03*
X0815Y0295D02*
D03*
X08125Y046D02*
D03*
X081Y0455D02*
D03*
X08125Y045D02*
D03*
X081Y0445D02*
D03*
X08125Y044D02*
D03*
X081Y0395D02*
D03*
X08125Y039D02*
D03*
X081Y0385D02*
D03*
X08125Y038D02*
D03*
X081Y0375D02*
D03*
X08125Y037D02*
D03*
X081Y0365D02*
D03*
Y0315D02*
D03*
X08125Y031D02*
D03*
X081Y0305D02*
D03*
X08125Y03D02*
D03*
X081Y0295D02*
D03*
X0805Y0455D02*
D03*
X08075Y045D02*
D03*
X0805Y0445D02*
D03*
X08075Y044D02*
D03*
X0805Y0395D02*
D03*
X08075Y039D02*
D03*
X0805Y0385D02*
D03*
X08075Y038D02*
D03*
X0805Y0375D02*
D03*
X08075Y037D02*
D03*
X0805Y0365D02*
D03*
X08075Y036D02*
D03*
X0805Y0315D02*
D03*
X08075Y031D02*
D03*
X0805Y0305D02*
D03*
X08075Y03D02*
D03*
X08Y0455D02*
D03*
X08025Y045D02*
D03*
X08Y0445D02*
D03*
X08025Y044D02*
D03*
X08Y0435D02*
D03*
Y0395D02*
D03*
X08025Y039D02*
D03*
X08Y0385D02*
D03*
X08025Y038D02*
D03*
X08Y0375D02*
D03*
X08025Y037D02*
D03*
X08Y0365D02*
D03*
X08025Y036D02*
D03*
Y032D02*
D03*
X08Y0315D02*
D03*
X08025Y031D02*
D03*
Y03D02*
D03*
X0795Y0445D02*
D03*
X07975Y044D02*
D03*
X0795Y0435D02*
D03*
Y0405D02*
D03*
X07975Y04D02*
D03*
X0795Y0395D02*
D03*
X07975Y039D02*
D03*
X0795Y0385D02*
D03*
X07975Y038D02*
D03*
X0795Y0375D02*
D03*
X07975Y037D02*
D03*
X0795Y0365D02*
D03*
X07975Y036D02*
D03*
X0795Y0355D02*
D03*
Y0325D02*
D03*
X07975Y032D02*
D03*
X0795Y0315D02*
D03*
X07975Y031D02*
D03*
X079Y0445D02*
D03*
X07925Y044D02*
D03*
X079Y0435D02*
D03*
X07925Y043D02*
D03*
X079Y0425D02*
D03*
X07925Y042D02*
D03*
X079Y0415D02*
D03*
X07925Y041D02*
D03*
X079Y0405D02*
D03*
X07925Y04D02*
D03*
X079Y0395D02*
D03*
X07925Y039D02*
D03*
X079Y0385D02*
D03*
X07925Y038D02*
D03*
X079Y0375D02*
D03*
X07925Y037D02*
D03*
X079Y0365D02*
D03*
X07925Y036D02*
D03*
X079Y0355D02*
D03*
X07925Y035D02*
D03*
X079Y0345D02*
D03*
Y0335D02*
D03*
X07925Y033D02*
D03*
X079Y0325D02*
D03*
X07925Y032D02*
D03*
X079Y0315D02*
D03*
X0785Y0455D02*
D03*
X07875Y045D02*
D03*
X0785Y0445D02*
D03*
X07875Y044D02*
D03*
X0785Y0435D02*
D03*
X07875Y043D02*
D03*
X0785Y0425D02*
D03*
X07875Y042D02*
D03*
X0785Y0415D02*
D03*
X07875Y041D02*
D03*
X0785Y0405D02*
D03*
X07875Y04D02*
D03*
X0785Y0395D02*
D03*
X07875Y039D02*
D03*
X0785Y0385D02*
D03*
X07875Y038D02*
D03*
X0785Y0375D02*
D03*
X07875Y037D02*
D03*
X0785Y0365D02*
D03*
X07875Y036D02*
D03*
X0785Y0355D02*
D03*
X07875Y035D02*
D03*
X0785Y0345D02*
D03*
X07875Y034D02*
D03*
X0785Y0335D02*
D03*
X07875Y033D02*
D03*
X0785Y0325D02*
D03*
X07875Y032D02*
D03*
X0785Y0315D02*
D03*
X07875Y031D02*
D03*
X0785Y0305D02*
D03*
X07875Y03D02*
D03*
X07825Y046D02*
D03*
X078Y0455D02*
D03*
X07825Y045D02*
D03*
X078Y0445D02*
D03*
X07825Y044D02*
D03*
X078Y0435D02*
D03*
X07825Y043D02*
D03*
X078Y0425D02*
D03*
X07825Y042D02*
D03*
X078Y0415D02*
D03*
X07825Y041D02*
D03*
X078Y0405D02*
D03*
X07825Y04D02*
D03*
X078Y0395D02*
D03*
X07825Y039D02*
D03*
X078Y0385D02*
D03*
X07825Y038D02*
D03*
X078Y0375D02*
D03*
X07825Y037D02*
D03*
X078Y0365D02*
D03*
X07825Y036D02*
D03*
X078Y0355D02*
D03*
X07825Y035D02*
D03*
X078Y0345D02*
D03*
X07825Y034D02*
D03*
X078Y0335D02*
D03*
X07825Y033D02*
D03*
X078Y0325D02*
D03*
X07825Y032D02*
D03*
X078Y0315D02*
D03*
X07825Y031D02*
D03*
X078Y0305D02*
D03*
X07825Y03D02*
D03*
X078Y0295D02*
D03*
X07775Y046D02*
D03*
X0775Y0455D02*
D03*
X07775Y045D02*
D03*
X0775Y0445D02*
D03*
X07775Y044D02*
D03*
X0775Y0435D02*
D03*
X07775Y043D02*
D03*
X0775Y0425D02*
D03*
X07775Y042D02*
D03*
X0775Y0415D02*
D03*
X07775Y041D02*
D03*
X0775Y0405D02*
D03*
X07775Y04D02*
D03*
X0775Y0395D02*
D03*
X07775Y039D02*
D03*
X0775Y0385D02*
D03*
X07775Y038D02*
D03*
X0775Y0375D02*
D03*
X07775Y037D02*
D03*
X0775Y0365D02*
D03*
X07775Y036D02*
D03*
X0775Y0355D02*
D03*
X07775Y035D02*
D03*
X0775Y0345D02*
D03*
X07775Y034D02*
D03*
X0775Y0335D02*
D03*
X07775Y033D02*
D03*
X0775Y0325D02*
D03*
X07775Y032D02*
D03*
X0775Y0315D02*
D03*
X07775Y031D02*
D03*
X0775Y0305D02*
D03*
X07775Y03D02*
D03*
X0775Y0295D02*
D03*
X07725Y046D02*
D03*
X077Y0455D02*
D03*
X07725Y045D02*
D03*
X077Y0445D02*
D03*
X07725Y044D02*
D03*
X077Y0435D02*
D03*
X07725Y043D02*
D03*
X077Y0425D02*
D03*
X07725Y042D02*
D03*
X077Y0415D02*
D03*
X07725Y041D02*
D03*
X077Y0405D02*
D03*
X07725Y04D02*
D03*
X077Y0395D02*
D03*
X07725Y039D02*
D03*
X077Y0385D02*
D03*
X07725Y038D02*
D03*
X077Y0375D02*
D03*
X07725Y037D02*
D03*
X077Y0365D02*
D03*
X07725Y036D02*
D03*
X077Y0355D02*
D03*
X07725Y035D02*
D03*
X077Y0345D02*
D03*
X07725Y034D02*
D03*
X077Y0335D02*
D03*
X07725Y033D02*
D03*
X077Y0325D02*
D03*
X07725Y032D02*
D03*
X077Y0315D02*
D03*
X07725Y031D02*
D03*
X077Y0305D02*
D03*
X07725Y03D02*
D03*
X077Y0295D02*
D03*
X07675Y046D02*
D03*
X0765Y0455D02*
D03*
X07675Y045D02*
D03*
X0765Y0445D02*
D03*
X07675Y044D02*
D03*
X0765Y0435D02*
D03*
X07675Y043D02*
D03*
X0765Y0425D02*
D03*
X07675Y042D02*
D03*
X0765Y0415D02*
D03*
X07675Y041D02*
D03*
X0765Y0405D02*
D03*
X07675Y04D02*
D03*
Y039D02*
D03*
Y038D02*
D03*
Y037D02*
D03*
Y036D02*
D03*
X0765Y0355D02*
D03*
X07675Y035D02*
D03*
X0765Y0345D02*
D03*
X07675Y034D02*
D03*
X0765Y0335D02*
D03*
X07675Y033D02*
D03*
X0765Y0325D02*
D03*
X07675Y032D02*
D03*
X0765Y0315D02*
D03*
X07675Y031D02*
D03*
X0765Y0305D02*
D03*
X07675Y03D02*
D03*
X0765Y0295D02*
D03*
X07625Y046D02*
D03*
X076Y0455D02*
D03*
X07625Y045D02*
D03*
X076Y0445D02*
D03*
X07625Y044D02*
D03*
X076Y0435D02*
D03*
X07625Y043D02*
D03*
X076Y0425D02*
D03*
X07625Y042D02*
D03*
X076Y0415D02*
D03*
X07625Y041D02*
D03*
X076Y0405D02*
D03*
X07625Y04D02*
D03*
X076Y0355D02*
D03*
X07625Y035D02*
D03*
X076Y0345D02*
D03*
X07625Y034D02*
D03*
X076Y0335D02*
D03*
X07625Y033D02*
D03*
X076Y0325D02*
D03*
X07625Y032D02*
D03*
X076Y0315D02*
D03*
X07625Y031D02*
D03*
X076Y0305D02*
D03*
X07625Y03D02*
D03*
X076Y0295D02*
D03*
X07575Y045D02*
D03*
X0755Y0445D02*
D03*
X07575Y044D02*
D03*
X0755Y0435D02*
D03*
X07575Y043D02*
D03*
X0755Y0425D02*
D03*
X07575Y042D02*
D03*
X0755Y0415D02*
D03*
X07575Y041D02*
D03*
X0755Y0405D02*
D03*
X07575Y04D02*
D03*
X0755Y0355D02*
D03*
X07575Y035D02*
D03*
X0755Y0345D02*
D03*
X07575Y034D02*
D03*
X0755Y0335D02*
D03*
X07575Y033D02*
D03*
X0755Y0325D02*
D03*
X07575Y032D02*
D03*
X0755Y0315D02*
D03*
X07575Y031D02*
D03*
X0755Y0305D02*
D03*
X07525Y045D02*
D03*
X075Y0445D02*
D03*
X07525Y044D02*
D03*
X075Y0435D02*
D03*
X07525Y043D02*
D03*
X075Y0425D02*
D03*
X07525Y042D02*
D03*
X075Y0415D02*
D03*
X07525Y041D02*
D03*
X075Y0405D02*
D03*
X07525Y04D02*
D03*
X075Y0355D02*
D03*
X07525Y035D02*
D03*
X075Y0345D02*
D03*
X07525Y034D02*
D03*
X075Y0335D02*
D03*
X07525Y033D02*
D03*
X075Y0325D02*
D03*
X07525Y032D02*
D03*
X075Y0315D02*
D03*
X07525Y031D02*
D03*
X075Y0305D02*
D03*
X07475Y046D02*
D03*
X0745Y0455D02*
D03*
X07475Y045D02*
D03*
X0745Y0445D02*
D03*
X07475Y044D02*
D03*
X0745Y0435D02*
D03*
X07475Y043D02*
D03*
X0745Y0425D02*
D03*
X07475Y042D02*
D03*
X0745Y0415D02*
D03*
X07475Y041D02*
D03*
X0745Y0405D02*
D03*
X07475Y04D02*
D03*
X0745Y0355D02*
D03*
X07475Y035D02*
D03*
X0745Y0345D02*
D03*
X07475Y034D02*
D03*
X0745Y0335D02*
D03*
X07475Y033D02*
D03*
X0745Y0325D02*
D03*
X07475Y032D02*
D03*
X0745Y0315D02*
D03*
X07475Y031D02*
D03*
X0745Y0305D02*
D03*
X07475Y03D02*
D03*
X0745Y0295D02*
D03*
X07425Y046D02*
D03*
X074Y0455D02*
D03*
X07425Y045D02*
D03*
X074Y0445D02*
D03*
X07425Y044D02*
D03*
X074Y0435D02*
D03*
X07425Y043D02*
D03*
X074Y0425D02*
D03*
X07425Y042D02*
D03*
X074Y0415D02*
D03*
X07425Y041D02*
D03*
X074Y0405D02*
D03*
X07425Y04D02*
D03*
X074Y0355D02*
D03*
X07425Y035D02*
D03*
X074Y0345D02*
D03*
X07425Y034D02*
D03*
X074Y0335D02*
D03*
X07425Y033D02*
D03*
X074Y0325D02*
D03*
X07425Y032D02*
D03*
X074Y0315D02*
D03*
X07425Y031D02*
D03*
X074Y0305D02*
D03*
X07425Y03D02*
D03*
X074Y0295D02*
D03*
X07375Y046D02*
D03*
X0735Y0455D02*
D03*
X07375Y045D02*
D03*
X0735Y0445D02*
D03*
X07375Y044D02*
D03*
X0735Y0435D02*
D03*
X07375Y043D02*
D03*
X0735Y0425D02*
D03*
X07375Y042D02*
D03*
X0735Y0415D02*
D03*
X07375Y041D02*
D03*
X0735Y0405D02*
D03*
X07375Y04D02*
D03*
X0735Y0355D02*
D03*
X07375Y035D02*
D03*
X0735Y0345D02*
D03*
X07375Y034D02*
D03*
X0735Y0335D02*
D03*
X07375Y033D02*
D03*
X0735Y0325D02*
D03*
X07375Y032D02*
D03*
X0735Y0315D02*
D03*
X07375Y031D02*
D03*
X0735Y0305D02*
D03*
X07375Y03D02*
D03*
X0735Y0295D02*
D03*
X073Y0455D02*
D03*
X07325Y045D02*
D03*
X073Y0445D02*
D03*
X07325Y044D02*
D03*
X073Y0435D02*
D03*
X07325Y043D02*
D03*
X073Y0425D02*
D03*
X07325Y042D02*
D03*
X073Y0415D02*
D03*
X07325Y041D02*
D03*
X073Y0405D02*
D03*
X07325Y04D02*
D03*
X073Y0355D02*
D03*
X07325Y035D02*
D03*
X073Y0345D02*
D03*
X07325Y034D02*
D03*
X073Y0335D02*
D03*
X07325Y033D02*
D03*
X073Y0325D02*
D03*
X07325Y032D02*
D03*
X073Y0315D02*
D03*
X07325Y031D02*
D03*
X073Y0305D02*
D03*
X07325Y03D02*
D03*
X0725Y0455D02*
D03*
X07275Y045D02*
D03*
X0725Y0445D02*
D03*
X07275Y044D02*
D03*
X0725Y0435D02*
D03*
X07275Y043D02*
D03*
X0725Y0425D02*
D03*
X07275Y042D02*
D03*
X0725Y0415D02*
D03*
X07275Y041D02*
D03*
X0725Y0405D02*
D03*
X07275Y04D02*
D03*
X0725Y0395D02*
D03*
Y0385D02*
D03*
Y0375D02*
D03*
Y0365D02*
D03*
X07275Y036D02*
D03*
X0725Y0355D02*
D03*
X07275Y035D02*
D03*
X0725Y0345D02*
D03*
X07275Y034D02*
D03*
X0725Y0335D02*
D03*
X07275Y033D02*
D03*
X0725Y0325D02*
D03*
X07275Y032D02*
D03*
X0725Y0315D02*
D03*
X07275Y031D02*
D03*
X0725Y0305D02*
D03*
X07275Y03D02*
D03*
X072Y0455D02*
D03*
X07225Y045D02*
D03*
X072Y0445D02*
D03*
X07225Y044D02*
D03*
X072Y0435D02*
D03*
X07225Y043D02*
D03*
X072Y0425D02*
D03*
X07225Y042D02*
D03*
X072Y0415D02*
D03*
X07225Y041D02*
D03*
X072Y0405D02*
D03*
X07225Y04D02*
D03*
X072Y0395D02*
D03*
X07225Y039D02*
D03*
X072Y0385D02*
D03*
X07225Y038D02*
D03*
X072Y0375D02*
D03*
X07225Y037D02*
D03*
X072Y0365D02*
D03*
X07225Y036D02*
D03*
X072Y0355D02*
D03*
X07225Y035D02*
D03*
X072Y0345D02*
D03*
X07225Y034D02*
D03*
X072Y0335D02*
D03*
X07225Y033D02*
D03*
X072Y0325D02*
D03*
X07225Y032D02*
D03*
X072Y0315D02*
D03*
X07225Y031D02*
D03*
X072Y0305D02*
D03*
X07225Y03D02*
D03*
X07175Y046D02*
D03*
X0715Y0455D02*
D03*
X07175Y045D02*
D03*
X0715Y0445D02*
D03*
X07175Y044D02*
D03*
X0715Y0435D02*
D03*
X07175Y043D02*
D03*
X0715Y0425D02*
D03*
X07175Y042D02*
D03*
X0715Y0415D02*
D03*
X07175Y041D02*
D03*
X0715Y0405D02*
D03*
X07175Y04D02*
D03*
X0715Y0395D02*
D03*
X07175Y039D02*
D03*
X0715Y0385D02*
D03*
X07175Y038D02*
D03*
X0715Y0375D02*
D03*
X07175Y037D02*
D03*
X0715Y0365D02*
D03*
X07175Y036D02*
D03*
X0715Y0355D02*
D03*
X07175Y035D02*
D03*
X0715Y0345D02*
D03*
X07175Y034D02*
D03*
X0715Y0335D02*
D03*
X07175Y033D02*
D03*
X0715Y0325D02*
D03*
X07175Y032D02*
D03*
X0715Y0315D02*
D03*
X07175Y031D02*
D03*
X0715Y0305D02*
D03*
X07175Y03D02*
D03*
X0715Y0295D02*
D03*
X07125Y046D02*
D03*
X071Y0455D02*
D03*
X07125Y045D02*
D03*
X071Y0445D02*
D03*
X07125Y044D02*
D03*
X071Y0435D02*
D03*
X07125Y043D02*
D03*
X071Y0425D02*
D03*
X07125Y042D02*
D03*
X071Y0415D02*
D03*
X07125Y041D02*
D03*
X071Y0405D02*
D03*
X07125Y04D02*
D03*
X071Y0395D02*
D03*
X07125Y039D02*
D03*
X071Y0385D02*
D03*
X07125Y038D02*
D03*
X071Y0375D02*
D03*
X07125Y037D02*
D03*
X071Y0365D02*
D03*
X07125Y036D02*
D03*
X071Y0355D02*
D03*
X07125Y035D02*
D03*
X071Y0345D02*
D03*
X07125Y034D02*
D03*
X071Y0335D02*
D03*
X07125Y033D02*
D03*
X071Y0325D02*
D03*
X07125Y032D02*
D03*
X071Y0315D02*
D03*
X07125Y031D02*
D03*
X071Y0305D02*
D03*
X07125Y03D02*
D03*
X071Y0295D02*
D03*
X07075Y046D02*
D03*
X0705Y0455D02*
D03*
X07075Y045D02*
D03*
X0705Y0445D02*
D03*
X07075Y044D02*
D03*
X0705Y0435D02*
D03*
X07075Y043D02*
D03*
X0705Y0425D02*
D03*
X07075Y042D02*
D03*
X0705Y0415D02*
D03*
X07075Y041D02*
D03*
X0705Y0405D02*
D03*
X07075Y04D02*
D03*
X0705Y0395D02*
D03*
X07075Y039D02*
D03*
X0705Y0385D02*
D03*
X07075Y038D02*
D03*
X0705Y0375D02*
D03*
X07075Y037D02*
D03*
X0705Y0365D02*
D03*
X07075Y036D02*
D03*
X0705Y0355D02*
D03*
X07075Y035D02*
D03*
X0705Y0345D02*
D03*
X07075Y034D02*
D03*
X0705Y0335D02*
D03*
X07075Y033D02*
D03*
X0705Y0325D02*
D03*
X07075Y032D02*
D03*
X0705Y0315D02*
D03*
X07075Y031D02*
D03*
X0705Y0305D02*
D03*
X07075Y03D02*
D03*
X0705Y0295D02*
D03*
X07025Y045D02*
D03*
X07Y0445D02*
D03*
X07025Y044D02*
D03*
X07Y0435D02*
D03*
X07025Y043D02*
D03*
X07Y0425D02*
D03*
X07025Y042D02*
D03*
X07Y0415D02*
D03*
X07025Y041D02*
D03*
X07Y0405D02*
D03*
X07025Y04D02*
D03*
X07Y0395D02*
D03*
X07025Y039D02*
D03*
X07Y0385D02*
D03*
X07025Y038D02*
D03*
X07Y0375D02*
D03*
X07025Y037D02*
D03*
X07Y0365D02*
D03*
X07025Y036D02*
D03*
X07Y0355D02*
D03*
X07025Y035D02*
D03*
X07Y0345D02*
D03*
X07025Y034D02*
D03*
X07Y0335D02*
D03*
X07025Y033D02*
D03*
X07Y0325D02*
D03*
X07025Y032D02*
D03*
X07Y0315D02*
D03*
X07025Y031D02*
D03*
X07Y0305D02*
D03*
X0695Y0455D02*
D03*
X06975Y045D02*
D03*
X0695Y0445D02*
D03*
X06975Y044D02*
D03*
X0695Y0435D02*
D03*
X06975Y043D02*
D03*
X0695Y0425D02*
D03*
X06975Y042D02*
D03*
X0695Y0415D02*
D03*
X06975Y041D02*
D03*
X0695Y0405D02*
D03*
X06975Y04D02*
D03*
X0695Y0395D02*
D03*
X06975Y039D02*
D03*
X0695Y0385D02*
D03*
X06975Y038D02*
D03*
X0695Y0375D02*
D03*
X06975Y037D02*
D03*
X0695Y0365D02*
D03*
X06975Y036D02*
D03*
X0695Y0355D02*
D03*
X06975Y035D02*
D03*
X0695Y0345D02*
D03*
X06975Y034D02*
D03*
X0695Y0335D02*
D03*
X06975Y033D02*
D03*
X0695Y0325D02*
D03*
X06975Y032D02*
D03*
X0695Y0315D02*
D03*
X06975Y031D02*
D03*
X0695Y0305D02*
D03*
Y0295D02*
D03*
X06925Y046D02*
D03*
X069Y0455D02*
D03*
X06925Y045D02*
D03*
X069Y0445D02*
D03*
X06925Y044D02*
D03*
X069Y0435D02*
D03*
X06925Y043D02*
D03*
X069Y0425D02*
D03*
X06925Y042D02*
D03*
X069Y0415D02*
D03*
X06925Y041D02*
D03*
X069Y0405D02*
D03*
X06925Y04D02*
D03*
X069Y0395D02*
D03*
X06925Y039D02*
D03*
X069Y0385D02*
D03*
X06925Y038D02*
D03*
X069Y0375D02*
D03*
X06925Y037D02*
D03*
X069Y0365D02*
D03*
X06925Y036D02*
D03*
X069Y0355D02*
D03*
X06925Y035D02*
D03*
X069Y0345D02*
D03*
X06925Y034D02*
D03*
X069Y0335D02*
D03*
X06925Y033D02*
D03*
X069Y0325D02*
D03*
X06925Y032D02*
D03*
X069Y0315D02*
D03*
X06925Y031D02*
D03*
X069Y0305D02*
D03*
X06925Y03D02*
D03*
X069Y0295D02*
D03*
X06875Y046D02*
D03*
X0685Y0455D02*
D03*
X06875Y045D02*
D03*
X0685Y0445D02*
D03*
X06875Y044D02*
D03*
X0685Y0435D02*
D03*
X06875Y043D02*
D03*
X0685Y0425D02*
D03*
X06875Y042D02*
D03*
X0685Y0415D02*
D03*
X06875Y041D02*
D03*
X0685Y0405D02*
D03*
X06875Y04D02*
D03*
X0685Y0395D02*
D03*
X06875Y039D02*
D03*
X0685Y0385D02*
D03*
X06875Y038D02*
D03*
X0685Y0375D02*
D03*
X06875Y037D02*
D03*
X0685Y0365D02*
D03*
X06875Y036D02*
D03*
X0685Y0355D02*
D03*
X06875Y035D02*
D03*
X0685Y0345D02*
D03*
X06875Y034D02*
D03*
X0685Y0335D02*
D03*
X06875Y033D02*
D03*
X0685Y0325D02*
D03*
X06875Y032D02*
D03*
X0685Y0315D02*
D03*
X06875Y031D02*
D03*
X0685Y0305D02*
D03*
X06875Y03D02*
D03*
X0685Y0295D02*
D03*
X06825Y046D02*
D03*
X068Y0455D02*
D03*
X06825Y045D02*
D03*
X068Y0445D02*
D03*
X06825Y044D02*
D03*
X068Y0435D02*
D03*
X06825Y043D02*
D03*
X068Y0425D02*
D03*
X06825Y042D02*
D03*
X068Y0415D02*
D03*
X06825Y041D02*
D03*
X068Y0405D02*
D03*
X06825Y04D02*
D03*
X068Y0395D02*
D03*
X06825Y039D02*
D03*
X068Y0385D02*
D03*
X06825Y038D02*
D03*
X068Y0375D02*
D03*
X06825Y037D02*
D03*
X068Y0365D02*
D03*
X06825Y036D02*
D03*
X068Y0355D02*
D03*
X06825Y035D02*
D03*
X068Y0345D02*
D03*
X06825Y034D02*
D03*
X068Y0335D02*
D03*
X06825Y033D02*
D03*
X068Y0325D02*
D03*
X06825Y032D02*
D03*
X068Y0315D02*
D03*
X06825Y031D02*
D03*
X068Y0305D02*
D03*
X06825Y03D02*
D03*
X0675Y0455D02*
D03*
X06775Y045D02*
D03*
X0675Y0445D02*
D03*
X06775Y044D02*
D03*
X0675Y0435D02*
D03*
X06775Y043D02*
D03*
X0675Y0425D02*
D03*
X06775Y042D02*
D03*
X0675Y0415D02*
D03*
X06775Y041D02*
D03*
X0675Y0405D02*
D03*
X06775Y04D02*
D03*
X0675Y0395D02*
D03*
X06775Y039D02*
D03*
X0675Y0385D02*
D03*
X06775Y038D02*
D03*
X0675Y0375D02*
D03*
X06775Y037D02*
D03*
X0675Y0365D02*
D03*
X06775Y036D02*
D03*
X0675Y0355D02*
D03*
X06775Y035D02*
D03*
X0675Y0345D02*
D03*
X06775Y034D02*
D03*
X0675Y0335D02*
D03*
X06775Y033D02*
D03*
X0675Y0325D02*
D03*
X06775Y032D02*
D03*
X0675Y0315D02*
D03*
X06775Y031D02*
D03*
X0675Y0305D02*
D03*
X06775Y03D02*
D03*
X067Y0455D02*
D03*
X06725Y045D02*
D03*
X067Y0445D02*
D03*
X06725Y044D02*
D03*
X067Y0435D02*
D03*
X06725Y043D02*
D03*
X067Y0425D02*
D03*
X06725Y042D02*
D03*
X067Y0415D02*
D03*
X06725Y041D02*
D03*
X067Y0405D02*
D03*
X06725Y04D02*
D03*
X067Y0395D02*
D03*
X06725Y039D02*
D03*
X067Y0385D02*
D03*
X06725Y038D02*
D03*
X067Y0375D02*
D03*
X06725Y037D02*
D03*
X067Y0365D02*
D03*
X06725Y036D02*
D03*
X067Y0355D02*
D03*
X06725Y035D02*
D03*
X067Y0345D02*
D03*
X06725Y034D02*
D03*
X067Y0335D02*
D03*
X06725Y033D02*
D03*
X067Y0325D02*
D03*
X06725Y032D02*
D03*
X067Y0315D02*
D03*
X06725Y031D02*
D03*
X067Y0305D02*
D03*
X06725Y03D02*
D03*
X0665Y0455D02*
D03*
X06675Y045D02*
D03*
X0665Y0445D02*
D03*
X06675Y044D02*
D03*
X0665Y0435D02*
D03*
X06675Y043D02*
D03*
X0665Y0425D02*
D03*
X06675Y042D02*
D03*
X0665Y0415D02*
D03*
X06675Y041D02*
D03*
X0665Y0405D02*
D03*
X06675Y04D02*
D03*
X0665Y0395D02*
D03*
X06675Y039D02*
D03*
X0665Y0385D02*
D03*
X06675Y038D02*
D03*
X0665Y0375D02*
D03*
X06675Y037D02*
D03*
X0665Y0365D02*
D03*
X06675Y036D02*
D03*
X0665Y0355D02*
D03*
X06675Y035D02*
D03*
X0665Y0345D02*
D03*
X06675Y034D02*
D03*
X0665Y0335D02*
D03*
X06675Y033D02*
D03*
X0665Y0325D02*
D03*
X06675Y032D02*
D03*
X0665Y0315D02*
D03*
X06675Y031D02*
D03*
X0665Y0305D02*
D03*
X06675Y03D02*
D03*
X0665Y0295D02*
D03*
X06625Y046D02*
D03*
X066Y0455D02*
D03*
X06625Y045D02*
D03*
X066Y0445D02*
D03*
X06625Y044D02*
D03*
X066Y0435D02*
D03*
X06625Y043D02*
D03*
Y032D02*
D03*
X066Y0315D02*
D03*
X06625Y031D02*
D03*
X066Y0305D02*
D03*
X06625Y03D02*
D03*
X066Y0295D02*
D03*
X06575Y046D02*
D03*
X0655Y0455D02*
D03*
X06575Y045D02*
D03*
X0655Y0445D02*
D03*
X06575Y044D02*
D03*
X0655Y0435D02*
D03*
Y0315D02*
D03*
X06575Y031D02*
D03*
X0655Y0305D02*
D03*
X06575Y03D02*
D03*
X0655Y0295D02*
D03*
X06525Y045D02*
D03*
X065Y0445D02*
D03*
X06525Y044D02*
D03*
Y031D02*
D03*
X065Y0305D02*
D03*
X06475Y045D02*
D03*
X0645Y0445D02*
D03*
X06475Y044D02*
D03*
X06425Y046D02*
D03*
X064Y0455D02*
D03*
X06425Y045D02*
D03*
X064Y0445D02*
D03*
X06425Y044D02*
D03*
X0635Y0455D02*
D03*
X06375Y045D02*
D03*
X0635Y0445D02*
D03*
X06375Y044D02*
D03*
X063Y0455D02*
D03*
X06325Y045D02*
D03*
X063Y0445D02*
D03*
X06325Y044D02*
D03*
X0625Y0455D02*
D03*
X06275Y045D02*
D03*
X0625Y0445D02*
D03*
X06275Y044D02*
D03*
Y021D02*
D03*
X0625Y0205D02*
D03*
X06275Y02D02*
D03*
X062Y0455D02*
D03*
X06225Y045D02*
D03*
X062Y0445D02*
D03*
X06225Y044D02*
D03*
X062Y0225D02*
D03*
X06225Y02D02*
D03*
X0615Y0545D02*
D03*
X06175Y045D02*
D03*
X0615Y0445D02*
D03*
X06175Y044D02*
D03*
Y037D02*
D03*
X0615Y0365D02*
D03*
X06175Y036D02*
D03*
X0615Y0225D02*
D03*
X06175Y022D02*
D03*
X0615Y0215D02*
D03*
Y0205D02*
D03*
X06125Y054D02*
D03*
X061Y0535D02*
D03*
Y0525D02*
D03*
Y0445D02*
D03*
X06125Y044D02*
D03*
Y037D02*
D03*
X061Y0365D02*
D03*
X06125Y036D02*
D03*
X061Y0355D02*
D03*
Y0235D02*
D03*
X06125Y023D02*
D03*
Y022D02*
D03*
Y021D02*
D03*
X0605Y0535D02*
D03*
X06075Y053D02*
D03*
X0605Y0525D02*
D03*
X06075Y037D02*
D03*
X0605Y0365D02*
D03*
X06075Y036D02*
D03*
X0605Y0355D02*
D03*
X06075Y035D02*
D03*
X06Y0535D02*
D03*
X06025Y053D02*
D03*
X06Y0525D02*
D03*
X06025Y037D02*
D03*
X06Y0365D02*
D03*
X06025Y036D02*
D03*
X06Y0355D02*
D03*
X06025Y035D02*
D03*
X06Y0345D02*
D03*
Y0225D02*
D03*
X06025Y022D02*
D03*
X06Y0215D02*
D03*
X06025Y021D02*
D03*
X06Y0205D02*
D03*
X06025Y02D02*
D03*
X05975Y037D02*
D03*
X0595Y0365D02*
D03*
X05975Y036D02*
D03*
X0595Y0355D02*
D03*
X05975Y035D02*
D03*
X0595Y0345D02*
D03*
X05975Y034D02*
D03*
X0595Y0225D02*
D03*
X05975Y022D02*
D03*
X0595Y0215D02*
D03*
X05975Y021D02*
D03*
X0595Y0205D02*
D03*
X05975Y02D02*
D03*
X05925Y037D02*
D03*
Y036D02*
D03*
Y035D02*
D03*
X059Y0345D02*
D03*
X05925Y034D02*
D03*
Y022D02*
D03*
X059Y0215D02*
D03*
X05925Y021D02*
D03*
X059Y0205D02*
D03*
X05925Y02D02*
D03*
X0585Y0345D02*
D03*
X05875Y034D02*
D03*
Y022D02*
D03*
X0585Y0215D02*
D03*
X05875Y021D02*
D03*
X0585Y0205D02*
D03*
X05875Y02D02*
D03*
X058Y0545D02*
D03*
Y0535D02*
D03*
Y0525D02*
D03*
Y0345D02*
D03*
X05825Y034D02*
D03*
Y022D02*
D03*
X058Y0215D02*
D03*
X05825Y021D02*
D03*
X058Y0205D02*
D03*
X05825Y02D02*
D03*
X05775Y054D02*
D03*
X0575Y0535D02*
D03*
X05775Y053D02*
D03*
X0575Y0525D02*
D03*
Y0345D02*
D03*
X05775Y034D02*
D03*
X0575Y0225D02*
D03*
X05775Y022D02*
D03*
X0575Y0215D02*
D03*
X05775Y021D02*
D03*
X0575Y0205D02*
D03*
X05775Y02D02*
D03*
X057Y0345D02*
D03*
X05725Y034D02*
D03*
X057Y0225D02*
D03*
X05725Y022D02*
D03*
Y021D02*
D03*
Y02D02*
D03*
X0565Y0555D02*
D03*
Y0345D02*
D03*
X05675Y034D02*
D03*
X0565Y0235D02*
D03*
X05675Y023D02*
D03*
X056Y0555D02*
D03*
X05625Y055D02*
D03*
X056Y0345D02*
D03*
X05625Y034D02*
D03*
X056Y0235D02*
D03*
X05625Y023D02*
D03*
X056Y0225D02*
D03*
X0555Y0535D02*
D03*
Y0345D02*
D03*
X05575Y034D02*
D03*
X0555Y0235D02*
D03*
X055Y0535D02*
D03*
X05525Y052D02*
D03*
X055Y0355D02*
D03*
Y0345D02*
D03*
X05525Y034D02*
D03*
X055Y0235D02*
D03*
Y0205D02*
D03*
X0545Y0525D02*
D03*
X05475Y052D02*
D03*
X0545Y0515D02*
D03*
X05475Y035D02*
D03*
X0545Y0345D02*
D03*
X05475Y034D02*
D03*
X0545Y0335D02*
D03*
X05475Y02D02*
D03*
X05425Y052D02*
D03*
Y035D02*
D03*
Y033D02*
D03*
X054Y0325D02*
D03*
X05425Y032D02*
D03*
X054Y0315D02*
D03*
X05425Y02D02*
D03*
X05375Y053D02*
D03*
Y033D02*
D03*
X0535Y0325D02*
D03*
X05375Y032D02*
D03*
X0535Y0315D02*
D03*
X05375Y031D02*
D03*
X05325Y053D02*
D03*
X053Y0365D02*
D03*
X05325Y033D02*
D03*
X053Y0325D02*
D03*
X05325Y032D02*
D03*
X053Y0315D02*
D03*
X05325Y031D02*
D03*
X053Y0205D02*
D03*
X0525Y0535D02*
D03*
X05275Y053D02*
D03*
Y036D02*
D03*
Y033D02*
D03*
X0525Y0325D02*
D03*
X05275Y032D02*
D03*
X0525Y0315D02*
D03*
X05275Y031D02*
D03*
X0525Y0205D02*
D03*
X05275Y02D02*
D03*
X052Y0535D02*
D03*
X05225Y053D02*
D03*
X052Y0365D02*
D03*
X05225Y036D02*
D03*
X052Y0335D02*
D03*
X05225Y033D02*
D03*
X052Y0325D02*
D03*
X05225Y032D02*
D03*
X052Y0315D02*
D03*
X05225Y031D02*
D03*
X052Y0205D02*
D03*
X05225Y02D02*
D03*
X05175Y037D02*
D03*
Y036D02*
D03*
Y035D02*
D03*
Y034D02*
D03*
Y033D02*
D03*
X0515Y0325D02*
D03*
X05175Y032D02*
D03*
X0515Y0315D02*
D03*
X05175Y031D02*
D03*
X0515Y0205D02*
D03*
X05175Y02D02*
D03*
X05125Y036D02*
D03*
Y032D02*
D03*
Y031D02*
D03*
X051Y0215D02*
D03*
Y0205D02*
D03*
X05125Y02D02*
D03*
X05075Y056D02*
D03*
Y049D02*
D03*
X0505Y0485D02*
D03*
X05075Y048D02*
D03*
X0505Y0475D02*
D03*
Y0345D02*
D03*
Y0335D02*
D03*
X05075Y022D02*
D03*
Y021D02*
D03*
X0505Y0205D02*
D03*
X05075Y02D02*
D03*
X05025Y056D02*
D03*
Y049D02*
D03*
X05Y0485D02*
D03*
X05025Y048D02*
D03*
X05Y0475D02*
D03*
X05025Y047D02*
D03*
X05Y0465D02*
D03*
X05025Y037D02*
D03*
X05Y0355D02*
D03*
X05025Y035D02*
D03*
X05Y0345D02*
D03*
X05025Y034D02*
D03*
Y021D02*
D03*
X04975Y056D02*
D03*
Y049D02*
D03*
X0495Y0485D02*
D03*
X04975Y048D02*
D03*
Y037D02*
D03*
X0495Y0355D02*
D03*
X04975Y035D02*
D03*
X0495Y0345D02*
D03*
X04975Y034D02*
D03*
X0495Y0335D02*
D03*
Y0295D02*
D03*
Y0205D02*
D03*
X04925Y056D02*
D03*
Y053D02*
D03*
X049Y0525D02*
D03*
X04925Y052D02*
D03*
X049Y0515D02*
D03*
X04925Y051D02*
D03*
X049Y0505D02*
D03*
X04925Y05D02*
D03*
X049Y0495D02*
D03*
X04925Y049D02*
D03*
X049Y0485D02*
D03*
X04925Y048D02*
D03*
X049Y0435D02*
D03*
Y0355D02*
D03*
X04925Y035D02*
D03*
X049Y0345D02*
D03*
X04925Y034D02*
D03*
X049Y0335D02*
D03*
X04925Y033D02*
D03*
X049Y0295D02*
D03*
X04925Y02D02*
D03*
X04875Y056D02*
D03*
Y053D02*
D03*
X0485Y0525D02*
D03*
X04875Y052D02*
D03*
X0485Y0515D02*
D03*
X04875Y051D02*
D03*
X0485Y0505D02*
D03*
X04875Y05D02*
D03*
X0485Y0495D02*
D03*
X04875Y049D02*
D03*
X0485Y0485D02*
D03*
Y0355D02*
D03*
X04875Y035D02*
D03*
X0485Y0345D02*
D03*
X04875Y034D02*
D03*
X0485Y0335D02*
D03*
X04875Y033D02*
D03*
X0485Y0295D02*
D03*
X04875Y02D02*
D03*
X04825Y056D02*
D03*
Y053D02*
D03*
X048Y0525D02*
D03*
X04825Y052D02*
D03*
X048Y0515D02*
D03*
X04825Y051D02*
D03*
X048Y0505D02*
D03*
X04825Y05D02*
D03*
X048Y0495D02*
D03*
X04825Y049D02*
D03*
X048Y0485D02*
D03*
X04825Y047D02*
D03*
X048Y0465D02*
D03*
Y0355D02*
D03*
X04825Y035D02*
D03*
X048Y0345D02*
D03*
X04825Y034D02*
D03*
X048Y0335D02*
D03*
X04825Y033D02*
D03*
X048Y0295D02*
D03*
X04825Y022D02*
D03*
X048Y0215D02*
D03*
X04825Y021D02*
D03*
Y02D02*
D03*
X04775Y056D02*
D03*
Y052D02*
D03*
Y051D02*
D03*
Y05D02*
D03*
Y049D02*
D03*
X0475Y0485D02*
D03*
X04775Y033D02*
D03*
X0475Y0295D02*
D03*
X04775Y028D02*
D03*
Y021D02*
D03*
Y02D02*
D03*
X04725Y056D02*
D03*
Y049D02*
D03*
X047Y0485D02*
D03*
X04725Y048D02*
D03*
Y033D02*
D03*
X047Y0325D02*
D03*
Y0315D02*
D03*
Y0295D02*
D03*
X04725Y022D02*
D03*
Y02D02*
D03*
X04675Y056D02*
D03*
Y049D02*
D03*
Y048D02*
D03*
Y033D02*
D03*
X0465Y0325D02*
D03*
X04675Y032D02*
D03*
X0465Y0315D02*
D03*
X04675Y03D02*
D03*
X0465Y0295D02*
D03*
Y0225D02*
D03*
X04675Y022D02*
D03*
Y02D02*
D03*
X04625Y056D02*
D03*
X046Y0555D02*
D03*
Y0455D02*
D03*
X04625Y033D02*
D03*
Y032D02*
D03*
X046Y0295D02*
D03*
Y0275D02*
D03*
Y0245D02*
D03*
X04625Y023D02*
D03*
X046Y0225D02*
D03*
X04625Y022D02*
D03*
Y02D02*
D03*
X04575Y056D02*
D03*
X0455Y0555D02*
D03*
Y0535D02*
D03*
Y0515D02*
D03*
Y0505D02*
D03*
Y0475D02*
D03*
Y0465D02*
D03*
X04575Y046D02*
D03*
X0455Y0455D02*
D03*
Y0335D02*
D03*
X04575Y033D02*
D03*
Y023D02*
D03*
X0455Y0225D02*
D03*
X04575Y022D02*
D03*
Y02D02*
D03*
X04525Y056D02*
D03*
X045Y0555D02*
D03*
Y0545D02*
D03*
Y0535D02*
D03*
Y0515D02*
D03*
X04525Y051D02*
D03*
X045Y0505D02*
D03*
Y0475D02*
D03*
Y0465D02*
D03*
X04525Y046D02*
D03*
X045Y0455D02*
D03*
X04525Y045D02*
D03*
X045Y0445D02*
D03*
X04525Y035D02*
D03*
X045Y0335D02*
D03*
X04525Y033D02*
D03*
X045Y0325D02*
D03*
X04525Y023D02*
D03*
Y02D02*
D03*
X04475Y055D02*
D03*
X0445Y0545D02*
D03*
X04475Y054D02*
D03*
X0445Y0535D02*
D03*
Y0515D02*
D03*
X04475Y051D02*
D03*
X0445Y0505D02*
D03*
X04475Y05D02*
D03*
X0445Y0495D02*
D03*
X04475Y046D02*
D03*
X0445Y0455D02*
D03*
X04475Y045D02*
D03*
X0445Y0445D02*
D03*
Y0365D02*
D03*
X04475Y035D02*
D03*
X0445Y0335D02*
D03*
X04475Y033D02*
D03*
X0445Y0325D02*
D03*
X04475Y02D02*
D03*
X04425Y055D02*
D03*
X044Y0545D02*
D03*
Y0515D02*
D03*
X04425Y051D02*
D03*
X044Y0505D02*
D03*
X04425Y05D02*
D03*
X044Y0495D02*
D03*
X04425Y046D02*
D03*
X044Y0455D02*
D03*
X04425Y045D02*
D03*
X044Y0445D02*
D03*
X04425Y044D02*
D03*
X044Y0365D02*
D03*
X04425Y036D02*
D03*
X044Y0335D02*
D03*
X04425Y033D02*
D03*
X044Y0325D02*
D03*
X04425Y03D02*
D03*
Y02D02*
D03*
X0435Y0545D02*
D03*
Y0515D02*
D03*
X04375Y051D02*
D03*
Y05D02*
D03*
Y049D02*
D03*
X0435Y0485D02*
D03*
X04375Y048D02*
D03*
X0435Y0475D02*
D03*
Y0465D02*
D03*
X04375Y046D02*
D03*
X0435Y0455D02*
D03*
X04375Y045D02*
D03*
X0435Y0445D02*
D03*
X04375Y044D02*
D03*
Y042D02*
D03*
Y04D02*
D03*
Y036D02*
D03*
X0435Y0355D02*
D03*
X04375Y035D02*
D03*
X0435Y0335D02*
D03*
X04375Y033D02*
D03*
X0435Y0325D02*
D03*
Y0275D02*
D03*
X04375Y025D02*
D03*
Y02D02*
D03*
X043Y0545D02*
D03*
X04325Y052D02*
D03*
Y049D02*
D03*
X043Y0485D02*
D03*
X04325Y048D02*
D03*
X043Y0475D02*
D03*
X04325Y047D02*
D03*
X043Y0465D02*
D03*
X04325Y046D02*
D03*
Y04D02*
D03*
Y025D02*
D03*
X043Y0245D02*
D03*
X04325Y024D02*
D03*
X043Y0235D02*
D03*
X04325Y02D02*
D03*
X0425Y0545D02*
D03*
X04275Y049D02*
D03*
X0425Y0485D02*
D03*
X04275Y048D02*
D03*
Y047D02*
D03*
X0425Y0445D02*
D03*
X04275Y04D02*
D03*
X0425Y0385D02*
D03*
Y0355D02*
D03*
Y0345D02*
D03*
Y0315D02*
D03*
X04275Y031D02*
D03*
X0425Y0285D02*
D03*
X04275Y026D02*
D03*
Y025D02*
D03*
X0425Y0245D02*
D03*
X04275Y024D02*
D03*
X0425Y0235D02*
D03*
Y0215D02*
D03*
X04275Y02D02*
D03*
X042Y0545D02*
D03*
Y0505D02*
D03*
X04225Y05D02*
D03*
X042Y0495D02*
D03*
X04225Y049D02*
D03*
X042Y0485D02*
D03*
X04225Y04D02*
D03*
X042Y0365D02*
D03*
X04225Y036D02*
D03*
X042Y0355D02*
D03*
X04225Y035D02*
D03*
Y033D02*
D03*
Y03D02*
D03*
X042Y0285D02*
D03*
X04225Y027D02*
D03*
Y025D02*
D03*
X042Y0245D02*
D03*
X04225Y024D02*
D03*
X042Y0235D02*
D03*
X04225Y023D02*
D03*
X0415Y0515D02*
D03*
X04175Y051D02*
D03*
X0415Y0505D02*
D03*
X04175Y05D02*
D03*
X0415Y0495D02*
D03*
X04175Y049D02*
D03*
X0415Y0485D02*
D03*
Y0455D02*
D03*
Y0445D02*
D03*
Y0415D02*
D03*
X04175Y037D02*
D03*
Y036D02*
D03*
Y035D02*
D03*
X0415Y0315D02*
D03*
X04175Y03D02*
D03*
X0415Y0285D02*
D03*
X04175Y027D02*
D03*
Y025D02*
D03*
X0415Y0245D02*
D03*
X04175Y024D02*
D03*
X0415Y0235D02*
D03*
X04175Y023D02*
D03*
X04125Y055D02*
D03*
Y052D02*
D03*
X041Y0515D02*
D03*
X04125Y051D02*
D03*
X041Y0505D02*
D03*
X04125Y05D02*
D03*
X041Y0495D02*
D03*
X04125Y049D02*
D03*
X041Y0485D02*
D03*
X04125Y048D02*
D03*
X041Y0475D02*
D03*
X04125Y047D02*
D03*
X041Y0465D02*
D03*
X04125Y046D02*
D03*
X041Y0455D02*
D03*
X04125Y045D02*
D03*
X041Y0445D02*
D03*
X04125Y044D02*
D03*
X041Y0435D02*
D03*
Y0325D02*
D03*
X04125Y032D02*
D03*
X041Y0315D02*
D03*
X04125Y031D02*
D03*
X041Y0305D02*
D03*
X04125Y029D02*
D03*
Y028D02*
D03*
X041Y0275D02*
D03*
Y0265D02*
D03*
X04125Y026D02*
D03*
X041Y0255D02*
D03*
X04075Y055D02*
D03*
X0405Y0545D02*
D03*
X04075Y032D02*
D03*
Y031D02*
D03*
X0405Y0235D02*
D03*
Y0225D02*
D03*
X04Y0545D02*
D03*
X04025Y054D02*
D03*
X03975D02*
D03*
X0395Y0535D02*
D03*
Y0325D02*
D03*
X03975Y032D02*
D03*
X039Y0495D02*
D03*
Y0485D02*
D03*
Y0465D02*
D03*
Y0455D02*
D03*
Y0445D02*
D03*
Y0355D02*
D03*
X03925Y026D02*
D03*
X0385Y0495D02*
D03*
X03875Y049D02*
D03*
X0385Y0465D02*
D03*
X03875Y046D02*
D03*
X0385Y0455D02*
D03*
X03875Y04D02*
D03*
Y039D02*
D03*
X0385Y0305D02*
D03*
X03875Y03D02*
D03*
X0385Y0245D02*
D03*
X03875Y024D02*
D03*
X0385Y0235D02*
D03*
X03875Y023D02*
D03*
X038Y0495D02*
D03*
X03825Y049D02*
D03*
Y046D02*
D03*
X038Y0455D02*
D03*
Y0345D02*
D03*
X03825Y031D02*
D03*
X038Y0305D02*
D03*
X03825Y027D02*
D03*
X038Y0265D02*
D03*
X03825Y024D02*
D03*
X038Y0235D02*
D03*
X0375Y0495D02*
D03*
X03775Y049D02*
D03*
Y046D02*
D03*
X0375Y0455D02*
D03*
X03775Y045D02*
D03*
Y043D02*
D03*
Y042D02*
D03*
Y041D02*
D03*
X0375Y0405D02*
D03*
X03775Y04D02*
D03*
X0375Y0395D02*
D03*
X03775Y037D02*
D03*
X0375Y0315D02*
D03*
X03775Y031D02*
D03*
X0375Y0305D02*
D03*
X03775Y024D02*
D03*
X037Y0495D02*
D03*
X03725Y049D02*
D03*
X037Y0465D02*
D03*
X03725Y046D02*
D03*
X037Y0455D02*
D03*
X03725Y045D02*
D03*
X037Y0405D02*
D03*
Y0315D02*
D03*
X03725Y031D02*
D03*
X037Y0305D02*
D03*
X03725Y026D02*
D03*
X0365Y0495D02*
D03*
X03675Y049D02*
D03*
X0365Y0485D02*
D03*
Y0465D02*
D03*
X03675Y046D02*
D03*
X0365Y0455D02*
D03*
X03675Y045D02*
D03*
X0365Y0445D02*
D03*
X03675Y044D02*
D03*
X0365Y0435D02*
D03*
Y0425D02*
D03*
Y0415D02*
D03*
Y0405D02*
D03*
Y0395D02*
D03*
Y0385D02*
D03*
Y0375D02*
D03*
Y0365D02*
D03*
X03675Y036D02*
D03*
X0365Y0355D02*
D03*
X03675Y035D02*
D03*
X0365Y0345D02*
D03*
X03675Y034D02*
D03*
X0365Y0335D02*
D03*
X03675Y033D02*
D03*
X0365Y0325D02*
D03*
X03675Y032D02*
D03*
X0365Y0315D02*
D03*
X03675Y031D02*
D03*
X0365Y0305D02*
D03*
X03675Y03D02*
D03*
X0365Y0295D02*
D03*
Y0285D02*
D03*
X03675Y028D02*
D03*
Y026D02*
D03*
X03911Y02853D02*
D03*
X047998Y02598D02*
D03*
X047804Y02633D02*
D03*
X04366Y0213D02*
D03*
X045287Y0425D02*
D03*
X04422Y04229D02*
D03*
X05351Y01991D02*
D03*
X05394Y02293D02*
D03*
X05171Y021802D02*
D03*
X05561Y02008D02*
D03*
X05761Y02348D02*
D03*
X05557Y02303D02*
D03*
X05676Y02007D02*
D03*
X049446Y022914D02*
D03*
X053193Y021748D02*
D03*
X04619Y023671D02*
D03*
X051564Y02474D02*
D03*
X05231Y02463D02*
D03*
X0439Y03955D02*
D03*
X05397Y02478D02*
D03*
X05396Y0242D02*
D03*
X053922Y02343D02*
D03*
X049558Y028118D02*
D03*
X05004Y02824D02*
D03*
X05069Y02932D02*
D03*
X050059Y025296D02*
D03*
X049577Y025303D02*
D03*
X051882Y022883D02*
D03*
X052568Y023383D02*
D03*
X051048Y023233D02*
D03*
X03648Y02554D02*
D03*
X045487Y025172D02*
D03*
X04836Y02572D02*
D03*
X04509Y02471D02*
D03*
X03879Y02593D02*
D03*
X04043Y02582D02*
D03*
X03963Y02609D02*
D03*
X04192Y0403D02*
D03*
X044796Y02384D02*
D03*
X044737Y028971D02*
D03*
X04123Y03586D02*
D03*
X04202Y039557D02*
D03*
X04525Y04859D02*
D03*
X04098Y04146D02*
D03*
X04054Y035188D02*
D03*
X04041Y03693D02*
D03*
X03872Y02802D02*
D03*
X04611Y02693D02*
D03*
X0594Y05643D02*
D03*
X04886Y03641D02*
D03*
X0466Y03685D02*
D03*
X04447Y026563D02*
D03*
X04032Y02802D02*
D03*
X039858Y032948D02*
D03*
X041121Y033012D02*
D03*
X040014Y038436D02*
D03*
X038432Y0523D02*
D03*
X03948Y05226D02*
D03*
X04001Y04228D02*
D03*
X04101Y04267D02*
D03*
X04096Y04097D02*
D03*
X04988Y01983D02*
D03*
X04072Y02867D02*
D03*
X05173Y04316D02*
D03*
X0396Y041965D02*
D03*
X04378Y03846D02*
D03*
X04124Y03947D02*
D03*
X03912Y04211D02*
D03*
X03947Y037252D02*
D03*
X040144Y033794D02*
D03*
X04251Y033598D02*
D03*
X03961Y036508D02*
D03*
X049155Y024345D02*
D03*
X048644Y023724D02*
D03*
X04908Y04547D02*
D03*
X046452Y045272D02*
D03*
X04678Y04464D02*
D03*
X04885Y04591D02*
D03*
X06006Y05564D02*
D03*
X05991Y05585D02*
D03*
X06084Y0559D02*
D03*
X06069Y05565D02*
D03*
X06051Y05588D02*
D03*
X06427Y05636D02*
D03*
X06362Y05637D02*
D03*
X06426Y05689D02*
D03*
X06363Y05687D02*
D03*
X06394Y05638D02*
D03*
X0641Y05665D02*
D03*
X06395Y05687D02*
D03*
X06435Y05665D02*
D03*
X0635Y05664D02*
D03*
X06382D02*
D03*
X06037Y05561D02*
D03*
X06194Y05449D02*
D03*
X04382Y04121D02*
D03*
X05095Y04675D02*
D03*
X0507D02*
D03*
X05459Y02356D02*
D03*
X054628Y023832D02*
D03*
X051013Y039597D02*
D03*
X049513Y043197D02*
D03*
X052099Y051831D02*
D03*
X05925Y0505D02*
D03*
X05825D02*
D03*
X05875D02*
D03*
X05775D02*
D03*
X05725D02*
D03*
X052599Y052081D02*
D03*
X051849Y051081D02*
D03*
X052849Y051831D02*
D03*
X052349D02*
D03*
X052099Y052081D02*
D03*
X052599Y051081D02*
D03*
X052099D02*
D03*
Y052331D02*
D03*
X052599Y051331D02*
D03*
X052849Y052081D02*
D03*
X052349Y052331D02*
D03*
X051599Y051081D02*
D03*
X052349D02*
D03*
X051599Y051831D02*
D03*
X051849Y052081D02*
D03*
X052849Y052331D02*
D03*
X051599Y051581D02*
D03*
X052599D02*
D03*
X051849Y051331D02*
D03*
Y051581D02*
D03*
X052349Y052081D02*
D03*
X051599Y052331D02*
D03*
X052349Y051331D02*
D03*
X052849Y051581D02*
D03*
X051849Y051831D02*
D03*
X052349Y051581D02*
D03*
X052599Y051831D02*
D03*
Y052331D02*
D03*
X051599Y051331D02*
D03*
X051849Y052331D02*
D03*
X051599Y052081D02*
D03*
X052099Y051581D02*
D03*
X052849Y051331D02*
D03*
Y051081D02*
D03*
X052099Y051331D02*
D03*
X05395Y0557D02*
D03*
X0519Y0539D02*
D03*
Y05415D02*
D03*
X05265D02*
D03*
Y0539D02*
D03*
X0524Y05415D02*
D03*
Y0539D02*
D03*
X05215Y05415D02*
D03*
Y0539D02*
D03*
X0519Y0544D02*
D03*
Y0549D02*
D03*
X0505Y0547D02*
D03*
X0519Y05465D02*
D03*
X05215Y0544D02*
D03*
X05265Y0549D02*
D03*
Y05465D02*
D03*
Y0544D02*
D03*
X0524Y0549D02*
D03*
Y0544D02*
D03*
Y05465D02*
D03*
X05215D02*
D03*
Y0549D02*
D03*
X04825Y05515D02*
D03*
X06195Y05415D02*
D03*
X06495Y0421D02*
D03*
Y03985D02*
D03*
X06445Y0411D02*
D03*
X0642Y04135D02*
D03*
X0647D02*
D03*
X06445Y04235D02*
D03*
X0642Y0426D02*
D03*
X06495Y04085D02*
D03*
X0647Y0426D02*
D03*
X06495Y0401D02*
D03*
X0647Y0421D02*
D03*
X0642Y04035D02*
D03*
X06495Y0411D02*
D03*
X06445Y03985D02*
D03*
X0642Y0416D02*
D03*
X06495Y0406D02*
D03*
X06445Y0426D02*
D03*
X0647Y0411D02*
D03*
X06445Y0406D02*
D03*
X06495Y04185D02*
D03*
X06445Y0421D02*
D03*
Y04085D02*
D03*
X0647Y04235D02*
D03*
X06495Y04035D02*
D03*
X0642Y03985D02*
D03*
Y0401D02*
D03*
X06445Y0416D02*
D03*
X0647Y0401D02*
D03*
X06495Y04135D02*
D03*
X06445D02*
D03*
Y0401D02*
D03*
X0647Y04185D02*
D03*
X0642Y0421D02*
D03*
X0647Y0406D02*
D03*
Y04035D02*
D03*
X0642Y0406D02*
D03*
Y04185D02*
D03*
X0647Y03985D02*
D03*
X0642Y0411D02*
D03*
X06445Y04035D02*
D03*
X06495Y0416D02*
D03*
X0642Y04235D02*
D03*
X0647Y0416D02*
D03*
Y04085D02*
D03*
X06495Y04235D02*
D03*
X0642Y04085D02*
D03*
X06445Y04185D02*
D03*
X0637Y04235D02*
D03*
Y04285D02*
D03*
X06295Y0426D02*
D03*
X06395D02*
D03*
X0627Y04235D02*
D03*
X06345D02*
D03*
X06295D02*
D03*
X0627Y0426D02*
D03*
X06345Y04285D02*
D03*
X0632D02*
D03*
X06345Y0426D02*
D03*
X0632Y04235D02*
D03*
X06395Y04285D02*
D03*
X0637Y0426D02*
D03*
X06295Y04285D02*
D03*
X06395Y04235D02*
D03*
X0632Y0426D02*
D03*
X0627Y04285D02*
D03*
X0602Y05595D02*
D03*
X05535Y0349D02*
D03*
X0556D02*
D03*
X05585D02*
D03*
X0561D02*
D03*
X05785D02*
D03*
X05685D02*
D03*
X05635D02*
D03*
X0566D02*
D03*
X0576D02*
D03*
X0571D02*
D03*
X05735D02*
D03*
X05835D02*
D03*
X05865D02*
D03*
X0589D02*
D03*
X0581D02*
D03*
Y03515D02*
D03*
X0589D02*
D03*
X0556D02*
D03*
X05535D02*
D03*
X0561D02*
D03*
X05585D02*
D03*
X0561Y0354D02*
D03*
X05535D02*
D03*
Y03565D02*
D03*
X05585Y0354D02*
D03*
X0556Y03565D02*
D03*
Y0354D02*
D03*
X0566Y03515D02*
D03*
X05635D02*
D03*
X0571D02*
D03*
X05685Y0354D02*
D03*
Y03515D02*
D03*
X05635Y0354D02*
D03*
Y03565D02*
D03*
X0566D02*
D03*
Y0354D02*
D03*
X05685Y03565D02*
D03*
X0571D02*
D03*
X0556Y0359D02*
D03*
X05535D02*
D03*
X0561Y03565D02*
D03*
X05585D02*
D03*
X0571Y0359D02*
D03*
X0566D02*
D03*
X05685D02*
D03*
X0561D02*
D03*
X05585D02*
D03*
X05635D02*
D03*
X05735Y03515D02*
D03*
X0576Y0354D02*
D03*
X05785Y03515D02*
D03*
X0576D02*
D03*
X05785Y0354D02*
D03*
X05735D02*
D03*
X0571D02*
D03*
X0581Y03565D02*
D03*
X0576D02*
D03*
X05785D02*
D03*
X05835Y03515D02*
D03*
Y0354D02*
D03*
X05865Y03515D02*
D03*
Y0354D02*
D03*
X0589D02*
D03*
X0581D02*
D03*
X05835Y03565D02*
D03*
X05865D02*
D03*
X0589D02*
D03*
X05735D02*
D03*
X0576Y0359D02*
D03*
X05835D02*
D03*
X05785D02*
D03*
X0581D02*
D03*
X05735D02*
D03*
X05865Y03665D02*
D03*
Y0364D02*
D03*
X0589Y0359D02*
D03*
X05865D02*
D03*
X0589Y03615D02*
D03*
X05865D02*
D03*
X0589Y0364D02*
D03*
Y0369D02*
D03*
X05865D02*
D03*
X0589Y03665D02*
D03*
X05865Y03715D02*
D03*
X0589D02*
D03*
X05471Y021895D02*
D03*
Y02212D02*
D03*
X083Y0265D02*
D03*
X08325Y026D02*
D03*
X083Y0255D02*
D03*
X08325Y025D02*
D03*
X08275Y027D02*
D03*
X0825Y0265D02*
D03*
X08275Y026D02*
D03*
X0825Y0255D02*
D03*
X082Y0275D02*
D03*
X08225Y027D02*
D03*
X082Y0265D02*
D03*
X08225Y026D02*
D03*
X0815Y0275D02*
D03*
X08175Y027D02*
D03*
X0815Y0265D02*
D03*
X08175Y026D02*
D03*
X081Y0275D02*
D03*
X08125Y027D02*
D03*
X081Y0265D02*
D03*
X08125Y026D02*
D03*
X0805Y0275D02*
D03*
X08075Y027D02*
D03*
X0805Y0265D02*
D03*
X08075Y026D02*
D03*
X0805Y0255D02*
D03*
Y0215D02*
D03*
X08Y0275D02*
D03*
X08025Y027D02*
D03*
X08Y0265D02*
D03*
X08025Y026D02*
D03*
X08Y0255D02*
D03*
Y0215D02*
D03*
X0795Y0265D02*
D03*
X07975Y026D02*
D03*
X0795Y0255D02*
D03*
X07975Y025D02*
D03*
X0795Y0245D02*
D03*
Y0225D02*
D03*
X07975Y022D02*
D03*
X079Y0265D02*
D03*
X07925Y026D02*
D03*
X079Y0255D02*
D03*
X07925Y025D02*
D03*
X079Y0245D02*
D03*
X07925Y024D02*
D03*
X079Y0235D02*
D03*
X07925Y023D02*
D03*
X079Y0225D02*
D03*
X07925Y022D02*
D03*
X0785Y0275D02*
D03*
X07875Y027D02*
D03*
X0785Y0265D02*
D03*
X07875Y026D02*
D03*
X0785Y0255D02*
D03*
X07875Y025D02*
D03*
X0785Y0245D02*
D03*
X07875Y024D02*
D03*
X0785Y0235D02*
D03*
X07875Y023D02*
D03*
X0785Y0225D02*
D03*
X07875Y022D02*
D03*
X078Y0275D02*
D03*
X07825Y027D02*
D03*
X078Y0265D02*
D03*
X07825Y026D02*
D03*
X078Y0255D02*
D03*
X07825Y025D02*
D03*
X078Y0245D02*
D03*
X07825Y024D02*
D03*
X078Y0235D02*
D03*
X07825Y023D02*
D03*
X078Y0225D02*
D03*
X07825Y022D02*
D03*
X07775Y027D02*
D03*
X0775Y0265D02*
D03*
X07775Y026D02*
D03*
X0775Y0255D02*
D03*
X07775Y025D02*
D03*
X0775Y0245D02*
D03*
X07775Y024D02*
D03*
X0775Y0235D02*
D03*
X07775Y023D02*
D03*
X0775Y0225D02*
D03*
X07775Y022D02*
D03*
X07725Y027D02*
D03*
X077Y0265D02*
D03*
X07725Y026D02*
D03*
X077Y0255D02*
D03*
X07725Y025D02*
D03*
X077Y0245D02*
D03*
X07725Y024D02*
D03*
X077Y0235D02*
D03*
X07725Y023D02*
D03*
X077Y0225D02*
D03*
X07725Y022D02*
D03*
X0765Y0265D02*
D03*
X07675Y026D02*
D03*
X0765Y0255D02*
D03*
X07675Y025D02*
D03*
X0765Y0245D02*
D03*
X07675Y024D02*
D03*
X0765Y0235D02*
D03*
X07675Y023D02*
D03*
X0765Y0225D02*
D03*
X07675Y022D02*
D03*
X076Y0265D02*
D03*
X07625Y026D02*
D03*
X076Y0255D02*
D03*
X07625Y025D02*
D03*
X076Y0245D02*
D03*
X07625Y024D02*
D03*
X076Y0235D02*
D03*
X07625Y023D02*
D03*
X076Y0225D02*
D03*
X07625Y022D02*
D03*
X0755Y0265D02*
D03*
X07575Y026D02*
D03*
X0755Y0255D02*
D03*
X07575Y025D02*
D03*
X0755Y0245D02*
D03*
X07575Y024D02*
D03*
X0755Y0235D02*
D03*
X07575Y023D02*
D03*
X0755Y0225D02*
D03*
X07575Y022D02*
D03*
X075Y0265D02*
D03*
X07525Y026D02*
D03*
X075Y0255D02*
D03*
X07525Y025D02*
D03*
X075Y0245D02*
D03*
X07525Y024D02*
D03*
X075Y0235D02*
D03*
X07525Y023D02*
D03*
X075Y0225D02*
D03*
X07525Y022D02*
D03*
X0745Y0265D02*
D03*
X07475Y026D02*
D03*
X0745Y0255D02*
D03*
X07475Y025D02*
D03*
X0745Y0245D02*
D03*
X07475Y024D02*
D03*
X0745Y0235D02*
D03*
X07475Y023D02*
D03*
X0745Y0225D02*
D03*
X07475Y022D02*
D03*
X074Y0265D02*
D03*
X07425Y026D02*
D03*
X074Y0255D02*
D03*
X07425Y025D02*
D03*
X074Y0245D02*
D03*
X07425Y024D02*
D03*
X074Y0235D02*
D03*
X07425Y023D02*
D03*
X074Y0225D02*
D03*
X07425Y022D02*
D03*
X0735Y0265D02*
D03*
X07375Y026D02*
D03*
X0735Y0255D02*
D03*
X07375Y025D02*
D03*
X0735Y0245D02*
D03*
X07375Y024D02*
D03*
X0735Y0235D02*
D03*
X07375Y023D02*
D03*
X0735Y0225D02*
D03*
X07375Y022D02*
D03*
X073Y0265D02*
D03*
X07325Y026D02*
D03*
X073Y0255D02*
D03*
X07325Y025D02*
D03*
X073Y0245D02*
D03*
X07325Y024D02*
D03*
X073Y0235D02*
D03*
X07325Y023D02*
D03*
X0725Y0265D02*
D03*
X07275Y026D02*
D03*
X0725Y0255D02*
D03*
X07275Y025D02*
D03*
X0725Y0245D02*
D03*
X07275Y024D02*
D03*
X0725Y0235D02*
D03*
X07275Y023D02*
D03*
X08325Y05D02*
D03*
X083Y0495D02*
D03*
X08325Y049D02*
D03*
X083Y0485D02*
D03*
X08275Y05D02*
D03*
X0825Y0495D02*
D03*
X08275Y049D02*
D03*
X0825Y0485D02*
D03*
X082Y0495D02*
D03*
X08225Y049D02*
D03*
X082Y0485D02*
D03*
X0815Y0495D02*
D03*
X08175Y049D02*
D03*
X0815Y0485D02*
D03*
X081Y0495D02*
D03*
X08125Y049D02*
D03*
X081Y0485D02*
D03*
X0805Y0495D02*
D03*
X08075Y049D02*
D03*
X0805Y0485D02*
D03*
X08025Y05D02*
D03*
X08Y0495D02*
D03*
X08025Y049D02*
D03*
X0795Y0535D02*
D03*
Y0505D02*
D03*
X07975Y05D02*
D03*
X0795Y0495D02*
D03*
X079Y0535D02*
D03*
X07925Y053D02*
D03*
X079Y0525D02*
D03*
Y0515D02*
D03*
X07925Y051D02*
D03*
X079Y0505D02*
D03*
X07925Y05D02*
D03*
X079Y0495D02*
D03*
X0785Y0535D02*
D03*
X07875Y053D02*
D03*
X0785Y0525D02*
D03*
X07875Y052D02*
D03*
X0785Y0515D02*
D03*
X07875Y051D02*
D03*
X0785Y0505D02*
D03*
X07875Y05D02*
D03*
X0785Y0495D02*
D03*
Y0485D02*
D03*
X078Y0535D02*
D03*
X07825Y053D02*
D03*
X078Y0525D02*
D03*
X07825Y052D02*
D03*
X078Y0515D02*
D03*
X07825Y051D02*
D03*
X078Y0505D02*
D03*
X07825Y05D02*
D03*
X078Y0495D02*
D03*
X07825Y049D02*
D03*
X078Y0485D02*
D03*
X0775Y0535D02*
D03*
X07775Y053D02*
D03*
X0775Y0525D02*
D03*
X07775Y052D02*
D03*
X0775Y0515D02*
D03*
X07775Y051D02*
D03*
X0775Y0505D02*
D03*
X07775Y05D02*
D03*
X0775Y0495D02*
D03*
X07775Y049D02*
D03*
X0775Y0485D02*
D03*
X077Y0535D02*
D03*
X07725Y053D02*
D03*
X077Y0525D02*
D03*
X07725Y052D02*
D03*
X077Y0515D02*
D03*
X07725Y051D02*
D03*
X077Y0505D02*
D03*
X07725Y05D02*
D03*
X077Y0495D02*
D03*
X07725Y049D02*
D03*
X077Y0485D02*
D03*
X0765Y0535D02*
D03*
X07675Y053D02*
D03*
X0765Y0525D02*
D03*
X07675Y052D02*
D03*
X0765Y0515D02*
D03*
X07675Y051D02*
D03*
X0765Y0505D02*
D03*
X07675Y05D02*
D03*
X0765Y0495D02*
D03*
X07675Y049D02*
D03*
X076Y0535D02*
D03*
X07625Y053D02*
D03*
X076Y0525D02*
D03*
X07625Y052D02*
D03*
X076Y0515D02*
D03*
X07625Y051D02*
D03*
X076Y0505D02*
D03*
X07625Y05D02*
D03*
X076Y0495D02*
D03*
X07625Y049D02*
D03*
X0755Y0535D02*
D03*
X07575Y053D02*
D03*
X0755Y0525D02*
D03*
X07575Y052D02*
D03*
X0755Y0515D02*
D03*
X07575Y051D02*
D03*
X0755Y0505D02*
D03*
X07575Y05D02*
D03*
X0755Y0495D02*
D03*
X07575Y049D02*
D03*
X075Y0535D02*
D03*
X07525Y053D02*
D03*
X075Y0525D02*
D03*
X07525Y052D02*
D03*
X075Y0515D02*
D03*
X07525Y051D02*
D03*
X075Y0505D02*
D03*
X07525Y05D02*
D03*
X075Y0495D02*
D03*
X07525Y049D02*
D03*
X0745Y0535D02*
D03*
X07475Y053D02*
D03*
X0745Y0525D02*
D03*
X07475Y052D02*
D03*
X0745Y0515D02*
D03*
X07475Y051D02*
D03*
X0745Y0505D02*
D03*
X07475Y05D02*
D03*
X0745Y0495D02*
D03*
X07475Y049D02*
D03*
X074Y0535D02*
D03*
X07425Y053D02*
D03*
X074Y0525D02*
D03*
X07425Y052D02*
D03*
X074Y0515D02*
D03*
X07425Y051D02*
D03*
X074Y0505D02*
D03*
X07425Y05D02*
D03*
X074Y0495D02*
D03*
X07425Y049D02*
D03*
X0735Y0535D02*
D03*
X07375Y053D02*
D03*
X0735Y0525D02*
D03*
X07375Y052D02*
D03*
X0735Y0515D02*
D03*
X07375Y051D02*
D03*
X0735Y0505D02*
D03*
X07375Y05D02*
D03*
X0735Y0495D02*
D03*
X07375Y049D02*
D03*
X07325Y053D02*
D03*
X073Y0525D02*
D03*
X07325Y052D02*
D03*
X073Y0515D02*
D03*
X07325Y051D02*
D03*
X073Y0505D02*
D03*
X07325Y05D02*
D03*
X073Y0495D02*
D03*
X07325Y049D02*
D03*
X0725Y0525D02*
D03*
X07275Y052D02*
D03*
Y051D02*
D03*
Y05D02*
D03*
Y049D02*
D03*
X07575Y028D02*
D03*
X07425D02*
D03*
X074Y0275D02*
D03*
X073D02*
D03*
X0725D02*
D03*
X07175Y028D02*
D03*
X0715Y0275D02*
D03*
X07125Y028D02*
D03*
X071Y0275D02*
D03*
X07075Y028D02*
D03*
X0695Y0275D02*
D03*
X06975Y022D02*
D03*
Y021D02*
D03*
X0695Y0195D02*
D03*
X069Y0275D02*
D03*
Y0265D02*
D03*
Y0255D02*
D03*
Y0235D02*
D03*
X06925Y022D02*
D03*
X069Y0205D02*
D03*
Y0195D02*
D03*
X06875Y028D02*
D03*
Y027D02*
D03*
X0685Y0245D02*
D03*
Y0235D02*
D03*
X06875Y023D02*
D03*
Y022D02*
D03*
X0685Y0215D02*
D03*
X06875Y021D02*
D03*
X0685Y0205D02*
D03*
X06875Y02D02*
D03*
X068Y0275D02*
D03*
X06825Y026D02*
D03*
Y025D02*
D03*
X068Y0245D02*
D03*
Y0235D02*
D03*
Y0215D02*
D03*
Y0205D02*
D03*
X06825Y02D02*
D03*
X0675Y0265D02*
D03*
X06775Y026D02*
D03*
X0675Y0255D02*
D03*
Y0245D02*
D03*
X06775Y024D02*
D03*
X0675Y0225D02*
D03*
Y0215D02*
D03*
Y0205D02*
D03*
X06775Y02D02*
D03*
X067Y0275D02*
D03*
X06725Y027D02*
D03*
X067Y0245D02*
D03*
Y0225D02*
D03*
X06725Y021D02*
D03*
X067Y0205D02*
D03*
Y0195D02*
D03*
X0665Y0275D02*
D03*
Y0255D02*
D03*
X06675Y023D02*
D03*
X0665Y0225D02*
D03*
Y0205D02*
D03*
Y0195D02*
D03*
X06625Y028D02*
D03*
X066Y0265D02*
D03*
Y0255D02*
D03*
X06625Y023D02*
D03*
X066Y0195D02*
D03*
X0655Y0275D02*
D03*
X06575Y027D02*
D03*
Y024D02*
D03*
Y023D02*
D03*
Y021D02*
D03*
X0655Y0205D02*
D03*
X06525Y028D02*
D03*
Y027D02*
D03*
Y026D02*
D03*
Y025D02*
D03*
X065Y0245D02*
D03*
Y0225D02*
D03*
X06525Y022D02*
D03*
X065Y0215D02*
D03*
X06525Y02D02*
D03*
X06475Y026D02*
D03*
Y025D02*
D03*
Y024D02*
D03*
X0645Y0235D02*
D03*
X06475Y023D02*
D03*
X0645Y0225D02*
D03*
Y0215D02*
D03*
Y0205D02*
D03*
X064Y0275D02*
D03*
X06425Y025D02*
D03*
Y023D02*
D03*
X0635Y0275D02*
D03*
Y0265D02*
D03*
X06375Y026D02*
D03*
X0635Y0255D02*
D03*
Y0245D02*
D03*
X06225Y027D02*
D03*
X062Y0265D02*
D03*
X06175Y027D02*
D03*
X0615Y0255D02*
D03*
X06125Y027D02*
D03*
X0605Y0265D02*
D03*
X06075Y026D02*
D03*
X06025Y027D02*
D03*
X06Y0265D02*
D03*
X07475Y028D02*
D03*
X0745Y0275D02*
D03*
X07375Y028D02*
D03*
X0735Y0275D02*
D03*
X072D02*
D03*
X0705D02*
D03*
X07Y0225D02*
D03*
X0695D02*
D03*
Y0215D02*
D03*
Y0205D02*
D03*
X06975Y02D02*
D03*
X06925Y028D02*
D03*
Y027D02*
D03*
Y026D02*
D03*
Y025D02*
D03*
X069Y0245D02*
D03*
X06925Y024D02*
D03*
Y023D02*
D03*
X069Y0225D02*
D03*
Y0215D02*
D03*
X06925Y021D02*
D03*
Y02D02*
D03*
X0685Y0275D02*
D03*
Y0265D02*
D03*
X06875Y026D02*
D03*
X0685Y0255D02*
D03*
X06875Y025D02*
D03*
Y024D02*
D03*
X0685Y0225D02*
D03*
Y0195D02*
D03*
X06825Y028D02*
D03*
Y027D02*
D03*
X068Y0265D02*
D03*
Y0255D02*
D03*
X06825Y024D02*
D03*
Y023D02*
D03*
X068Y0225D02*
D03*
X06825Y022D02*
D03*
Y021D02*
D03*
X068Y0195D02*
D03*
X0675Y0275D02*
D03*
X06775Y027D02*
D03*
Y025D02*
D03*
X0675Y0235D02*
D03*
X06775Y023D02*
D03*
Y022D02*
D03*
Y021D02*
D03*
X0675Y0195D02*
D03*
X067Y0265D02*
D03*
X06725Y026D02*
D03*
X067Y0255D02*
D03*
X06725Y025D02*
D03*
Y024D02*
D03*
X067Y0235D02*
D03*
X06725Y023D02*
D03*
Y022D02*
D03*
X067Y0215D02*
D03*
X06725Y02D02*
D03*
X06675Y027D02*
D03*
X0665Y0265D02*
D03*
X06675Y026D02*
D03*
Y025D02*
D03*
X0665Y0245D02*
D03*
X06675Y024D02*
D03*
X0665Y0235D02*
D03*
X06675Y022D02*
D03*
X0665Y0215D02*
D03*
X06675Y021D02*
D03*
Y02D02*
D03*
X066Y0275D02*
D03*
X06625Y027D02*
D03*
Y026D02*
D03*
Y025D02*
D03*
X066Y0245D02*
D03*
X06625Y024D02*
D03*
X066Y0235D02*
D03*
Y0225D02*
D03*
X06625Y022D02*
D03*
X066Y0215D02*
D03*
X06625Y021D02*
D03*
X066Y0205D02*
D03*
X06625Y02D02*
D03*
X06575Y028D02*
D03*
X0655Y0265D02*
D03*
X06575Y026D02*
D03*
X0655Y0255D02*
D03*
X06575Y025D02*
D03*
X0655Y0245D02*
D03*
Y0235D02*
D03*
Y0225D02*
D03*
X06575Y022D02*
D03*
X0655Y0215D02*
D03*
X06575Y02D02*
D03*
X0655Y0195D02*
D03*
X065Y0265D02*
D03*
Y0255D02*
D03*
X06525Y024D02*
D03*
X065Y0235D02*
D03*
X06525Y023D02*
D03*
Y021D02*
D03*
X065Y0205D02*
D03*
X06475Y027D02*
D03*
X0645Y0265D02*
D03*
Y0255D02*
D03*
Y0245D02*
D03*
X06475Y022D02*
D03*
Y021D02*
D03*
Y02D02*
D03*
X06425Y028D02*
D03*
Y027D02*
D03*
X064Y0265D02*
D03*
X06425Y026D02*
D03*
X064Y0255D02*
D03*
Y0245D02*
D03*
X06425Y024D02*
D03*
Y022D02*
D03*
Y021D02*
D03*
X06375Y028D02*
D03*
Y027D02*
D03*
Y025D02*
D03*
X06325Y028D02*
D03*
X063Y0275D02*
D03*
X06325Y027D02*
D03*
X063Y0265D02*
D03*
X06325Y026D02*
D03*
X063Y0255D02*
D03*
X06325Y025D02*
D03*
X0625Y0275D02*
D03*
X06275Y027D02*
D03*
X0625Y0265D02*
D03*
X06275Y026D02*
D03*
X0625Y0255D02*
D03*
X062Y0275D02*
D03*
X06225Y026D02*
D03*
X062Y0255D02*
D03*
X0615Y0265D02*
D03*
X06175Y026D02*
D03*
X061Y0265D02*
D03*
X06125Y026D02*
D03*
X061Y0255D02*
D03*
X06075Y027D02*
D03*
X0605Y0255D02*
D03*
X06025Y026D02*
D03*
X07575Y0475D02*
D03*
X0745Y048D02*
D03*
X07475Y0475D02*
D03*
X074Y048D02*
D03*
X07425Y0475D02*
D03*
X0735Y048D02*
D03*
X07375Y0475D02*
D03*
X073Y048D02*
D03*
X0725D02*
D03*
X072D02*
D03*
X0715D02*
D03*
X07175Y0475D02*
D03*
X071Y048D02*
D03*
X07125Y0475D02*
D03*
X0705Y048D02*
D03*
X07075Y0475D02*
D03*
X07Y053D02*
D03*
X0695Y056D02*
D03*
X06975Y0555D02*
D03*
X0695Y055D02*
D03*
X06975Y0545D02*
D03*
X0695Y054D02*
D03*
X06975Y0535D02*
D03*
X0695Y053D02*
D03*
Y052D02*
D03*
Y051D02*
D03*
Y05D02*
D03*
Y049D02*
D03*
X06975Y0485D02*
D03*
X0695Y048D02*
D03*
X069Y056D02*
D03*
X06925Y0555D02*
D03*
X069Y055D02*
D03*
X06925Y0545D02*
D03*
X069Y054D02*
D03*
X06925Y0535D02*
D03*
X069Y053D02*
D03*
X06925Y0525D02*
D03*
X069Y052D02*
D03*
X06925Y0515D02*
D03*
X069Y051D02*
D03*
X06925Y0505D02*
D03*
X069Y05D02*
D03*
X06925Y0495D02*
D03*
X069Y049D02*
D03*
X06925Y0485D02*
D03*
X069Y048D02*
D03*
X06925Y0475D02*
D03*
X0685Y056D02*
D03*
X06875Y0555D02*
D03*
X0685Y055D02*
D03*
X06875Y0545D02*
D03*
X0685Y054D02*
D03*
X06875Y0535D02*
D03*
X0685Y053D02*
D03*
X06875Y0525D02*
D03*
X0685Y052D02*
D03*
X06875Y0515D02*
D03*
X0685Y051D02*
D03*
X06875Y0505D02*
D03*
X0685Y05D02*
D03*
X06875Y0495D02*
D03*
X0685Y049D02*
D03*
X06875Y0485D02*
D03*
X0685Y048D02*
D03*
X06875Y0475D02*
D03*
X068Y056D02*
D03*
X06825Y0555D02*
D03*
X068Y055D02*
D03*
X06825Y0545D02*
D03*
X068Y054D02*
D03*
X06825Y0535D02*
D03*
X068Y053D02*
D03*
X06825Y0525D02*
D03*
X068Y052D02*
D03*
X06825Y0515D02*
D03*
X068Y051D02*
D03*
X06825Y0505D02*
D03*
X068Y05D02*
D03*
X06825Y0495D02*
D03*
X068Y049D02*
D03*
X06825Y0485D02*
D03*
X068Y048D02*
D03*
X06825Y0475D02*
D03*
X0675Y056D02*
D03*
X06775Y0555D02*
D03*
X0675Y055D02*
D03*
X06775Y0545D02*
D03*
X0675Y054D02*
D03*
X06775Y0535D02*
D03*
X0675Y053D02*
D03*
X06775Y0525D02*
D03*
X0675Y052D02*
D03*
X06775Y0515D02*
D03*
X0675Y051D02*
D03*
X06775Y0505D02*
D03*
X0675Y05D02*
D03*
X06775Y0495D02*
D03*
X0675Y049D02*
D03*
X06775Y0485D02*
D03*
X0675Y048D02*
D03*
X067Y056D02*
D03*
X06725Y0555D02*
D03*
X067Y055D02*
D03*
X06725Y0545D02*
D03*
X067Y054D02*
D03*
X06725Y0535D02*
D03*
X067Y053D02*
D03*
X06725Y0525D02*
D03*
X067Y052D02*
D03*
X06725Y0515D02*
D03*
X067Y051D02*
D03*
X06725Y0505D02*
D03*
X067Y05D02*
D03*
X06725Y0495D02*
D03*
X067Y049D02*
D03*
X06725Y0485D02*
D03*
X067Y048D02*
D03*
X0665Y056D02*
D03*
X06675Y0555D02*
D03*
X0665Y055D02*
D03*
X06675Y0545D02*
D03*
X0665Y054D02*
D03*
X06675Y0535D02*
D03*
X0665Y053D02*
D03*
X06675Y0525D02*
D03*
X0665Y052D02*
D03*
X06675Y0515D02*
D03*
X0665Y051D02*
D03*
X06675Y0505D02*
D03*
X0665Y05D02*
D03*
X06675Y0495D02*
D03*
X0665Y049D02*
D03*
X06675Y0485D02*
D03*
X0665Y048D02*
D03*
X066Y056D02*
D03*
X06625Y0555D02*
D03*
X066Y055D02*
D03*
X06625Y0545D02*
D03*
X066Y054D02*
D03*
X06625Y0535D02*
D03*
X066Y053D02*
D03*
X06625Y0525D02*
D03*
X066Y052D02*
D03*
X06625Y0515D02*
D03*
X066Y051D02*
D03*
X06625Y0505D02*
D03*
X066Y05D02*
D03*
X06625Y0495D02*
D03*
X066Y049D02*
D03*
X06625Y0485D02*
D03*
X066Y048D02*
D03*
X06625Y0475D02*
D03*
X06575Y0555D02*
D03*
X0655Y055D02*
D03*
X06575Y0545D02*
D03*
X0655Y054D02*
D03*
X06575Y0535D02*
D03*
X0655Y053D02*
D03*
X06575Y0525D02*
D03*
X0655Y052D02*
D03*
X06575Y0515D02*
D03*
X0655Y051D02*
D03*
X06575Y0505D02*
D03*
X0655Y05D02*
D03*
X06575Y0495D02*
D03*
X0655Y049D02*
D03*
X06575Y0485D02*
D03*
X0655Y048D02*
D03*
X06575Y0475D02*
D03*
X06525Y0555D02*
D03*
X065Y055D02*
D03*
X06525Y0545D02*
D03*
X065Y054D02*
D03*
X06525Y0535D02*
D03*
X065Y053D02*
D03*
X06525Y0525D02*
D03*
X065Y052D02*
D03*
X06525Y0515D02*
D03*
X065Y051D02*
D03*
X06525Y0505D02*
D03*
X065Y05D02*
D03*
X06525Y0495D02*
D03*
X065Y049D02*
D03*
X06525Y0485D02*
D03*
Y0475D02*
D03*
X06475Y0545D02*
D03*
X0645Y054D02*
D03*
X06475Y0535D02*
D03*
X0645Y053D02*
D03*
X06475Y0525D02*
D03*
X0645Y052D02*
D03*
X06475Y0515D02*
D03*
X0645Y051D02*
D03*
X06475Y0505D02*
D03*
X0645Y05D02*
D03*
X06475Y0495D02*
D03*
X0645Y049D02*
D03*
X06475Y0485D02*
D03*
X06425Y0515D02*
D03*
X064Y051D02*
D03*
X06425Y0505D02*
D03*
X064Y05D02*
D03*
X06425Y0495D02*
D03*
X064Y049D02*
D03*
X06425Y0485D02*
D03*
X064Y048D02*
D03*
X06425Y0475D02*
D03*
X06375Y0515D02*
D03*
X0635Y051D02*
D03*
X06375Y0505D02*
D03*
X0635Y05D02*
D03*
X06375Y0495D02*
D03*
X0635Y049D02*
D03*
X06375Y0485D02*
D03*
X0635Y048D02*
D03*
X063Y051D02*
D03*
X06325Y0505D02*
D03*
X063Y05D02*
D03*
X06325Y0495D02*
D03*
X063Y049D02*
D03*
X06325Y0485D02*
D03*
X063Y048D02*
D03*
X0625Y051D02*
D03*
X06275Y0505D02*
D03*
X0625Y05D02*
D03*
X06275Y0495D02*
D03*
X0625Y049D02*
D03*
X06275Y0485D02*
D03*
X0625Y048D02*
D03*
X062Y051D02*
D03*
X06225Y0505D02*
D03*
X062Y05D02*
D03*
X06225Y0495D02*
D03*
X062Y049D02*
D03*
X06225Y0485D02*
D03*
X062Y048D02*
D03*
X06225Y0475D02*
D03*
X062Y047D02*
D03*
X0615Y051D02*
D03*
X06175Y0505D02*
D03*
X0615Y05D02*
D03*
X06175Y0495D02*
D03*
X0615Y049D02*
D03*
X06175Y0485D02*
D03*
X0615Y048D02*
D03*
X06175Y0475D02*
D03*
X0615Y047D02*
D03*
X061Y051D02*
D03*
X06125Y0505D02*
D03*
X061Y05D02*
D03*
X06125Y0495D02*
D03*
X061Y049D02*
D03*
X06125Y0485D02*
D03*
X061Y048D02*
D03*
X06125Y0475D02*
D03*
X061Y047D02*
D03*
X06125Y0465D02*
D03*
X061Y046D02*
D03*
X0605Y051D02*
D03*
X06075Y0505D02*
D03*
X0605Y05D02*
D03*
X06075Y0495D02*
D03*
X0605Y049D02*
D03*
X06075Y0485D02*
D03*
X0605Y048D02*
D03*
X06075Y0475D02*
D03*
X0605Y047D02*
D03*
X06075Y0465D02*
D03*
X0605Y046D02*
D03*
X06025Y0505D02*
D03*
X06Y05D02*
D03*
X06025Y0495D02*
D03*
X06Y049D02*
D03*
X06025Y0485D02*
D03*
X06Y048D02*
D03*
X06025Y0475D02*
D03*
X06Y047D02*
D03*
X06025Y0465D02*
D03*
X06Y046D02*
D03*
X06025Y0455D02*
D03*
X06Y045D02*
D03*
X05975Y0505D02*
D03*
X0595Y05D02*
D03*
X05975Y0495D02*
D03*
X0595Y049D02*
D03*
X05975Y0485D02*
D03*
X0595Y048D02*
D03*
X05975Y0475D02*
D03*
X0595Y047D02*
D03*
X05975Y0465D02*
D03*
X0595Y046D02*
D03*
X05975Y0455D02*
D03*
X0595Y045D02*
D03*
X05975Y0445D02*
D03*
X0595Y044D02*
D03*
X059Y05D02*
D03*
X05925Y0495D02*
D03*
X059Y049D02*
D03*
X05925Y0485D02*
D03*
X059Y048D02*
D03*
X05925Y0475D02*
D03*
X059Y047D02*
D03*
X05925Y0465D02*
D03*
X059Y046D02*
D03*
X05925Y0455D02*
D03*
X059Y045D02*
D03*
X05925Y0445D02*
D03*
X059Y044D02*
D03*
X0585Y05D02*
D03*
X05875Y0495D02*
D03*
X0585Y049D02*
D03*
X05875Y0485D02*
D03*
X0585Y048D02*
D03*
X05875Y0475D02*
D03*
Y0455D02*
D03*
Y0445D02*
D03*
X058Y05D02*
D03*
X05825Y0495D02*
D03*
X058Y049D02*
D03*
X05825Y0485D02*
D03*
X058Y048D02*
D03*
X0575Y05D02*
D03*
X05775Y0495D02*
D03*
X0575Y049D02*
D03*
X05775Y0485D02*
D03*
X0575Y048D02*
D03*
X057Y05D02*
D03*
X05725Y0495D02*
D03*
X057Y049D02*
D03*
X05725Y0485D02*
D03*
X057Y048D02*
D03*
X05675Y0505D02*
D03*
X0565Y05D02*
D03*
X05675Y0495D02*
D03*
X0565Y049D02*
D03*
X05675Y0485D02*
D03*
X0565Y048D02*
D03*
X05625Y0505D02*
D03*
X056Y05D02*
D03*
X05625Y0495D02*
D03*
X056Y049D02*
D03*
X05625Y0485D02*
D03*
X056Y048D02*
D03*
X05575Y0505D02*
D03*
X0555Y05D02*
D03*
X05575Y0495D02*
D03*
X0555Y049D02*
D03*
X05575Y0485D02*
D03*
X0555Y048D02*
D03*
X05525Y0495D02*
D03*
X055Y049D02*
D03*
X05525Y0485D02*
D03*
X055Y048D02*
D03*
X06495Y03835D02*
D03*
X0647D02*
D03*
Y0386D02*
D03*
X06495D02*
D03*
X0647Y03885D02*
D03*
X06495D02*
D03*
Y0396D02*
D03*
X0647D02*
D03*
X06495Y03935D02*
D03*
X0647D02*
D03*
Y0391D02*
D03*
X06495D02*
D03*
X06445Y03885D02*
D03*
X0642D02*
D03*
X06445Y0386D02*
D03*
X0642D02*
D03*
Y03835D02*
D03*
X06445D02*
D03*
Y0396D02*
D03*
X0642D02*
D03*
X06445Y03935D02*
D03*
X0642D02*
D03*
Y0391D02*
D03*
X06445D02*
D03*
X0627Y03835D02*
D03*
Y0386D02*
D03*
X06295D02*
D03*
Y03835D02*
D03*
X0632Y0386D02*
D03*
Y03835D02*
D03*
X06395D02*
D03*
Y0386D02*
D03*
X0637Y03835D02*
D03*
Y0386D02*
D03*
X06345D02*
D03*
Y03835D02*
D03*
X0632Y03885D02*
D03*
Y0391D02*
D03*
X06295Y03885D02*
D03*
Y0391D02*
D03*
X0627D02*
D03*
Y03885D02*
D03*
X06395D02*
D03*
Y0391D02*
D03*
X0637Y03885D02*
D03*
Y0391D02*
D03*
X06345D02*
D03*
Y03885D02*
D03*
X0627Y03935D02*
D03*
Y0396D02*
D03*
X06295D02*
D03*
Y03935D02*
D03*
X0632Y0396D02*
D03*
Y03935D02*
D03*
X06395D02*
D03*
Y0396D02*
D03*
X0637Y03935D02*
D03*
Y0396D02*
D03*
X06345D02*
D03*
Y03935D02*
D03*
X0632Y03985D02*
D03*
Y0401D02*
D03*
X06295Y03985D02*
D03*
Y0401D02*
D03*
X0627D02*
D03*
Y03985D02*
D03*
X06395D02*
D03*
Y0401D02*
D03*
X0637Y03985D02*
D03*
Y0401D02*
D03*
X06345D02*
D03*
Y03985D02*
D03*
X0627Y04035D02*
D03*
Y0406D02*
D03*
X06295D02*
D03*
Y04035D02*
D03*
X0632Y0406D02*
D03*
Y04035D02*
D03*
X06395D02*
D03*
Y0406D02*
D03*
X0637Y04035D02*
D03*
Y0406D02*
D03*
X06345D02*
D03*
Y04035D02*
D03*
X0632Y04085D02*
D03*
Y0411D02*
D03*
X06295Y04085D02*
D03*
Y0411D02*
D03*
X0627D02*
D03*
Y04085D02*
D03*
X06395D02*
D03*
Y0411D02*
D03*
X0637Y04085D02*
D03*
Y0411D02*
D03*
X06345D02*
D03*
Y04085D02*
D03*
X0627Y04135D02*
D03*
Y0416D02*
D03*
X06295D02*
D03*
Y04135D02*
D03*
X0632Y0416D02*
D03*
Y04135D02*
D03*
X06395D02*
D03*
Y0416D02*
D03*
X0637Y04135D02*
D03*
Y0416D02*
D03*
X06345D02*
D03*
Y04135D02*
D03*
X0632Y04185D02*
D03*
Y0421D02*
D03*
X06295Y04185D02*
D03*
Y0421D02*
D03*
X0627D02*
D03*
Y04185D02*
D03*
X06395D02*
D03*
Y0421D02*
D03*
X0637Y04185D02*
D03*
Y0421D02*
D03*
X06345D02*
D03*
Y04185D02*
D03*
X05565Y0415D02*
D03*
X0554D02*
D03*
X05565Y041D02*
D03*
Y04125D02*
D03*
X0554Y041D02*
D03*
Y04125D02*
D03*
X05515Y041D02*
D03*
Y04125D02*
D03*
X0549D02*
D03*
Y041D02*
D03*
X05665Y0415D02*
D03*
X0559D02*
D03*
X05615D02*
D03*
X0564D02*
D03*
X05665Y041D02*
D03*
Y04125D02*
D03*
X0564Y041D02*
D03*
Y04125D02*
D03*
X05615Y041D02*
D03*
Y04125D02*
D03*
X0559D02*
D03*
Y041D02*
D03*
X05765Y0415D02*
D03*
X0569D02*
D03*
X05715D02*
D03*
X0574D02*
D03*
X05765Y041D02*
D03*
Y04125D02*
D03*
X0574Y041D02*
D03*
Y04125D02*
D03*
X05715Y041D02*
D03*
Y04125D02*
D03*
X0569D02*
D03*
Y041D02*
D03*
X05565Y0405D02*
D03*
Y04075D02*
D03*
X0549Y0405D02*
D03*
Y04075D02*
D03*
X05515D02*
D03*
Y0405D02*
D03*
X0554Y04075D02*
D03*
Y0405D02*
D03*
X05565Y04D02*
D03*
Y04025D02*
D03*
X0554Y04D02*
D03*
Y04025D02*
D03*
X05515Y04D02*
D03*
Y04025D02*
D03*
X0549D02*
D03*
Y04D02*
D03*
X05665Y0405D02*
D03*
Y04075D02*
D03*
X0559Y0405D02*
D03*
Y04075D02*
D03*
X05615D02*
D03*
Y0405D02*
D03*
X0564Y04075D02*
D03*
Y0405D02*
D03*
X05665Y04D02*
D03*
Y04025D02*
D03*
X0564Y04D02*
D03*
Y04025D02*
D03*
X05615Y04D02*
D03*
Y04025D02*
D03*
X0559D02*
D03*
Y04D02*
D03*
X05765Y0405D02*
D03*
Y04075D02*
D03*
X0569Y0405D02*
D03*
Y04075D02*
D03*
X05715D02*
D03*
Y0405D02*
D03*
X0574Y04075D02*
D03*
Y0405D02*
D03*
X05765Y04D02*
D03*
Y04025D02*
D03*
X0574Y04D02*
D03*
Y04025D02*
D03*
X05715Y04D02*
D03*
Y04025D02*
D03*
X0569D02*
D03*
Y04D02*
D03*
X05565Y0395D02*
D03*
Y03975D02*
D03*
X0549Y0395D02*
D03*
Y03975D02*
D03*
X05515D02*
D03*
Y0395D02*
D03*
X0554Y03975D02*
D03*
Y0395D02*
D03*
X05565Y039D02*
D03*
Y03925D02*
D03*
X0554Y039D02*
D03*
Y03925D02*
D03*
X05515Y039D02*
D03*
Y03925D02*
D03*
X0549D02*
D03*
Y039D02*
D03*
X05665Y0395D02*
D03*
Y03975D02*
D03*
X0559Y0395D02*
D03*
Y03975D02*
D03*
X05615D02*
D03*
Y0395D02*
D03*
X0564Y03975D02*
D03*
Y0395D02*
D03*
X05665Y039D02*
D03*
Y03925D02*
D03*
X0564Y039D02*
D03*
Y03925D02*
D03*
X05615Y039D02*
D03*
Y03925D02*
D03*
X0559D02*
D03*
Y039D02*
D03*
X05765Y0395D02*
D03*
Y03975D02*
D03*
X0569Y0395D02*
D03*
Y03975D02*
D03*
X05715D02*
D03*
Y0395D02*
D03*
X0574Y03975D02*
D03*
Y0395D02*
D03*
X05765Y039D02*
D03*
Y03925D02*
D03*
X0574Y039D02*
D03*
Y03925D02*
D03*
X05715Y039D02*
D03*
Y03925D02*
D03*
X0569D02*
D03*
Y039D02*
D03*
X05565Y0385D02*
D03*
Y03875D02*
D03*
X0549Y0385D02*
D03*
Y03875D02*
D03*
X05515D02*
D03*
Y0385D02*
D03*
X0554Y03875D02*
D03*
Y0385D02*
D03*
X05565Y03825D02*
D03*
X0554D02*
D03*
X05515D02*
D03*
X0549D02*
D03*
X05665Y0385D02*
D03*
Y03875D02*
D03*
X0559Y0385D02*
D03*
Y03875D02*
D03*
X05615D02*
D03*
Y0385D02*
D03*
X0564Y03875D02*
D03*
Y0385D02*
D03*
X05665Y03825D02*
D03*
X0564D02*
D03*
X05615D02*
D03*
X0559D02*
D03*
X05765Y0385D02*
D03*
Y03875D02*
D03*
X0569Y0385D02*
D03*
Y03875D02*
D03*
X05715D02*
D03*
Y0385D02*
D03*
X0574Y03875D02*
D03*
Y0385D02*
D03*
X05765Y03825D02*
D03*
X0574D02*
D03*
X05715D02*
D03*
X0569D02*
D03*
X05815Y04125D02*
D03*
X0579D02*
D03*
Y0415D02*
D03*
X05815D02*
D03*
Y0405D02*
D03*
X0579D02*
D03*
Y04075D02*
D03*
X05815D02*
D03*
X0579Y041D02*
D03*
X05815D02*
D03*
X0584Y04125D02*
D03*
Y0415D02*
D03*
Y041D02*
D03*
Y04075D02*
D03*
Y0405D02*
D03*
X05815Y03975D02*
D03*
X0579D02*
D03*
Y04D02*
D03*
X05815D02*
D03*
X0579Y04025D02*
D03*
X05815D02*
D03*
Y039D02*
D03*
X0579D02*
D03*
Y03925D02*
D03*
X05815D02*
D03*
X0579Y0395D02*
D03*
X05815D02*
D03*
X0584Y03975D02*
D03*
Y04D02*
D03*
Y04025D02*
D03*
Y0395D02*
D03*
Y03925D02*
D03*
Y039D02*
D03*
X05815Y03825D02*
D03*
X0579D02*
D03*
Y0385D02*
D03*
X05815D02*
D03*
X0579Y03875D02*
D03*
X05815D02*
D03*
X0584Y03825D02*
D03*
Y0385D02*
D03*
Y03875D02*
D03*
X05835Y0443D02*
D03*
Y04405D02*
D03*
Y0438D02*
D03*
X0581Y0443D02*
D03*
X05785D02*
D03*
X0581Y04405D02*
D03*
X05785D02*
D03*
Y0438D02*
D03*
X0581D02*
D03*
X05835Y04455D02*
D03*
Y0448D02*
D03*
Y04505D02*
D03*
Y0458D02*
D03*
Y04555D02*
D03*
Y0453D02*
D03*
X0581Y04505D02*
D03*
X05785D02*
D03*
X0581Y0448D02*
D03*
X05785D02*
D03*
Y04455D02*
D03*
X0581D02*
D03*
Y0458D02*
D03*
X05785D02*
D03*
X0581Y04555D02*
D03*
X05785D02*
D03*
Y0453D02*
D03*
X0581D02*
D03*
X05835Y04605D02*
D03*
Y0463D02*
D03*
Y04655D02*
D03*
Y0473D02*
D03*
Y04705D02*
D03*
Y0468D02*
D03*
X0581Y04655D02*
D03*
X05785D02*
D03*
X0581Y0463D02*
D03*
X05785D02*
D03*
Y04605D02*
D03*
X0581D02*
D03*
Y0473D02*
D03*
X05785D02*
D03*
X0581Y04705D02*
D03*
X05785D02*
D03*
Y0468D02*
D03*
X0581D02*
D03*
X05685Y0438D02*
D03*
X0571D02*
D03*
X05735D02*
D03*
X0576D02*
D03*
X05735Y04405D02*
D03*
Y0443D02*
D03*
X0571Y04405D02*
D03*
Y0443D02*
D03*
X05685D02*
D03*
Y04405D02*
D03*
X0576Y0443D02*
D03*
Y04405D02*
D03*
X05585Y0438D02*
D03*
X0561D02*
D03*
X05635D02*
D03*
X0566D02*
D03*
X05635Y04405D02*
D03*
Y0443D02*
D03*
X0561Y04405D02*
D03*
Y0443D02*
D03*
X05585D02*
D03*
Y04405D02*
D03*
X0566Y0443D02*
D03*
Y04405D02*
D03*
X05485Y0438D02*
D03*
X0551D02*
D03*
X05535D02*
D03*
X0556D02*
D03*
X05535Y04405D02*
D03*
Y0443D02*
D03*
X0551Y04405D02*
D03*
Y0443D02*
D03*
X05485D02*
D03*
Y04405D02*
D03*
X0556Y0443D02*
D03*
Y04405D02*
D03*
X05685Y04455D02*
D03*
Y0448D02*
D03*
X0571D02*
D03*
Y04455D02*
D03*
X05735Y0448D02*
D03*
Y04455D02*
D03*
X0576Y0448D02*
D03*
Y04455D02*
D03*
X05735Y04505D02*
D03*
Y0453D02*
D03*
X0571Y04505D02*
D03*
Y0453D02*
D03*
X05685D02*
D03*
Y04505D02*
D03*
X0576Y0453D02*
D03*
Y04505D02*
D03*
X05585Y04455D02*
D03*
Y0448D02*
D03*
X0561D02*
D03*
Y04455D02*
D03*
X05635Y0448D02*
D03*
Y04455D02*
D03*
X0566Y0448D02*
D03*
Y04455D02*
D03*
X05635Y04505D02*
D03*
Y0453D02*
D03*
X0561Y04505D02*
D03*
Y0453D02*
D03*
X05585D02*
D03*
Y04505D02*
D03*
X0566Y0453D02*
D03*
Y04505D02*
D03*
X05485Y04455D02*
D03*
Y0448D02*
D03*
X0551D02*
D03*
Y04455D02*
D03*
X05535Y0448D02*
D03*
Y04455D02*
D03*
X0556Y0448D02*
D03*
Y04455D02*
D03*
X05535Y04505D02*
D03*
Y0453D02*
D03*
X0551Y04505D02*
D03*
Y0453D02*
D03*
X05485D02*
D03*
Y04505D02*
D03*
X0556Y0453D02*
D03*
Y04505D02*
D03*
X05685Y04555D02*
D03*
Y0458D02*
D03*
X0571D02*
D03*
Y04555D02*
D03*
X05735Y0458D02*
D03*
Y04555D02*
D03*
X0576Y0458D02*
D03*
Y04555D02*
D03*
X05735Y04605D02*
D03*
Y0463D02*
D03*
X0571Y04605D02*
D03*
Y0463D02*
D03*
X05685D02*
D03*
Y04605D02*
D03*
X0576Y0463D02*
D03*
Y04605D02*
D03*
X05585Y04555D02*
D03*
Y0458D02*
D03*
X0561D02*
D03*
Y04555D02*
D03*
X05635Y0458D02*
D03*
Y04555D02*
D03*
X0566Y0458D02*
D03*
Y04555D02*
D03*
X05635Y04605D02*
D03*
Y0463D02*
D03*
X0561Y04605D02*
D03*
Y0463D02*
D03*
X05585D02*
D03*
Y04605D02*
D03*
X0566Y0463D02*
D03*
Y04605D02*
D03*
X05485Y04555D02*
D03*
Y0458D02*
D03*
X0551D02*
D03*
Y04555D02*
D03*
X05535Y0458D02*
D03*
Y04555D02*
D03*
X0556Y0458D02*
D03*
Y04555D02*
D03*
X05535Y04605D02*
D03*
Y0463D02*
D03*
X0551Y04605D02*
D03*
Y0463D02*
D03*
X05485D02*
D03*
Y04605D02*
D03*
X0556Y0463D02*
D03*
Y04605D02*
D03*
X05685Y04655D02*
D03*
Y0468D02*
D03*
X0571D02*
D03*
Y04655D02*
D03*
X05735Y0468D02*
D03*
Y04655D02*
D03*
X0576Y0468D02*
D03*
Y04655D02*
D03*
X05735Y04705D02*
D03*
Y0473D02*
D03*
X0571Y04705D02*
D03*
Y0473D02*
D03*
X05685D02*
D03*
Y04705D02*
D03*
X0576Y0473D02*
D03*
Y04705D02*
D03*
X05585Y04655D02*
D03*
Y0468D02*
D03*
X0561D02*
D03*
Y04655D02*
D03*
X05635Y0468D02*
D03*
Y04655D02*
D03*
X0566Y0468D02*
D03*
Y04655D02*
D03*
X05635Y04705D02*
D03*
Y0473D02*
D03*
X0561Y04705D02*
D03*
Y0473D02*
D03*
X05585D02*
D03*
Y04705D02*
D03*
X0566Y0473D02*
D03*
Y04705D02*
D03*
X05485Y04655D02*
D03*
Y0468D02*
D03*
X0551D02*
D03*
Y04655D02*
D03*
X05535Y0468D02*
D03*
Y04655D02*
D03*
X0556Y0468D02*
D03*
Y04655D02*
D03*
X05535Y04705D02*
D03*
Y0473D02*
D03*
X0551Y04705D02*
D03*
Y0473D02*
D03*
X05485D02*
D03*
Y04705D02*
D03*
X0556Y0473D02*
D03*
Y04705D02*
D03*
X04382Y04071D02*
D03*
D149*
X082968Y05205D02*
D03*
X08145Y050532D02*
D03*
X08205Y05065D02*
D03*
X08255Y05095D02*
D03*
X08285Y05145D02*
D03*
X079932Y05205D02*
D03*
X08005Y05145D02*
D03*
X08035Y05095D02*
D03*
X08085Y05065D02*
D03*
X08145Y053568D02*
D03*
X08285Y05265D02*
D03*
X08255Y05315D02*
D03*
X08205Y05345D02*
D03*
X08085D02*
D03*
X08035Y05315D02*
D03*
X08005Y05265D02*
D03*
Y0424D02*
D03*
X08035Y0429D02*
D03*
X08085Y0432D02*
D03*
X08205D02*
D03*
X08255Y0429D02*
D03*
X08285Y0424D02*
D03*
X08145Y043318D02*
D03*
X08085Y0404D02*
D03*
X08005Y0412D02*
D03*
X079932Y0418D02*
D03*
X08285Y0412D02*
D03*
X08255Y0407D02*
D03*
X08205Y0404D02*
D03*
X08145Y040282D02*
D03*
X082968Y0418D02*
D03*
X08035Y0407D02*
D03*
X08005Y0345D02*
D03*
X08035Y035D02*
D03*
X08085Y0353D02*
D03*
X08205D02*
D03*
X08255Y035D02*
D03*
X08285Y0345D02*
D03*
X08145Y035418D02*
D03*
X08085Y0325D02*
D03*
X08005Y0333D02*
D03*
X079932Y0339D02*
D03*
X08285Y0333D02*
D03*
X08255Y0328D02*
D03*
X08205Y0325D02*
D03*
X08145Y032382D02*
D03*
X082968Y0339D02*
D03*
X08035Y0328D02*
D03*
D150*
X082968Y0235D02*
D03*
X08145Y021982D02*
D03*
X08205Y0221D02*
D03*
X08255Y0224D02*
D03*
X08285Y0229D02*
D03*
X079932Y0235D02*
D03*
X08005Y0229D02*
D03*
X08035Y0224D02*
D03*
X08085Y0221D02*
D03*
X08145Y025018D02*
D03*
X08285Y0241D02*
D03*
X08255Y0246D02*
D03*
X08205Y0249D02*
D03*
X08085D02*
D03*
X08035Y0246D02*
D03*
X08005Y0241D02*
D03*
M02*
