G04*
G04 #@! TF.GenerationSoftware,Altium Limited,Altium Designer,21.3.2 (30)*
G04*
G04 Layer_Color=16711935*
%FSTAX24Y24*%
%MOIN*%
G70*
G04*
G04 #@! TF.SameCoordinates,B67C6306-A56B-4E52-B5C8-3BB335875088*
G04*
G04*
G04 #@! TF.FilePolarity,Positive*
G04*
G01*
G75*
%ADD10C,0.0100*%
D10*
X08406Y05786D02*
G03*
X08336Y05815I-0007J-0007D01*
G01*
X08435Y05716D02*
G03*
X08406Y05786I-00099J0D01*
G01*
X0841Y01774D02*
G03*
X08435Y018344I-000604J000604D01*
G01*
X083279Y0174D02*
G03*
X0841Y01774I0J001161D01*
G01*
X03517Y01771D02*
G03*
X035918Y0174I000748J000748D01*
G01*
X0349Y018362D02*
G03*
X03517Y01771I000922J0D01*
G01*
X03523Y05789D02*
G03*
X0349Y057093I000797J-000797D01*
G01*
X035858Y05815D02*
G03*
X03523Y05789I0J-000888D01*
G01*
X04138Y05779D02*
G03*
X04102Y05815I-00036J0D01*
G01*
X04138Y0572D02*
G03*
X04188Y0567I0005J0D01*
G01*
X04262D02*
G03*
X04312Y0572I0J0005D01*
G01*
X0436Y05815D02*
G03*
X04312Y05767I0J-00048D01*
G01*
X04446Y05815D02*
X08336D01*
X08435Y018344D02*
Y05716D01*
X035918Y0174D02*
X083279D01*
X0349Y018362D02*
Y057093D01*
X035858Y05815D02*
X04102D01*
X04138Y0572D02*
Y05779D01*
X04188Y0567D02*
X04262D01*
X04312Y0572D02*
Y05767D01*
X0436Y05815D02*
X04446D01*
M02*
